M48
; DRILL file {KiCad 5.1.8-db9833491~87~ubuntu20.04.1} date Mon Nov 23 16:13:23 2020
; FORMAT={-:-/ absolute / inch / decimal}
; #@! TF.CreationDate,2020-11-23T16:13:23+01:00
; #@! TF.GenerationSoftware,Kicad,Pcbnew,5.1.8-db9833491~87~ubuntu20.04.1
; #@! TF.FileFunction,Plated,1,2,PTH
FMAT,2
INCH
T1C0.0157
T2C0.0197
T3C0.0236
T4C0.0300
T5C0.0354
T6C0.0394
T7C0.0400
T8C0.0512
%
G90
G05
T1
X4.3331Y-3.9843
X4.4102Y-4.2382
X4.4106Y-4.3933
X4.411Y-4.1988
X4.4112Y-4.0561
X4.4112Y-4.0965
X4.4112Y-4.1309
X4.4112Y-4.1654
X4.4417Y-3.9055
X4.4447Y-4.0561
X4.4447Y-4.0965
X4.4447Y-4.1309
X4.4447Y-4.1654
X4.4447Y-4.1988
X4.4447Y-4.2386
X4.4776Y-4.1644
X4.4781Y-4.0571
X4.4781Y-4.0965
X4.4781Y-4.1309
X4.4781Y-4.1988
X4.4781Y-4.239
X4.5161Y-4.5732
X4.6016Y-3.8673
X4.6051Y-4.2224
X4.7169Y-4.2224
X4.7213Y-4.5346
X4.7854Y-3.5994
X4.8228Y-4.5177
X4.8228Y-4.6941
X4.8228Y-4.8553
X4.9248Y-4.5343
X5.1181Y-4.7205
X5.3248Y-4.7205
X5.5315Y-4.7205
X5.6445Y-4.1146
X5.65Y-3.8862
X5.6811Y-4.0472
X5.7382Y-4.7205
X5.7945Y-3.8583
X5.7945Y-3.9209
X5.8181Y-4.1717
X5.8181Y-4.2311
X5.8319Y-4.048
X5.8677Y-3.8917
X5.8795Y-4.048
X5.9235Y-3.9907
X5.9449Y-4.7185
X5.9457Y-3.5994
X5.9685Y-4.3465
X6.0165Y-3.8898
X6.0469Y-4.2142
X6.0634Y-3.7173
X6.0913Y-4.4764
X6.1228Y-3.8268
X6.1516Y-4.7205
X6.1598Y-4.0738
X6.161Y-4.0287
X6.1614Y-3.9864
X6.1661Y-3.7594
X6.2008Y-4.1138
X6.2008Y-4.1535
X6.2936Y-3.8317
X6.3587Y-4.7205
X6.4618Y-3.7319
X6.565Y-4.7205
X6.9055Y-3.8193
X6.9055Y-4.3701
X7.0512Y-3.8189
X7.0512Y-4.3697
X7.4764Y-4.2913
X7.622Y-4.2913
X7.6382Y-4.1583
X7.7047Y-4.1657
T2
X5.5709Y-4.9016
X5.6201Y-4.9016
X6.1909Y-4.9016
X6.2402Y-4.9016
X5.7776Y-4.9016
X5.8268Y-4.9016
X5.9843Y-4.9016
X6.0335Y-4.9016
X5.1575Y-4.9016
X5.2067Y-4.9016
X6.3976Y-4.9016
X6.4469Y-4.9016
X5.3642Y-4.9016
X5.4134Y-4.9016
X6.6043Y-4.9016
X6.6535Y-4.9016
T4
X4.4882Y-3.2283
X7.3228Y-3.2283
X4.8807Y-3.6925
X4.9807Y-3.6925
T5
X6.8382Y-4.8795
X6.9382Y-4.8795
X7.0382Y-4.8795
X4.3378Y-4.8807
X4.4378Y-4.8807
X4.5378Y-4.8807
T6
X4.1591Y-3.3803
X4.2591Y-3.3803
X5.1323Y-3.8878
X5.1323Y-3.9878
X5.2323Y-3.8878
X5.2323Y-3.9878
X5.3323Y-3.8878
X5.3323Y-3.9878
X5.4323Y-3.8878
X5.4323Y-3.9878
X5.5323Y-3.8878
X5.5323Y-3.9878
X6.6488Y-3.7823
X6.6488Y-4.0815
T7
X7.2933Y-4.8398
T8
X7.1933Y-4.7398
X7.1933Y-4.9398
X7.3933Y-4.7398
X7.3933Y-4.9398
T3
G00X4.6528Y-4.7961
M15
G01X4.6528Y-4.8394
M16
G05
G00X4.6528Y-4.9705
M15
G01X4.6528Y-4.9941
M16
G05
G00X4.9929Y-4.7961
M15
G01X4.9929Y-4.8394
M16
G05
G00X4.9929Y-4.9705
M15
G01X4.9929Y-4.9941
M16
G05
T0
M30
