G04 #@! TF.GenerationSoftware,KiCad,Pcbnew,5.1.8-db9833491~87~ubuntu20.04.1*
G04 #@! TF.CreationDate,2020-11-23T16:13:26+01:00*
G04 #@! TF.ProjectId,lucy,6c756379-2e6b-4696-9361-645f70636258,v1.0*
G04 #@! TF.SameCoordinates,Original*
G04 #@! TF.FileFunction,Soldermask,Bot*
G04 #@! TF.FilePolarity,Negative*
%FSLAX46Y46*%
G04 Gerber Fmt 4.6, Leading zero omitted, Abs format (unit mm)*
G04 Created by KiCad (PCBNEW 5.1.8-db9833491~87~ubuntu20.04.1) date 2020-11-23 16:13:26*
%MOMM*%
%LPD*%
G01*
G04 APERTURE LIST*
%ADD10C,2.000000*%
%ADD11C,1.524000*%
%ADD12O,1.000000X1.600000*%
%ADD13C,0.650000*%
%ADD14O,1.000000X2.100000*%
%ADD15C,2.700000*%
%ADD16R,2.000000X2.000000*%
%ADD17R,1.800000X1.800000*%
%ADD18C,1.800000*%
%ADD19R,1.700000X1.700000*%
%ADD20O,1.700000X1.700000*%
%ADD21O,0.800000X1.300000*%
G04 APERTURE END LIST*
D10*
X182710000Y-125470000D03*
X187790000Y-125470000D03*
X187790000Y-120390000D03*
X182710000Y-120390000D03*
D11*
X185250000Y-122930000D03*
D12*
X126820000Y-126550000D03*
D13*
X125390000Y-122900000D03*
D12*
X118180000Y-126550000D03*
D13*
X119610000Y-122900000D03*
D14*
X118180000Y-122370000D03*
X126820000Y-122370000D03*
G36*
G01*
X184238000Y-85381000D02*
X184238000Y-78619000D01*
G75*
G02*
X185119000Y-77738000I881000J0D01*
G01*
X186881000Y-77738000D01*
G75*
G02*
X187762000Y-78619000I0J-881000D01*
G01*
X187762000Y-85381000D01*
G75*
G02*
X186881000Y-86262000I-881000J0D01*
G01*
X185119000Y-86262000D01*
G75*
G02*
X184238000Y-85381000I0J881000D01*
G01*
G37*
G36*
G01*
X112238000Y-85381000D02*
X112238000Y-78619000D01*
G75*
G02*
X113119000Y-77738000I881000J0D01*
G01*
X114881000Y-77738000D01*
G75*
G02*
X115762000Y-78619000I0J-881000D01*
G01*
X115762000Y-85381000D01*
G75*
G02*
X114881000Y-86262000I-881000J0D01*
G01*
X113119000Y-86262000D01*
G75*
G02*
X112238000Y-85381000I0J881000D01*
G01*
G37*
D15*
X106000000Y-124000000D03*
X193500000Y-124000000D03*
X194000000Y-76000000D03*
X106000000Y-76000000D03*
D16*
X168880000Y-103670000D03*
D10*
X168880000Y-96070000D03*
D17*
X178770000Y-123940000D03*
D18*
X176230000Y-123940000D03*
X173690000Y-123940000D03*
D17*
X110180000Y-123970000D03*
D18*
X112720000Y-123970000D03*
X115260000Y-123970000D03*
D19*
X108180000Y-85860000D03*
D20*
X105640000Y-85860000D03*
D21*
X132250000Y-124500000D03*
G36*
G01*
X130600000Y-124950000D02*
X130600000Y-124050000D01*
G75*
G02*
X130800000Y-123850000I200000J0D01*
G01*
X131200000Y-123850000D01*
G75*
G02*
X131400000Y-124050000I0J-200000D01*
G01*
X131400000Y-124950000D01*
G75*
G02*
X131200000Y-125150000I-200000J0D01*
G01*
X130800000Y-125150000D01*
G75*
G02*
X130600000Y-124950000I0J200000D01*
G01*
G37*
D19*
X130360000Y-101290000D03*
D20*
X130360000Y-98750000D03*
X132900000Y-101290000D03*
X132900000Y-98750000D03*
X135440000Y-101290000D03*
X135440000Y-98750000D03*
X137980000Y-101290000D03*
X137980000Y-98750000D03*
X140520000Y-101290000D03*
X140520000Y-98750000D03*
G36*
G01*
X135850000Y-124950000D02*
X135850000Y-124050000D01*
G75*
G02*
X136050000Y-123850000I200000J0D01*
G01*
X136450000Y-123850000D01*
G75*
G02*
X136650000Y-124050000I0J-200000D01*
G01*
X136650000Y-124950000D01*
G75*
G02*
X136450000Y-125150000I-200000J0D01*
G01*
X136050000Y-125150000D01*
G75*
G02*
X135850000Y-124950000I0J200000D01*
G01*
G37*
D21*
X137500000Y-124500000D03*
X142750000Y-124500000D03*
G36*
G01*
X141100000Y-124950000D02*
X141100000Y-124050000D01*
G75*
G02*
X141300000Y-123850000I200000J0D01*
G01*
X141700000Y-123850000D01*
G75*
G02*
X141900000Y-124050000I0J-200000D01*
G01*
X141900000Y-124950000D01*
G75*
G02*
X141700000Y-125150000I-200000J0D01*
G01*
X141300000Y-125150000D01*
G75*
G02*
X141100000Y-124950000I0J200000D01*
G01*
G37*
G36*
G01*
X146350000Y-124950000D02*
X146350000Y-124050000D01*
G75*
G02*
X146550000Y-123850000I200000J0D01*
G01*
X146950000Y-123850000D01*
G75*
G02*
X147150000Y-124050000I0J-200000D01*
G01*
X147150000Y-124950000D01*
G75*
G02*
X146950000Y-125150000I-200000J0D01*
G01*
X146550000Y-125150000D01*
G75*
G02*
X146350000Y-124950000I0J200000D01*
G01*
G37*
X148000000Y-124500000D03*
G36*
G01*
X151600000Y-124950000D02*
X151600000Y-124050000D01*
G75*
G02*
X151800000Y-123850000I200000J0D01*
G01*
X152200000Y-123850000D01*
G75*
G02*
X152400000Y-124050000I0J-200000D01*
G01*
X152400000Y-124950000D01*
G75*
G02*
X152200000Y-125150000I-200000J0D01*
G01*
X151800000Y-125150000D01*
G75*
G02*
X151600000Y-124950000I0J200000D01*
G01*
G37*
X153250000Y-124500000D03*
X158500000Y-124500000D03*
G36*
G01*
X156850000Y-124950000D02*
X156850000Y-124050000D01*
G75*
G02*
X157050000Y-123850000I200000J0D01*
G01*
X157450000Y-123850000D01*
G75*
G02*
X157650000Y-124050000I0J-200000D01*
G01*
X157650000Y-124950000D01*
G75*
G02*
X157450000Y-125150000I-200000J0D01*
G01*
X157050000Y-125150000D01*
G75*
G02*
X156850000Y-124950000I0J200000D01*
G01*
G37*
G36*
G01*
X162100000Y-124950000D02*
X162100000Y-124050000D01*
G75*
G02*
X162300000Y-123850000I200000J0D01*
G01*
X162700000Y-123850000D01*
G75*
G02*
X162900000Y-124050000I0J-200000D01*
G01*
X162900000Y-124950000D01*
G75*
G02*
X162700000Y-125150000I-200000J0D01*
G01*
X162300000Y-125150000D01*
G75*
G02*
X162100000Y-124950000I0J200000D01*
G01*
G37*
X163750000Y-124500000D03*
X169000000Y-124500000D03*
G36*
G01*
X167350000Y-124950000D02*
X167350000Y-124050000D01*
G75*
G02*
X167550000Y-123850000I200000J0D01*
G01*
X167950000Y-123850000D01*
G75*
G02*
X168150000Y-124050000I0J-200000D01*
G01*
X168150000Y-124950000D01*
G75*
G02*
X167950000Y-125150000I-200000J0D01*
G01*
X167550000Y-125150000D01*
G75*
G02*
X167350000Y-124950000I0J200000D01*
G01*
G37*
D11*
X126510000Y-93790000D03*
X123970000Y-93790000D03*
M02*
