G04 #@! TF.GenerationSoftware,KiCad,Pcbnew,5.1.8-db9833491~87~ubuntu20.04.1*
G04 #@! TF.CreationDate,2020-11-23T16:13:26+01:00*
G04 #@! TF.ProjectId,lucy,6c756379-2e6b-4696-9361-645f70636258,v1.0*
G04 #@! TF.SameCoordinates,Original*
G04 #@! TF.FileFunction,Copper,L2,Bot*
G04 #@! TF.FilePolarity,Positive*
%FSLAX46Y46*%
G04 Gerber Fmt 4.6, Leading zero omitted, Abs format (unit mm)*
G04 Created by KiCad (PCBNEW 5.1.8-db9833491~87~ubuntu20.04.1) date 2020-11-23 16:13:26*
%MOMM*%
%LPD*%
G01*
G04 APERTURE LIST*
G04 #@! TA.AperFunction,ComponentPad*
%ADD10C,2.000000*%
G04 #@! TD*
G04 #@! TA.AperFunction,ComponentPad*
%ADD11C,1.524000*%
G04 #@! TD*
G04 #@! TA.AperFunction,ComponentPad*
%ADD12O,1.000000X1.600000*%
G04 #@! TD*
G04 #@! TA.AperFunction,ComponentPad*
%ADD13O,1.000000X2.100000*%
G04 #@! TD*
G04 #@! TA.AperFunction,ComponentPad*
%ADD14R,2.000000X2.000000*%
G04 #@! TD*
G04 #@! TA.AperFunction,ComponentPad*
%ADD15R,1.800000X1.800000*%
G04 #@! TD*
G04 #@! TA.AperFunction,ComponentPad*
%ADD16C,1.800000*%
G04 #@! TD*
G04 #@! TA.AperFunction,ComponentPad*
%ADD17R,1.700000X1.700000*%
G04 #@! TD*
G04 #@! TA.AperFunction,ComponentPad*
%ADD18O,1.700000X1.700000*%
G04 #@! TD*
G04 #@! TA.AperFunction,ComponentPad*
%ADD19O,0.800000X1.300000*%
G04 #@! TD*
G04 #@! TA.AperFunction,ViaPad*
%ADD20C,0.800000*%
G04 #@! TD*
G04 #@! TA.AperFunction,Conductor*
%ADD21C,0.500000*%
G04 #@! TD*
G04 #@! TA.AperFunction,Conductor*
%ADD22C,0.750000*%
G04 #@! TD*
G04 #@! TA.AperFunction,Conductor*
%ADD23C,0.250000*%
G04 #@! TD*
G04 #@! TA.AperFunction,Conductor*
%ADD24C,0.400000*%
G04 #@! TD*
G04 #@! TA.AperFunction,Conductor*
%ADD25C,0.254000*%
G04 #@! TD*
G04 #@! TA.AperFunction,Conductor*
%ADD26C,0.100000*%
G04 #@! TD*
G04 APERTURE END LIST*
D10*
X182710000Y-125470000D03*
X187790000Y-125470000D03*
X187790000Y-120390000D03*
X182710000Y-120390000D03*
D11*
X185250000Y-122930000D03*
D12*
X126820000Y-126550000D03*
X118180000Y-126550000D03*
D13*
X118180000Y-122370000D03*
X126820000Y-122370000D03*
G04 #@! TA.AperFunction,ComponentPad*
G36*
G01*
X184238000Y-85381000D02*
X184238000Y-78619000D01*
G75*
G02*
X185119000Y-77738000I881000J0D01*
G01*
X186881000Y-77738000D01*
G75*
G02*
X187762000Y-78619000I0J-881000D01*
G01*
X187762000Y-85381000D01*
G75*
G02*
X186881000Y-86262000I-881000J0D01*
G01*
X185119000Y-86262000D01*
G75*
G02*
X184238000Y-85381000I0J881000D01*
G01*
G37*
G04 #@! TD.AperFunction*
G04 #@! TA.AperFunction,ComponentPad*
G36*
G01*
X112238000Y-85381000D02*
X112238000Y-78619000D01*
G75*
G02*
X113119000Y-77738000I881000J0D01*
G01*
X114881000Y-77738000D01*
G75*
G02*
X115762000Y-78619000I0J-881000D01*
G01*
X115762000Y-85381000D01*
G75*
G02*
X114881000Y-86262000I-881000J0D01*
G01*
X113119000Y-86262000D01*
G75*
G02*
X112238000Y-85381000I0J881000D01*
G01*
G37*
G04 #@! TD.AperFunction*
D14*
X168880000Y-103670000D03*
D10*
X168880000Y-96070000D03*
D15*
X178770000Y-123940000D03*
D16*
X176230000Y-123940000D03*
X173690000Y-123940000D03*
D15*
X110180000Y-123970000D03*
D16*
X112720000Y-123970000D03*
X115260000Y-123970000D03*
D17*
X108180000Y-85860000D03*
D18*
X105640000Y-85860000D03*
D19*
X132250000Y-124500000D03*
G04 #@! TA.AperFunction,ComponentPad*
G36*
G01*
X130600000Y-124950000D02*
X130600000Y-124050000D01*
G75*
G02*
X130800000Y-123850000I200000J0D01*
G01*
X131200000Y-123850000D01*
G75*
G02*
X131400000Y-124050000I0J-200000D01*
G01*
X131400000Y-124950000D01*
G75*
G02*
X131200000Y-125150000I-200000J0D01*
G01*
X130800000Y-125150000D01*
G75*
G02*
X130600000Y-124950000I0J200000D01*
G01*
G37*
G04 #@! TD.AperFunction*
D17*
X130360000Y-101290000D03*
D18*
X130360000Y-98750000D03*
X132900000Y-101290000D03*
X132900000Y-98750000D03*
X135440000Y-101290000D03*
X135440000Y-98750000D03*
X137980000Y-101290000D03*
X137980000Y-98750000D03*
X140520000Y-101290000D03*
X140520000Y-98750000D03*
G04 #@! TA.AperFunction,ComponentPad*
G36*
G01*
X135850000Y-124950000D02*
X135850000Y-124050000D01*
G75*
G02*
X136050000Y-123850000I200000J0D01*
G01*
X136450000Y-123850000D01*
G75*
G02*
X136650000Y-124050000I0J-200000D01*
G01*
X136650000Y-124950000D01*
G75*
G02*
X136450000Y-125150000I-200000J0D01*
G01*
X136050000Y-125150000D01*
G75*
G02*
X135850000Y-124950000I0J200000D01*
G01*
G37*
G04 #@! TD.AperFunction*
D19*
X137500000Y-124500000D03*
X142750000Y-124500000D03*
G04 #@! TA.AperFunction,ComponentPad*
G36*
G01*
X141100000Y-124950000D02*
X141100000Y-124050000D01*
G75*
G02*
X141300000Y-123850000I200000J0D01*
G01*
X141700000Y-123850000D01*
G75*
G02*
X141900000Y-124050000I0J-200000D01*
G01*
X141900000Y-124950000D01*
G75*
G02*
X141700000Y-125150000I-200000J0D01*
G01*
X141300000Y-125150000D01*
G75*
G02*
X141100000Y-124950000I0J200000D01*
G01*
G37*
G04 #@! TD.AperFunction*
G04 #@! TA.AperFunction,ComponentPad*
G36*
G01*
X146350000Y-124950000D02*
X146350000Y-124050000D01*
G75*
G02*
X146550000Y-123850000I200000J0D01*
G01*
X146950000Y-123850000D01*
G75*
G02*
X147150000Y-124050000I0J-200000D01*
G01*
X147150000Y-124950000D01*
G75*
G02*
X146950000Y-125150000I-200000J0D01*
G01*
X146550000Y-125150000D01*
G75*
G02*
X146350000Y-124950000I0J200000D01*
G01*
G37*
G04 #@! TD.AperFunction*
X148000000Y-124500000D03*
G04 #@! TA.AperFunction,ComponentPad*
G36*
G01*
X151600000Y-124950000D02*
X151600000Y-124050000D01*
G75*
G02*
X151800000Y-123850000I200000J0D01*
G01*
X152200000Y-123850000D01*
G75*
G02*
X152400000Y-124050000I0J-200000D01*
G01*
X152400000Y-124950000D01*
G75*
G02*
X152200000Y-125150000I-200000J0D01*
G01*
X151800000Y-125150000D01*
G75*
G02*
X151600000Y-124950000I0J200000D01*
G01*
G37*
G04 #@! TD.AperFunction*
X153250000Y-124500000D03*
X158500000Y-124500000D03*
G04 #@! TA.AperFunction,ComponentPad*
G36*
G01*
X156850000Y-124950000D02*
X156850000Y-124050000D01*
G75*
G02*
X157050000Y-123850000I200000J0D01*
G01*
X157450000Y-123850000D01*
G75*
G02*
X157650000Y-124050000I0J-200000D01*
G01*
X157650000Y-124950000D01*
G75*
G02*
X157450000Y-125150000I-200000J0D01*
G01*
X157050000Y-125150000D01*
G75*
G02*
X156850000Y-124950000I0J200000D01*
G01*
G37*
G04 #@! TD.AperFunction*
G04 #@! TA.AperFunction,ComponentPad*
G36*
G01*
X162100000Y-124950000D02*
X162100000Y-124050000D01*
G75*
G02*
X162300000Y-123850000I200000J0D01*
G01*
X162700000Y-123850000D01*
G75*
G02*
X162900000Y-124050000I0J-200000D01*
G01*
X162900000Y-124950000D01*
G75*
G02*
X162700000Y-125150000I-200000J0D01*
G01*
X162300000Y-125150000D01*
G75*
G02*
X162100000Y-124950000I0J200000D01*
G01*
G37*
G04 #@! TD.AperFunction*
X163750000Y-124500000D03*
X169000000Y-124500000D03*
G04 #@! TA.AperFunction,ComponentPad*
G36*
G01*
X167350000Y-124950000D02*
X167350000Y-124050000D01*
G75*
G02*
X167550000Y-123850000I200000J0D01*
G01*
X167950000Y-123850000D01*
G75*
G02*
X168150000Y-124050000I0J-200000D01*
G01*
X168150000Y-124950000D01*
G75*
G02*
X167950000Y-125150000I-200000J0D01*
G01*
X167550000Y-125150000D01*
G75*
G02*
X167350000Y-124950000I0J200000D01*
G01*
G37*
G04 #@! TD.AperFunction*
D11*
X126510000Y-93790000D03*
X123970000Y-93790000D03*
D20*
X112040000Y-106650000D03*
X112045000Y-105800000D03*
X112045000Y-104925000D03*
X112045000Y-104050000D03*
X112895000Y-104925000D03*
X112895000Y-104050000D03*
X113745000Y-104050000D03*
X113745000Y-104925000D03*
X113730000Y-105775000D03*
X113745000Y-106650000D03*
X112895000Y-106650000D03*
X112895000Y-105800000D03*
X155519999Y-97200000D03*
X156620000Y-95490000D03*
X143370000Y-104510000D03*
X112820000Y-99200002D03*
X175400000Y-111000000D03*
X147780000Y-107470000D03*
X189900000Y-109000000D03*
X110060000Y-101200000D03*
X112895000Y-103025000D03*
X113745000Y-103050000D03*
X112045000Y-103025000D03*
X116880000Y-98230000D03*
X159857994Y-97326000D03*
X151600000Y-110400000D03*
X147780000Y-105960000D03*
X125090000Y-115170000D03*
X119920000Y-115180000D03*
X154720000Y-113700002D03*
X175400000Y-97010000D03*
X193600000Y-109000000D03*
X179100000Y-110990000D03*
X179100000Y-97000000D03*
X113745000Y-107670000D03*
X112895000Y-107660000D03*
X112020000Y-107650000D03*
X112030000Y-111590000D03*
X114710000Y-116160000D03*
X195700000Y-105809992D03*
X194010000Y-105620000D03*
X144299058Y-102800000D03*
X164130000Y-94790000D03*
X122500000Y-114750000D03*
X156250000Y-119900000D03*
X161510000Y-119900000D03*
X166750000Y-119900000D03*
X151000000Y-119850000D03*
X145750000Y-119900000D03*
X140500000Y-119900000D03*
X135250000Y-119900000D03*
X130000000Y-119900000D03*
X156460000Y-103475010D03*
X154010000Y-94420000D03*
X150457906Y-101364990D03*
X151020000Y-91425030D03*
X143510000Y-98709998D03*
X121550000Y-91425012D03*
X152820000Y-98800000D03*
X156500000Y-101254988D03*
X147180000Y-98000004D03*
X156490000Y-102330000D03*
X149040000Y-98850000D03*
X148130000Y-102820000D03*
X157499996Y-104490000D03*
X149340000Y-102820002D03*
X157500076Y-105500000D03*
X147180000Y-99590000D03*
X153590000Y-107040000D03*
X122500000Y-119230000D03*
X122500000Y-123325010D03*
X116970000Y-107250000D03*
X119810000Y-107250000D03*
D21*
X153598198Y-103475010D02*
X151488178Y-101364990D01*
X151488178Y-101364990D02*
X150457906Y-101364990D01*
X156460000Y-103475010D02*
X153598198Y-103475010D01*
D22*
X154010000Y-94420000D02*
X151020000Y-91430000D01*
D23*
X151020000Y-91430000D02*
X151020000Y-91425030D01*
X145009998Y-97210000D02*
X143510000Y-98709998D01*
X151230000Y-97210000D02*
X145009998Y-97210000D01*
X145445012Y-91425012D02*
X121550000Y-91425012D01*
X152820000Y-98800000D02*
X151230000Y-97210000D01*
X152820000Y-98800000D02*
X152820000Y-95160000D01*
X149085012Y-91425012D02*
X145445012Y-91425012D01*
X152820000Y-95160000D02*
X149085012Y-91425012D01*
X150330004Y-98000004D02*
X147180000Y-98000004D01*
X153584988Y-101254988D02*
X150330004Y-98000004D01*
X156500000Y-101254988D02*
X153584988Y-101254988D01*
X156490000Y-102330000D02*
X153490000Y-102330000D01*
X150010000Y-98850000D02*
X149040000Y-98850000D01*
X153490000Y-102330000D02*
X150010000Y-98850000D01*
X153610000Y-104490000D02*
X157499996Y-104490000D01*
X151210000Y-102090000D02*
X153610000Y-104490000D01*
X148860000Y-102090000D02*
X151210000Y-102090000D01*
X148130000Y-102820000D02*
X148860000Y-102090000D01*
X153600000Y-105500000D02*
X157500076Y-105500000D01*
X150920002Y-102820002D02*
X153600000Y-105500000D01*
X149340000Y-102820002D02*
X150920002Y-102820002D01*
X147180000Y-103080000D02*
X147180000Y-99590000D01*
X147760000Y-103660000D02*
X147180000Y-103080000D01*
X150210000Y-103660000D02*
X147760000Y-103660000D01*
X153590000Y-107040000D02*
X150210000Y-103660000D01*
D24*
X122500000Y-119230000D02*
X122500000Y-123325010D01*
D23*
X119810000Y-107250000D02*
X116970000Y-107250000D01*
D25*
X115995525Y-72745525D02*
X115906800Y-72853637D01*
X115840872Y-72976980D01*
X115800273Y-73110816D01*
X115786565Y-73250000D01*
X115790001Y-73284887D01*
X115790001Y-77409323D01*
X115724951Y-77355938D01*
X115462324Y-77215560D01*
X115177356Y-77129117D01*
X114881000Y-77099928D01*
X113119000Y-77099928D01*
X112822644Y-77129117D01*
X112537676Y-77215560D01*
X112275049Y-77355938D01*
X112044854Y-77544854D01*
X111855938Y-77775049D01*
X111715560Y-78037676D01*
X111629117Y-78322644D01*
X111599928Y-78619000D01*
X111599928Y-85381000D01*
X111629117Y-85677356D01*
X111715560Y-85962324D01*
X111855938Y-86224951D01*
X112044854Y-86455146D01*
X112275049Y-86644062D01*
X112537676Y-86784440D01*
X112822644Y-86870883D01*
X113119000Y-86900072D01*
X114881000Y-86900072D01*
X115177356Y-86870883D01*
X115462324Y-86784440D01*
X115724951Y-86644062D01*
X115790000Y-86590678D01*
X115790000Y-90715123D01*
X115786565Y-90750000D01*
X115800273Y-90889184D01*
X115840872Y-91023020D01*
X115906800Y-91146363D01*
X115995525Y-91254475D01*
X116079112Y-91323073D01*
X116103637Y-91343200D01*
X116226980Y-91409128D01*
X116360816Y-91449727D01*
X116500000Y-91463435D01*
X116534877Y-91460000D01*
X120515000Y-91460000D01*
X120515000Y-91526951D01*
X120554774Y-91726910D01*
X120632795Y-91915268D01*
X120746063Y-92084786D01*
X120890226Y-92228949D01*
X121059744Y-92342217D01*
X121248102Y-92420238D01*
X121448061Y-92460012D01*
X121651939Y-92460012D01*
X121851898Y-92420238D01*
X122040256Y-92342217D01*
X122209774Y-92228949D01*
X122253711Y-92185012D01*
X148770211Y-92185012D01*
X152060001Y-95474803D01*
X152060001Y-96965199D01*
X151793804Y-96699003D01*
X151770001Y-96669999D01*
X151654276Y-96575026D01*
X151522247Y-96504454D01*
X151378986Y-96460997D01*
X151267333Y-96450000D01*
X151267322Y-96450000D01*
X151230000Y-96446324D01*
X151192678Y-96450000D01*
X145047331Y-96450000D01*
X145009998Y-96446323D01*
X144972665Y-96450000D01*
X144861012Y-96460997D01*
X144717751Y-96504454D01*
X144585722Y-96575026D01*
X144469997Y-96669999D01*
X144446199Y-96698997D01*
X143470199Y-97674998D01*
X143408061Y-97674998D01*
X143208102Y-97714772D01*
X143019744Y-97792793D01*
X142850226Y-97906061D01*
X142706063Y-98050224D01*
X142592795Y-98219742D01*
X142514774Y-98408100D01*
X142475000Y-98608059D01*
X142475000Y-98811937D01*
X142514774Y-99011896D01*
X142592795Y-99200254D01*
X142706063Y-99369772D01*
X142850226Y-99513935D01*
X143019744Y-99627203D01*
X143208102Y-99705224D01*
X143408061Y-99744998D01*
X143611939Y-99744998D01*
X143811898Y-99705224D01*
X144000256Y-99627203D01*
X144169774Y-99513935D01*
X144313937Y-99369772D01*
X144427205Y-99200254D01*
X144505226Y-99011896D01*
X144545000Y-98811937D01*
X144545000Y-98749799D01*
X145324800Y-97970000D01*
X146145000Y-97970000D01*
X146145000Y-98101943D01*
X146184774Y-98301902D01*
X146262795Y-98490260D01*
X146376063Y-98659778D01*
X146511287Y-98795002D01*
X146376063Y-98930226D01*
X146262795Y-99099744D01*
X146184774Y-99288102D01*
X146145000Y-99488061D01*
X146145000Y-99691939D01*
X146184774Y-99891898D01*
X146262795Y-100080256D01*
X146376063Y-100249774D01*
X146420001Y-100293712D01*
X146420000Y-103042677D01*
X146416324Y-103080000D01*
X146420000Y-103117322D01*
X146420000Y-103117332D01*
X146430997Y-103228985D01*
X146460191Y-103325226D01*
X146474454Y-103372246D01*
X146545026Y-103504276D01*
X146550557Y-103511015D01*
X146639999Y-103620001D01*
X146669002Y-103643803D01*
X147196200Y-104171002D01*
X147219999Y-104200001D01*
X147335724Y-104294974D01*
X147467753Y-104365546D01*
X147611014Y-104409003D01*
X147722667Y-104420000D01*
X147722677Y-104420000D01*
X147760000Y-104423676D01*
X147797323Y-104420000D01*
X149895199Y-104420000D01*
X152555000Y-107079802D01*
X152555000Y-107141939D01*
X152594774Y-107341898D01*
X152672795Y-107530256D01*
X152786063Y-107699774D01*
X152930226Y-107843937D01*
X153099744Y-107957205D01*
X153288102Y-108035226D01*
X153488061Y-108075000D01*
X153691939Y-108075000D01*
X153891898Y-108035226D01*
X154080256Y-107957205D01*
X154249774Y-107843937D01*
X154393937Y-107699774D01*
X154507205Y-107530256D01*
X154585226Y-107341898D01*
X154625000Y-107141939D01*
X154625000Y-106938061D01*
X154585226Y-106738102D01*
X154507205Y-106549744D01*
X154393937Y-106380226D01*
X154273711Y-106260000D01*
X156796365Y-106260000D01*
X156840302Y-106303937D01*
X157009820Y-106417205D01*
X157198178Y-106495226D01*
X157398137Y-106535000D01*
X157602015Y-106535000D01*
X157801974Y-106495226D01*
X157990332Y-106417205D01*
X158159850Y-106303937D01*
X158304013Y-106159774D01*
X158417281Y-105990256D01*
X158495302Y-105801898D01*
X158535076Y-105601939D01*
X158535076Y-105398061D01*
X158495302Y-105198102D01*
X158417281Y-105009744D01*
X158407389Y-104994940D01*
X158417201Y-104980256D01*
X158495222Y-104791898D01*
X158534996Y-104591939D01*
X158534996Y-104388061D01*
X158495222Y-104188102D01*
X158417201Y-103999744D01*
X158303933Y-103830226D01*
X158159770Y-103686063D01*
X157990252Y-103572795D01*
X157801894Y-103494774D01*
X157601935Y-103455000D01*
X157495000Y-103455000D01*
X157495000Y-103373071D01*
X157455226Y-103173112D01*
X157377205Y-102984754D01*
X157337248Y-102924954D01*
X157407205Y-102820256D01*
X157469443Y-102670000D01*
X167241928Y-102670000D01*
X167241928Y-104670000D01*
X167254188Y-104794482D01*
X167290498Y-104914180D01*
X167349463Y-105024494D01*
X167428815Y-105121185D01*
X167525506Y-105200537D01*
X167635820Y-105259502D01*
X167755518Y-105295812D01*
X167880000Y-105308072D01*
X169880000Y-105308072D01*
X170004482Y-105295812D01*
X170124180Y-105259502D01*
X170234494Y-105200537D01*
X170331185Y-105121185D01*
X170410537Y-105024494D01*
X170469502Y-104914180D01*
X170505812Y-104794482D01*
X170518072Y-104670000D01*
X170518072Y-102670000D01*
X170505812Y-102545518D01*
X170469502Y-102425820D01*
X170410537Y-102315506D01*
X170331185Y-102218815D01*
X170234494Y-102139463D01*
X170124180Y-102080498D01*
X170004482Y-102044188D01*
X169880000Y-102031928D01*
X167880000Y-102031928D01*
X167755518Y-102044188D01*
X167635820Y-102080498D01*
X167525506Y-102139463D01*
X167428815Y-102218815D01*
X167349463Y-102315506D01*
X167290498Y-102425820D01*
X167254188Y-102545518D01*
X167241928Y-102670000D01*
X157469443Y-102670000D01*
X157485226Y-102631898D01*
X157525000Y-102431939D01*
X157525000Y-102228061D01*
X157485226Y-102028102D01*
X157407205Y-101839744D01*
X157380634Y-101799977D01*
X157417205Y-101745244D01*
X157495226Y-101556886D01*
X157535000Y-101356927D01*
X157535000Y-101153049D01*
X157495226Y-100953090D01*
X157417205Y-100764732D01*
X157303937Y-100595214D01*
X157159774Y-100451051D01*
X156990256Y-100337783D01*
X156801898Y-100259762D01*
X156601939Y-100219988D01*
X156398061Y-100219988D01*
X156198102Y-100259762D01*
X156009744Y-100337783D01*
X155840226Y-100451051D01*
X155796289Y-100494988D01*
X153899790Y-100494988D01*
X153177144Y-99772342D01*
X153310256Y-99717205D01*
X153479774Y-99603937D01*
X153623937Y-99459774D01*
X153737205Y-99290256D01*
X153815226Y-99101898D01*
X153855000Y-98901939D01*
X153855000Y-98698061D01*
X153815226Y-98498102D01*
X153737205Y-98309744D01*
X153623937Y-98140226D01*
X153580000Y-98096289D01*
X153580000Y-95908967D01*
X167245000Y-95908967D01*
X167245000Y-96231033D01*
X167307832Y-96546912D01*
X167431082Y-96844463D01*
X167610013Y-97112252D01*
X167837748Y-97339987D01*
X168105537Y-97518918D01*
X168403088Y-97642168D01*
X168718967Y-97705000D01*
X169041033Y-97705000D01*
X169356912Y-97642168D01*
X169654463Y-97518918D01*
X169922252Y-97339987D01*
X170149987Y-97112252D01*
X170328918Y-96844463D01*
X170452168Y-96546912D01*
X170515000Y-96231033D01*
X170515000Y-95908967D01*
X170452168Y-95593088D01*
X170328918Y-95295537D01*
X170149987Y-95027748D01*
X169922252Y-94800013D01*
X169654463Y-94621082D01*
X169356912Y-94497832D01*
X169041033Y-94435000D01*
X168718967Y-94435000D01*
X168403088Y-94497832D01*
X168105537Y-94621082D01*
X167837748Y-94800013D01*
X167610013Y-95027748D01*
X167431082Y-95295537D01*
X167307832Y-95593088D01*
X167245000Y-95908967D01*
X153580000Y-95908967D01*
X153580000Y-95362164D01*
X153708102Y-95415226D01*
X153908061Y-95455000D01*
X154111939Y-95455000D01*
X154311898Y-95415226D01*
X154500256Y-95337205D01*
X154669774Y-95223937D01*
X154813937Y-95079774D01*
X154927205Y-94910256D01*
X155005226Y-94721898D01*
X155045000Y-94521939D01*
X155045000Y-94318061D01*
X155005226Y-94118102D01*
X154927205Y-93929744D01*
X154813937Y-93760226D01*
X154669774Y-93616063D01*
X154563226Y-93544870D01*
X152478355Y-91460000D01*
X183465123Y-91460000D01*
X183500000Y-91463435D01*
X183534877Y-91460000D01*
X183639184Y-91449727D01*
X183773020Y-91409128D01*
X183896363Y-91343200D01*
X184004475Y-91254475D01*
X184093200Y-91146363D01*
X184159128Y-91023020D01*
X184199727Y-90889184D01*
X184213435Y-90750000D01*
X184210000Y-90715123D01*
X184210000Y-86897314D01*
X184238000Y-86900072D01*
X185714250Y-86897000D01*
X185873000Y-86738250D01*
X185873000Y-82127000D01*
X186127000Y-82127000D01*
X186127000Y-86738250D01*
X186285750Y-86897000D01*
X187762000Y-86900072D01*
X187886482Y-86887812D01*
X188006180Y-86851502D01*
X188116494Y-86792537D01*
X188213185Y-86713185D01*
X188292537Y-86616494D01*
X188351502Y-86506180D01*
X188387812Y-86386482D01*
X188400072Y-86262000D01*
X188397000Y-82285750D01*
X188238250Y-82127000D01*
X186127000Y-82127000D01*
X185873000Y-82127000D01*
X185853000Y-82127000D01*
X185853000Y-81873000D01*
X185873000Y-81873000D01*
X185873000Y-77261750D01*
X186127000Y-77261750D01*
X186127000Y-81873000D01*
X188238250Y-81873000D01*
X188397000Y-81714250D01*
X188400072Y-77738000D01*
X188387812Y-77613518D01*
X188351502Y-77493820D01*
X188292537Y-77383506D01*
X188213185Y-77286815D01*
X188116494Y-77207463D01*
X188006180Y-77148498D01*
X187886482Y-77112188D01*
X187762000Y-77099928D01*
X186285750Y-77103000D01*
X186127000Y-77261750D01*
X185873000Y-77261750D01*
X185714250Y-77103000D01*
X184238000Y-77099928D01*
X184210000Y-77102686D01*
X184210000Y-75804495D01*
X192015000Y-75804495D01*
X192015000Y-76195505D01*
X192091282Y-76579003D01*
X192240915Y-76940250D01*
X192458149Y-77265364D01*
X192734636Y-77541851D01*
X193059750Y-77759085D01*
X193420997Y-77908718D01*
X193804495Y-77985000D01*
X194195505Y-77985000D01*
X194579003Y-77908718D01*
X194940250Y-77759085D01*
X195265364Y-77541851D01*
X195541851Y-77265364D01*
X195759085Y-76940250D01*
X195908718Y-76579003D01*
X195985000Y-76195505D01*
X195985000Y-75804495D01*
X195908718Y-75420997D01*
X195759085Y-75059750D01*
X195541851Y-74734636D01*
X195265364Y-74458149D01*
X194940250Y-74240915D01*
X194579003Y-74091282D01*
X194195505Y-74015000D01*
X193804495Y-74015000D01*
X193420997Y-74091282D01*
X193059750Y-74240915D01*
X192734636Y-74458149D01*
X192458149Y-74734636D01*
X192240915Y-75059750D01*
X192091282Y-75420997D01*
X192015000Y-75804495D01*
X184210000Y-75804495D01*
X184210000Y-73284877D01*
X184213435Y-73250000D01*
X184199727Y-73110816D01*
X184159128Y-72976980D01*
X184093200Y-72853637D01*
X184004475Y-72745525D01*
X183961188Y-72710000D01*
X195965279Y-72710000D01*
X196249899Y-72737907D01*
X196490285Y-72810484D01*
X196711991Y-72928368D01*
X196906577Y-73087068D01*
X197066635Y-73280545D01*
X197186064Y-73501424D01*
X197260317Y-73741297D01*
X197290000Y-74023716D01*
X197290001Y-125965269D01*
X197262093Y-126249899D01*
X197189517Y-126490282D01*
X197071633Y-126711989D01*
X196912929Y-126906580D01*
X196719455Y-127066635D01*
X196498576Y-127186064D01*
X196258701Y-127260317D01*
X195976291Y-127290000D01*
X127868005Y-127290000D01*
X127908415Y-127195987D01*
X127955000Y-126977000D01*
X127955000Y-126677000D01*
X126947000Y-126677000D01*
X126947000Y-126697000D01*
X126693000Y-126697000D01*
X126693000Y-126677000D01*
X125685000Y-126677000D01*
X125685000Y-126977000D01*
X125731585Y-127195987D01*
X125771995Y-127290000D01*
X119228005Y-127290000D01*
X119268415Y-127195987D01*
X119315000Y-126977000D01*
X119315000Y-126677000D01*
X118307000Y-126677000D01*
X118307000Y-126697000D01*
X118053000Y-126697000D01*
X118053000Y-126677000D01*
X117045000Y-126677000D01*
X117045000Y-126977000D01*
X117091585Y-127195987D01*
X117131995Y-127290000D01*
X104034721Y-127290000D01*
X103750101Y-127262093D01*
X103509718Y-127189517D01*
X103288011Y-127071633D01*
X103093420Y-126912929D01*
X102933365Y-126719455D01*
X102871703Y-126605413D01*
X181754192Y-126605413D01*
X181849956Y-126869814D01*
X182139571Y-127010704D01*
X182451108Y-127092384D01*
X182772595Y-127111718D01*
X183091675Y-127067961D01*
X183396088Y-126962795D01*
X183570044Y-126869814D01*
X183665808Y-126605413D01*
X186834192Y-126605413D01*
X186929956Y-126869814D01*
X187219571Y-127010704D01*
X187531108Y-127092384D01*
X187852595Y-127111718D01*
X188171675Y-127067961D01*
X188476088Y-126962795D01*
X188650044Y-126869814D01*
X188745808Y-126605413D01*
X187790000Y-125649605D01*
X186834192Y-126605413D01*
X183665808Y-126605413D01*
X182710000Y-125649605D01*
X181754192Y-126605413D01*
X102871703Y-126605413D01*
X102813936Y-126498576D01*
X102739683Y-126258701D01*
X102725421Y-126123000D01*
X117045000Y-126123000D01*
X117045000Y-126423000D01*
X118053000Y-126423000D01*
X118053000Y-125282046D01*
X118307000Y-125282046D01*
X118307000Y-126423000D01*
X119315000Y-126423000D01*
X119315000Y-126123000D01*
X125685000Y-126123000D01*
X125685000Y-126423000D01*
X126693000Y-126423000D01*
X126693000Y-125282046D01*
X126947000Y-125282046D01*
X126947000Y-126423000D01*
X127955000Y-126423000D01*
X127955000Y-126123000D01*
X127908415Y-125904013D01*
X127820003Y-125698322D01*
X127693161Y-125513831D01*
X127532764Y-125357631D01*
X127344976Y-125235724D01*
X127121874Y-125155881D01*
X126947000Y-125282046D01*
X126693000Y-125282046D01*
X126518126Y-125155881D01*
X126295024Y-125235724D01*
X126107236Y-125357631D01*
X125946839Y-125513831D01*
X125819997Y-125698322D01*
X125731585Y-125904013D01*
X125685000Y-126123000D01*
X119315000Y-126123000D01*
X119268415Y-125904013D01*
X119180003Y-125698322D01*
X119053161Y-125513831D01*
X118892764Y-125357631D01*
X118704976Y-125235724D01*
X118481874Y-125155881D01*
X118307000Y-125282046D01*
X118053000Y-125282046D01*
X117878126Y-125155881D01*
X117655024Y-125235724D01*
X117467236Y-125357631D01*
X117306839Y-125513831D01*
X117179997Y-125698322D01*
X117091585Y-125904013D01*
X117045000Y-126123000D01*
X102725421Y-126123000D01*
X102710000Y-125976291D01*
X102710000Y-123804495D01*
X104015000Y-123804495D01*
X104015000Y-124195505D01*
X104091282Y-124579003D01*
X104240915Y-124940250D01*
X104458149Y-125265364D01*
X104734636Y-125541851D01*
X105059750Y-125759085D01*
X105420997Y-125908718D01*
X105804495Y-125985000D01*
X106195505Y-125985000D01*
X106579003Y-125908718D01*
X106940250Y-125759085D01*
X107265364Y-125541851D01*
X107541851Y-125265364D01*
X107759085Y-124940250D01*
X107908718Y-124579003D01*
X107985000Y-124195505D01*
X107985000Y-123804495D01*
X107908718Y-123420997D01*
X107763331Y-123070000D01*
X108641928Y-123070000D01*
X108641928Y-124870000D01*
X108654188Y-124994482D01*
X108690498Y-125114180D01*
X108749463Y-125224494D01*
X108828815Y-125321185D01*
X108925506Y-125400537D01*
X109035820Y-125459502D01*
X109155518Y-125495812D01*
X109280000Y-125508072D01*
X111080000Y-125508072D01*
X111204482Y-125495812D01*
X111324180Y-125459502D01*
X111434494Y-125400537D01*
X111531185Y-125321185D01*
X111610537Y-125224494D01*
X111669502Y-125114180D01*
X111675056Y-125095873D01*
X111741495Y-125162312D01*
X111992905Y-125330299D01*
X112272257Y-125446011D01*
X112568816Y-125505000D01*
X112871184Y-125505000D01*
X113167743Y-125446011D01*
X113447095Y-125330299D01*
X113698505Y-125162312D01*
X113912312Y-124948505D01*
X113990000Y-124832237D01*
X114067688Y-124948505D01*
X114281495Y-125162312D01*
X114532905Y-125330299D01*
X114812257Y-125446011D01*
X115108816Y-125505000D01*
X115411184Y-125505000D01*
X115707743Y-125446011D01*
X115987095Y-125330299D01*
X116238505Y-125162312D01*
X116452312Y-124948505D01*
X116620299Y-124697095D01*
X116736011Y-124417743D01*
X116795000Y-124121184D01*
X116795000Y-123818816D01*
X116736011Y-123522257D01*
X116620299Y-123242905D01*
X116452312Y-122991495D01*
X116238505Y-122777688D01*
X115987095Y-122609701D01*
X115715013Y-122497000D01*
X117045000Y-122497000D01*
X117045000Y-123047000D01*
X117091585Y-123265987D01*
X117179997Y-123471678D01*
X117306839Y-123656169D01*
X117467236Y-123812369D01*
X117655024Y-123934276D01*
X117878126Y-124014119D01*
X118053000Y-123887954D01*
X118053000Y-122497000D01*
X117045000Y-122497000D01*
X115715013Y-122497000D01*
X115707743Y-122493989D01*
X115411184Y-122435000D01*
X115108816Y-122435000D01*
X114812257Y-122493989D01*
X114532905Y-122609701D01*
X114281495Y-122777688D01*
X114067688Y-122991495D01*
X113990000Y-123107763D01*
X113912312Y-122991495D01*
X113698505Y-122777688D01*
X113447095Y-122609701D01*
X113167743Y-122493989D01*
X112871184Y-122435000D01*
X112568816Y-122435000D01*
X112272257Y-122493989D01*
X111992905Y-122609701D01*
X111741495Y-122777688D01*
X111675056Y-122844127D01*
X111669502Y-122825820D01*
X111610537Y-122715506D01*
X111531185Y-122618815D01*
X111434494Y-122539463D01*
X111324180Y-122480498D01*
X111204482Y-122444188D01*
X111080000Y-122431928D01*
X109280000Y-122431928D01*
X109155518Y-122444188D01*
X109035820Y-122480498D01*
X108925506Y-122539463D01*
X108828815Y-122618815D01*
X108749463Y-122715506D01*
X108690498Y-122825820D01*
X108654188Y-122945518D01*
X108641928Y-123070000D01*
X107763331Y-123070000D01*
X107759085Y-123059750D01*
X107541851Y-122734636D01*
X107265364Y-122458149D01*
X106940250Y-122240915D01*
X106579003Y-122091282D01*
X106195505Y-122015000D01*
X105804495Y-122015000D01*
X105420997Y-122091282D01*
X105059750Y-122240915D01*
X104734636Y-122458149D01*
X104458149Y-122734636D01*
X104240915Y-123059750D01*
X104091282Y-123420997D01*
X104015000Y-123804495D01*
X102710000Y-123804495D01*
X102710000Y-121693000D01*
X117045000Y-121693000D01*
X117045000Y-122243000D01*
X118053000Y-122243000D01*
X118053000Y-120852046D01*
X118307000Y-120852046D01*
X118307000Y-122243000D01*
X118327000Y-122243000D01*
X118327000Y-122497000D01*
X118307000Y-122497000D01*
X118307000Y-123887954D01*
X118481874Y-124014119D01*
X118704976Y-123934276D01*
X118892764Y-123812369D01*
X119037116Y-123671794D01*
X119155269Y-123750741D01*
X119329978Y-123823108D01*
X119515448Y-123860000D01*
X119704552Y-123860000D01*
X119890022Y-123823108D01*
X120064731Y-123750741D01*
X120221964Y-123645681D01*
X120355681Y-123511964D01*
X120460741Y-123354731D01*
X120533108Y-123180022D01*
X120570000Y-122994552D01*
X120570000Y-122805448D01*
X120533108Y-122619978D01*
X120460741Y-122445269D01*
X120355681Y-122288036D01*
X120221964Y-122154319D01*
X120064731Y-122049259D01*
X119890022Y-121976892D01*
X119704552Y-121940000D01*
X119515448Y-121940000D01*
X119329978Y-121976892D01*
X119315000Y-121983096D01*
X119315000Y-121693000D01*
X119268415Y-121474013D01*
X119180003Y-121268322D01*
X119053161Y-121083831D01*
X118892764Y-120927631D01*
X118704976Y-120805724D01*
X118481874Y-120725881D01*
X118307000Y-120852046D01*
X118053000Y-120852046D01*
X117878126Y-120725881D01*
X117655024Y-120805724D01*
X117467236Y-120927631D01*
X117306839Y-121083831D01*
X117179997Y-121268322D01*
X117091585Y-121474013D01*
X117045000Y-121693000D01*
X102710000Y-121693000D01*
X102710000Y-119128061D01*
X121465000Y-119128061D01*
X121465000Y-119331939D01*
X121504774Y-119531898D01*
X121582795Y-119720256D01*
X121665000Y-119843285D01*
X121665001Y-122711724D01*
X121582795Y-122834754D01*
X121504774Y-123023112D01*
X121465000Y-123223071D01*
X121465000Y-123426949D01*
X121504774Y-123626908D01*
X121582795Y-123815266D01*
X121696063Y-123984784D01*
X121840226Y-124128947D01*
X122009744Y-124242215D01*
X122198102Y-124320236D01*
X122398061Y-124360010D01*
X122601939Y-124360010D01*
X122801898Y-124320236D01*
X122990256Y-124242215D01*
X123159774Y-124128947D01*
X123238721Y-124050000D01*
X129961928Y-124050000D01*
X129961928Y-124950000D01*
X129978031Y-125113500D01*
X130025722Y-125270716D01*
X130103169Y-125415608D01*
X130207394Y-125542606D01*
X130334392Y-125646831D01*
X130479284Y-125724278D01*
X130636500Y-125771969D01*
X130800000Y-125788072D01*
X131200000Y-125788072D01*
X131363500Y-125771969D01*
X131520716Y-125724278D01*
X131665608Y-125646831D01*
X131683985Y-125631749D01*
X131701840Y-125645255D01*
X131887028Y-125734994D01*
X131963877Y-125744666D01*
X132123000Y-125616998D01*
X132123000Y-124627000D01*
X132377000Y-124627000D01*
X132377000Y-125616998D01*
X132536123Y-125744666D01*
X132612972Y-125734994D01*
X132798160Y-125645255D01*
X132962283Y-125521112D01*
X133099033Y-125367336D01*
X133203155Y-125189836D01*
X133270648Y-124995433D01*
X133298918Y-124791599D01*
X133133762Y-124627000D01*
X132377000Y-124627000D01*
X132123000Y-124627000D01*
X132103000Y-124627000D01*
X132103000Y-124373000D01*
X132123000Y-124373000D01*
X132123000Y-123383002D01*
X132377000Y-123383002D01*
X132377000Y-124373000D01*
X133133762Y-124373000D01*
X133298918Y-124208401D01*
X133276950Y-124050000D01*
X135211928Y-124050000D01*
X135211928Y-124950000D01*
X135228031Y-125113500D01*
X135275722Y-125270716D01*
X135353169Y-125415608D01*
X135457394Y-125542606D01*
X135584392Y-125646831D01*
X135729284Y-125724278D01*
X135886500Y-125771969D01*
X136050000Y-125788072D01*
X136450000Y-125788072D01*
X136613500Y-125771969D01*
X136770716Y-125724278D01*
X136915608Y-125646831D01*
X136933985Y-125631749D01*
X136951840Y-125645255D01*
X137137028Y-125734994D01*
X137213877Y-125744666D01*
X137373000Y-125616998D01*
X137373000Y-124627000D01*
X137627000Y-124627000D01*
X137627000Y-125616998D01*
X137786123Y-125744666D01*
X137862972Y-125734994D01*
X138048160Y-125645255D01*
X138212283Y-125521112D01*
X138349033Y-125367336D01*
X138453155Y-125189836D01*
X138520648Y-124995433D01*
X138548918Y-124791599D01*
X138383762Y-124627000D01*
X137627000Y-124627000D01*
X137373000Y-124627000D01*
X137353000Y-124627000D01*
X137353000Y-124373000D01*
X137373000Y-124373000D01*
X137373000Y-123383002D01*
X137627000Y-123383002D01*
X137627000Y-124373000D01*
X138383762Y-124373000D01*
X138548918Y-124208401D01*
X138526950Y-124050000D01*
X140461928Y-124050000D01*
X140461928Y-124950000D01*
X140478031Y-125113500D01*
X140525722Y-125270716D01*
X140603169Y-125415608D01*
X140707394Y-125542606D01*
X140834392Y-125646831D01*
X140979284Y-125724278D01*
X141136500Y-125771969D01*
X141300000Y-125788072D01*
X141700000Y-125788072D01*
X141863500Y-125771969D01*
X142020716Y-125724278D01*
X142165608Y-125646831D01*
X142183985Y-125631749D01*
X142201840Y-125645255D01*
X142387028Y-125734994D01*
X142463877Y-125744666D01*
X142623000Y-125616998D01*
X142623000Y-124627000D01*
X142877000Y-124627000D01*
X142877000Y-125616998D01*
X143036123Y-125744666D01*
X143112972Y-125734994D01*
X143298160Y-125645255D01*
X143462283Y-125521112D01*
X143599033Y-125367336D01*
X143703155Y-125189836D01*
X143770648Y-124995433D01*
X143798918Y-124791599D01*
X143633762Y-124627000D01*
X142877000Y-124627000D01*
X142623000Y-124627000D01*
X142603000Y-124627000D01*
X142603000Y-124373000D01*
X142623000Y-124373000D01*
X142623000Y-123383002D01*
X142877000Y-123383002D01*
X142877000Y-124373000D01*
X143633762Y-124373000D01*
X143798918Y-124208401D01*
X143776950Y-124050000D01*
X145711928Y-124050000D01*
X145711928Y-124950000D01*
X145728031Y-125113500D01*
X145775722Y-125270716D01*
X145853169Y-125415608D01*
X145957394Y-125542606D01*
X146084392Y-125646831D01*
X146229284Y-125724278D01*
X146386500Y-125771969D01*
X146550000Y-125788072D01*
X146950000Y-125788072D01*
X147113500Y-125771969D01*
X147270716Y-125724278D01*
X147415608Y-125646831D01*
X147433985Y-125631749D01*
X147451840Y-125645255D01*
X147637028Y-125734994D01*
X147713877Y-125744666D01*
X147873000Y-125616998D01*
X147873000Y-124627000D01*
X148127000Y-124627000D01*
X148127000Y-125616998D01*
X148286123Y-125744666D01*
X148362972Y-125734994D01*
X148548160Y-125645255D01*
X148712283Y-125521112D01*
X148849033Y-125367336D01*
X148953155Y-125189836D01*
X149020648Y-124995433D01*
X149048918Y-124791599D01*
X148883762Y-124627000D01*
X148127000Y-124627000D01*
X147873000Y-124627000D01*
X147853000Y-124627000D01*
X147853000Y-124373000D01*
X147873000Y-124373000D01*
X147873000Y-123383002D01*
X148127000Y-123383002D01*
X148127000Y-124373000D01*
X148883762Y-124373000D01*
X149048918Y-124208401D01*
X149026950Y-124050000D01*
X150961928Y-124050000D01*
X150961928Y-124950000D01*
X150978031Y-125113500D01*
X151025722Y-125270716D01*
X151103169Y-125415608D01*
X151207394Y-125542606D01*
X151334392Y-125646831D01*
X151479284Y-125724278D01*
X151636500Y-125771969D01*
X151800000Y-125788072D01*
X152200000Y-125788072D01*
X152363500Y-125771969D01*
X152520716Y-125724278D01*
X152665608Y-125646831D01*
X152683985Y-125631749D01*
X152701840Y-125645255D01*
X152887028Y-125734994D01*
X152963877Y-125744666D01*
X153123000Y-125616998D01*
X153123000Y-124627000D01*
X153377000Y-124627000D01*
X153377000Y-125616998D01*
X153536123Y-125744666D01*
X153612972Y-125734994D01*
X153798160Y-125645255D01*
X153962283Y-125521112D01*
X154099033Y-125367336D01*
X154203155Y-125189836D01*
X154270648Y-124995433D01*
X154298918Y-124791599D01*
X154133762Y-124627000D01*
X153377000Y-124627000D01*
X153123000Y-124627000D01*
X153103000Y-124627000D01*
X153103000Y-124373000D01*
X153123000Y-124373000D01*
X153123000Y-123383002D01*
X153377000Y-123383002D01*
X153377000Y-124373000D01*
X154133762Y-124373000D01*
X154298918Y-124208401D01*
X154276950Y-124050000D01*
X156211928Y-124050000D01*
X156211928Y-124950000D01*
X156228031Y-125113500D01*
X156275722Y-125270716D01*
X156353169Y-125415608D01*
X156457394Y-125542606D01*
X156584392Y-125646831D01*
X156729284Y-125724278D01*
X156886500Y-125771969D01*
X157050000Y-125788072D01*
X157450000Y-125788072D01*
X157613500Y-125771969D01*
X157770716Y-125724278D01*
X157915608Y-125646831D01*
X157933985Y-125631749D01*
X157951840Y-125645255D01*
X158137028Y-125734994D01*
X158213877Y-125744666D01*
X158373000Y-125616998D01*
X158373000Y-124627000D01*
X158627000Y-124627000D01*
X158627000Y-125616998D01*
X158786123Y-125744666D01*
X158862972Y-125734994D01*
X159048160Y-125645255D01*
X159212283Y-125521112D01*
X159349033Y-125367336D01*
X159453155Y-125189836D01*
X159520648Y-124995433D01*
X159548918Y-124791599D01*
X159383762Y-124627000D01*
X158627000Y-124627000D01*
X158373000Y-124627000D01*
X158353000Y-124627000D01*
X158353000Y-124373000D01*
X158373000Y-124373000D01*
X158373000Y-123383002D01*
X158627000Y-123383002D01*
X158627000Y-124373000D01*
X159383762Y-124373000D01*
X159548918Y-124208401D01*
X159526950Y-124050000D01*
X161461928Y-124050000D01*
X161461928Y-124950000D01*
X161478031Y-125113500D01*
X161525722Y-125270716D01*
X161603169Y-125415608D01*
X161707394Y-125542606D01*
X161834392Y-125646831D01*
X161979284Y-125724278D01*
X162136500Y-125771969D01*
X162300000Y-125788072D01*
X162700000Y-125788072D01*
X162863500Y-125771969D01*
X163020716Y-125724278D01*
X163165608Y-125646831D01*
X163183985Y-125631749D01*
X163201840Y-125645255D01*
X163387028Y-125734994D01*
X163463877Y-125744666D01*
X163623000Y-125616998D01*
X163623000Y-124627000D01*
X163877000Y-124627000D01*
X163877000Y-125616998D01*
X164036123Y-125744666D01*
X164112972Y-125734994D01*
X164298160Y-125645255D01*
X164462283Y-125521112D01*
X164599033Y-125367336D01*
X164703155Y-125189836D01*
X164770648Y-124995433D01*
X164798918Y-124791599D01*
X164633762Y-124627000D01*
X163877000Y-124627000D01*
X163623000Y-124627000D01*
X163603000Y-124627000D01*
X163603000Y-124373000D01*
X163623000Y-124373000D01*
X163623000Y-123383002D01*
X163877000Y-123383002D01*
X163877000Y-124373000D01*
X164633762Y-124373000D01*
X164798918Y-124208401D01*
X164776950Y-124050000D01*
X166711928Y-124050000D01*
X166711928Y-124950000D01*
X166728031Y-125113500D01*
X166775722Y-125270716D01*
X166853169Y-125415608D01*
X166957394Y-125542606D01*
X167084392Y-125646831D01*
X167229284Y-125724278D01*
X167386500Y-125771969D01*
X167550000Y-125788072D01*
X167950000Y-125788072D01*
X168113500Y-125771969D01*
X168270716Y-125724278D01*
X168415608Y-125646831D01*
X168433985Y-125631749D01*
X168451840Y-125645255D01*
X168637028Y-125734994D01*
X168713877Y-125744666D01*
X168873000Y-125616998D01*
X168873000Y-124627000D01*
X169127000Y-124627000D01*
X169127000Y-125616998D01*
X169286123Y-125744666D01*
X169362972Y-125734994D01*
X169548160Y-125645255D01*
X169697101Y-125532595D01*
X181068282Y-125532595D01*
X181112039Y-125851675D01*
X181217205Y-126156088D01*
X181310186Y-126330044D01*
X181574587Y-126425808D01*
X182530395Y-125470000D01*
X182889605Y-125470000D01*
X183845413Y-126425808D01*
X184109814Y-126330044D01*
X184250704Y-126040429D01*
X184332384Y-125728892D01*
X184344189Y-125532595D01*
X186148282Y-125532595D01*
X186192039Y-125851675D01*
X186297205Y-126156088D01*
X186390186Y-126330044D01*
X186654587Y-126425808D01*
X187610395Y-125470000D01*
X187969605Y-125470000D01*
X188925413Y-126425808D01*
X189189814Y-126330044D01*
X189330704Y-126040429D01*
X189412384Y-125728892D01*
X189431718Y-125407405D01*
X189387961Y-125088325D01*
X189282795Y-124783912D01*
X189189814Y-124609956D01*
X188925413Y-124514192D01*
X187969605Y-125470000D01*
X187610395Y-125470000D01*
X186654587Y-124514192D01*
X186390186Y-124609956D01*
X186249296Y-124899571D01*
X186167616Y-125211108D01*
X186148282Y-125532595D01*
X184344189Y-125532595D01*
X184351718Y-125407405D01*
X184307961Y-125088325D01*
X184202795Y-124783912D01*
X184109814Y-124609956D01*
X183845413Y-124514192D01*
X182889605Y-125470000D01*
X182530395Y-125470000D01*
X181574587Y-124514192D01*
X181310186Y-124609956D01*
X181169296Y-124899571D01*
X181087616Y-125211108D01*
X181068282Y-125532595D01*
X169697101Y-125532595D01*
X169712283Y-125521112D01*
X169849033Y-125367336D01*
X169953155Y-125189836D01*
X170020648Y-124995433D01*
X170048918Y-124791599D01*
X169883762Y-124627000D01*
X169127000Y-124627000D01*
X168873000Y-124627000D01*
X168853000Y-124627000D01*
X168853000Y-124373000D01*
X168873000Y-124373000D01*
X168873000Y-123383002D01*
X169127000Y-123383002D01*
X169127000Y-124373000D01*
X169883762Y-124373000D01*
X170048918Y-124208401D01*
X170020648Y-124004567D01*
X169953155Y-123810164D01*
X169940633Y-123788816D01*
X172155000Y-123788816D01*
X172155000Y-124091184D01*
X172213989Y-124387743D01*
X172329701Y-124667095D01*
X172497688Y-124918505D01*
X172711495Y-125132312D01*
X172962905Y-125300299D01*
X173242257Y-125416011D01*
X173538816Y-125475000D01*
X173841184Y-125475000D01*
X174137743Y-125416011D01*
X174417095Y-125300299D01*
X174668505Y-125132312D01*
X174882312Y-124918505D01*
X174984951Y-124764895D01*
X175165920Y-124824475D01*
X176050395Y-123940000D01*
X175165920Y-123055525D01*
X174984951Y-123115105D01*
X174882312Y-122961495D01*
X174796737Y-122875920D01*
X175345525Y-122875920D01*
X176230000Y-123760395D01*
X176244143Y-123746253D01*
X176423748Y-123925858D01*
X176409605Y-123940000D01*
X176423748Y-123954143D01*
X176244143Y-124133748D01*
X176230000Y-124119605D01*
X175345525Y-125004080D01*
X175429208Y-125258261D01*
X175701775Y-125389158D01*
X175994642Y-125464365D01*
X176296553Y-125480991D01*
X176595907Y-125438397D01*
X176881199Y-125338222D01*
X177030792Y-125258261D01*
X177114474Y-125004082D01*
X177230422Y-125120030D01*
X177277187Y-125073265D01*
X177280498Y-125084180D01*
X177339463Y-125194494D01*
X177418815Y-125291185D01*
X177515506Y-125370537D01*
X177625820Y-125429502D01*
X177745518Y-125465812D01*
X177870000Y-125478072D01*
X179670000Y-125478072D01*
X179794482Y-125465812D01*
X179914180Y-125429502D01*
X180024494Y-125370537D01*
X180121185Y-125291185D01*
X180200537Y-125194494D01*
X180259502Y-125084180D01*
X180295812Y-124964482D01*
X180308072Y-124840000D01*
X180308072Y-124334587D01*
X181754192Y-124334587D01*
X182710000Y-125290395D01*
X183665808Y-124334587D01*
X186834192Y-124334587D01*
X187790000Y-125290395D01*
X188745808Y-124334587D01*
X188650044Y-124070186D01*
X188360429Y-123929296D01*
X188048892Y-123847616D01*
X187727405Y-123828282D01*
X187408325Y-123872039D01*
X187103912Y-123977205D01*
X186929956Y-124070186D01*
X186834192Y-124334587D01*
X183665808Y-124334587D01*
X183570044Y-124070186D01*
X183280429Y-123929296D01*
X182968892Y-123847616D01*
X182647405Y-123828282D01*
X182328325Y-123872039D01*
X182023912Y-123977205D01*
X181849956Y-124070186D01*
X181754192Y-124334587D01*
X180308072Y-124334587D01*
X180308072Y-123040000D01*
X180295812Y-122915518D01*
X180259502Y-122795820D01*
X180257679Y-122792408D01*
X183853000Y-122792408D01*
X183853000Y-123067592D01*
X183906686Y-123337490D01*
X184011995Y-123591727D01*
X184164880Y-123820535D01*
X184359465Y-124015120D01*
X184588273Y-124168005D01*
X184842510Y-124273314D01*
X185112408Y-124327000D01*
X185387592Y-124327000D01*
X185657490Y-124273314D01*
X185911727Y-124168005D01*
X186140535Y-124015120D01*
X186335120Y-123820535D01*
X186345837Y-123804495D01*
X191515000Y-123804495D01*
X191515000Y-124195505D01*
X191591282Y-124579003D01*
X191740915Y-124940250D01*
X191958149Y-125265364D01*
X192234636Y-125541851D01*
X192559750Y-125759085D01*
X192920997Y-125908718D01*
X193304495Y-125985000D01*
X193695505Y-125985000D01*
X194079003Y-125908718D01*
X194440250Y-125759085D01*
X194765364Y-125541851D01*
X195041851Y-125265364D01*
X195259085Y-124940250D01*
X195408718Y-124579003D01*
X195485000Y-124195505D01*
X195485000Y-123804495D01*
X195408718Y-123420997D01*
X195259085Y-123059750D01*
X195041851Y-122734636D01*
X194765364Y-122458149D01*
X194440250Y-122240915D01*
X194079003Y-122091282D01*
X193695505Y-122015000D01*
X193304495Y-122015000D01*
X192920997Y-122091282D01*
X192559750Y-122240915D01*
X192234636Y-122458149D01*
X191958149Y-122734636D01*
X191740915Y-123059750D01*
X191591282Y-123420997D01*
X191515000Y-123804495D01*
X186345837Y-123804495D01*
X186488005Y-123591727D01*
X186593314Y-123337490D01*
X186647000Y-123067592D01*
X186647000Y-122792408D01*
X186593314Y-122522510D01*
X186488005Y-122268273D01*
X186335120Y-122039465D01*
X186140535Y-121844880D01*
X185911727Y-121691995D01*
X185657490Y-121586686D01*
X185387592Y-121533000D01*
X185112408Y-121533000D01*
X184842510Y-121586686D01*
X184588273Y-121691995D01*
X184359465Y-121844880D01*
X184164880Y-122039465D01*
X184011995Y-122268273D01*
X183906686Y-122522510D01*
X183853000Y-122792408D01*
X180257679Y-122792408D01*
X180200537Y-122685506D01*
X180121185Y-122588815D01*
X180024494Y-122509463D01*
X179914180Y-122450498D01*
X179794482Y-122414188D01*
X179670000Y-122401928D01*
X177870000Y-122401928D01*
X177745518Y-122414188D01*
X177625820Y-122450498D01*
X177515506Y-122509463D01*
X177418815Y-122588815D01*
X177339463Y-122685506D01*
X177280498Y-122795820D01*
X177277187Y-122806735D01*
X177230422Y-122759970D01*
X177114474Y-122875918D01*
X177030792Y-122621739D01*
X176758225Y-122490842D01*
X176465358Y-122415635D01*
X176163447Y-122399009D01*
X175864093Y-122441603D01*
X175578801Y-122541778D01*
X175429208Y-122621739D01*
X175345525Y-122875920D01*
X174796737Y-122875920D01*
X174668505Y-122747688D01*
X174417095Y-122579701D01*
X174137743Y-122463989D01*
X173841184Y-122405000D01*
X173538816Y-122405000D01*
X173242257Y-122463989D01*
X172962905Y-122579701D01*
X172711495Y-122747688D01*
X172497688Y-122961495D01*
X172329701Y-123212905D01*
X172213989Y-123492257D01*
X172155000Y-123788816D01*
X169940633Y-123788816D01*
X169849033Y-123632664D01*
X169712283Y-123478888D01*
X169548160Y-123354745D01*
X169362972Y-123265006D01*
X169286123Y-123255334D01*
X169127000Y-123383002D01*
X168873000Y-123383002D01*
X168713877Y-123255334D01*
X168637028Y-123265006D01*
X168451840Y-123354745D01*
X168433985Y-123368251D01*
X168415608Y-123353169D01*
X168270716Y-123275722D01*
X168113500Y-123228031D01*
X167950000Y-123211928D01*
X167550000Y-123211928D01*
X167386500Y-123228031D01*
X167229284Y-123275722D01*
X167084392Y-123353169D01*
X166957394Y-123457394D01*
X166853169Y-123584392D01*
X166775722Y-123729284D01*
X166728031Y-123886500D01*
X166711928Y-124050000D01*
X164776950Y-124050000D01*
X164770648Y-124004567D01*
X164703155Y-123810164D01*
X164599033Y-123632664D01*
X164462283Y-123478888D01*
X164298160Y-123354745D01*
X164112972Y-123265006D01*
X164036123Y-123255334D01*
X163877000Y-123383002D01*
X163623000Y-123383002D01*
X163463877Y-123255334D01*
X163387028Y-123265006D01*
X163201840Y-123354745D01*
X163183985Y-123368251D01*
X163165608Y-123353169D01*
X163020716Y-123275722D01*
X162863500Y-123228031D01*
X162700000Y-123211928D01*
X162300000Y-123211928D01*
X162136500Y-123228031D01*
X161979284Y-123275722D01*
X161834392Y-123353169D01*
X161707394Y-123457394D01*
X161603169Y-123584392D01*
X161525722Y-123729284D01*
X161478031Y-123886500D01*
X161461928Y-124050000D01*
X159526950Y-124050000D01*
X159520648Y-124004567D01*
X159453155Y-123810164D01*
X159349033Y-123632664D01*
X159212283Y-123478888D01*
X159048160Y-123354745D01*
X158862972Y-123265006D01*
X158786123Y-123255334D01*
X158627000Y-123383002D01*
X158373000Y-123383002D01*
X158213877Y-123255334D01*
X158137028Y-123265006D01*
X157951840Y-123354745D01*
X157933985Y-123368251D01*
X157915608Y-123353169D01*
X157770716Y-123275722D01*
X157613500Y-123228031D01*
X157450000Y-123211928D01*
X157050000Y-123211928D01*
X156886500Y-123228031D01*
X156729284Y-123275722D01*
X156584392Y-123353169D01*
X156457394Y-123457394D01*
X156353169Y-123584392D01*
X156275722Y-123729284D01*
X156228031Y-123886500D01*
X156211928Y-124050000D01*
X154276950Y-124050000D01*
X154270648Y-124004567D01*
X154203155Y-123810164D01*
X154099033Y-123632664D01*
X153962283Y-123478888D01*
X153798160Y-123354745D01*
X153612972Y-123265006D01*
X153536123Y-123255334D01*
X153377000Y-123383002D01*
X153123000Y-123383002D01*
X152963877Y-123255334D01*
X152887028Y-123265006D01*
X152701840Y-123354745D01*
X152683985Y-123368251D01*
X152665608Y-123353169D01*
X152520716Y-123275722D01*
X152363500Y-123228031D01*
X152200000Y-123211928D01*
X151800000Y-123211928D01*
X151636500Y-123228031D01*
X151479284Y-123275722D01*
X151334392Y-123353169D01*
X151207394Y-123457394D01*
X151103169Y-123584392D01*
X151025722Y-123729284D01*
X150978031Y-123886500D01*
X150961928Y-124050000D01*
X149026950Y-124050000D01*
X149020648Y-124004567D01*
X148953155Y-123810164D01*
X148849033Y-123632664D01*
X148712283Y-123478888D01*
X148548160Y-123354745D01*
X148362972Y-123265006D01*
X148286123Y-123255334D01*
X148127000Y-123383002D01*
X147873000Y-123383002D01*
X147713877Y-123255334D01*
X147637028Y-123265006D01*
X147451840Y-123354745D01*
X147433985Y-123368251D01*
X147415608Y-123353169D01*
X147270716Y-123275722D01*
X147113500Y-123228031D01*
X146950000Y-123211928D01*
X146550000Y-123211928D01*
X146386500Y-123228031D01*
X146229284Y-123275722D01*
X146084392Y-123353169D01*
X145957394Y-123457394D01*
X145853169Y-123584392D01*
X145775722Y-123729284D01*
X145728031Y-123886500D01*
X145711928Y-124050000D01*
X143776950Y-124050000D01*
X143770648Y-124004567D01*
X143703155Y-123810164D01*
X143599033Y-123632664D01*
X143462283Y-123478888D01*
X143298160Y-123354745D01*
X143112972Y-123265006D01*
X143036123Y-123255334D01*
X142877000Y-123383002D01*
X142623000Y-123383002D01*
X142463877Y-123255334D01*
X142387028Y-123265006D01*
X142201840Y-123354745D01*
X142183985Y-123368251D01*
X142165608Y-123353169D01*
X142020716Y-123275722D01*
X141863500Y-123228031D01*
X141700000Y-123211928D01*
X141300000Y-123211928D01*
X141136500Y-123228031D01*
X140979284Y-123275722D01*
X140834392Y-123353169D01*
X140707394Y-123457394D01*
X140603169Y-123584392D01*
X140525722Y-123729284D01*
X140478031Y-123886500D01*
X140461928Y-124050000D01*
X138526950Y-124050000D01*
X138520648Y-124004567D01*
X138453155Y-123810164D01*
X138349033Y-123632664D01*
X138212283Y-123478888D01*
X138048160Y-123354745D01*
X137862972Y-123265006D01*
X137786123Y-123255334D01*
X137627000Y-123383002D01*
X137373000Y-123383002D01*
X137213877Y-123255334D01*
X137137028Y-123265006D01*
X136951840Y-123354745D01*
X136933985Y-123368251D01*
X136915608Y-123353169D01*
X136770716Y-123275722D01*
X136613500Y-123228031D01*
X136450000Y-123211928D01*
X136050000Y-123211928D01*
X135886500Y-123228031D01*
X135729284Y-123275722D01*
X135584392Y-123353169D01*
X135457394Y-123457394D01*
X135353169Y-123584392D01*
X135275722Y-123729284D01*
X135228031Y-123886500D01*
X135211928Y-124050000D01*
X133276950Y-124050000D01*
X133270648Y-124004567D01*
X133203155Y-123810164D01*
X133099033Y-123632664D01*
X132962283Y-123478888D01*
X132798160Y-123354745D01*
X132612972Y-123265006D01*
X132536123Y-123255334D01*
X132377000Y-123383002D01*
X132123000Y-123383002D01*
X131963877Y-123255334D01*
X131887028Y-123265006D01*
X131701840Y-123354745D01*
X131683985Y-123368251D01*
X131665608Y-123353169D01*
X131520716Y-123275722D01*
X131363500Y-123228031D01*
X131200000Y-123211928D01*
X130800000Y-123211928D01*
X130636500Y-123228031D01*
X130479284Y-123275722D01*
X130334392Y-123353169D01*
X130207394Y-123457394D01*
X130103169Y-123584392D01*
X130025722Y-123729284D01*
X129978031Y-123886500D01*
X129961928Y-124050000D01*
X123238721Y-124050000D01*
X123303937Y-123984784D01*
X123417205Y-123815266D01*
X123495226Y-123626908D01*
X123535000Y-123426949D01*
X123535000Y-123223071D01*
X123495226Y-123023112D01*
X123417205Y-122834754D01*
X123397624Y-122805448D01*
X124430000Y-122805448D01*
X124430000Y-122994552D01*
X124466892Y-123180022D01*
X124539259Y-123354731D01*
X124644319Y-123511964D01*
X124778036Y-123645681D01*
X124935269Y-123750741D01*
X125109978Y-123823108D01*
X125295448Y-123860000D01*
X125484552Y-123860000D01*
X125670022Y-123823108D01*
X125844731Y-123750741D01*
X125962884Y-123671794D01*
X126107236Y-123812369D01*
X126295024Y-123934276D01*
X126518126Y-124014119D01*
X126693000Y-123887954D01*
X126693000Y-122497000D01*
X126947000Y-122497000D01*
X126947000Y-123887954D01*
X127121874Y-124014119D01*
X127344976Y-123934276D01*
X127532764Y-123812369D01*
X127693161Y-123656169D01*
X127820003Y-123471678D01*
X127908415Y-123265987D01*
X127955000Y-123047000D01*
X127955000Y-122497000D01*
X126947000Y-122497000D01*
X126693000Y-122497000D01*
X126673000Y-122497000D01*
X126673000Y-122243000D01*
X126693000Y-122243000D01*
X126693000Y-120852046D01*
X126947000Y-120852046D01*
X126947000Y-122243000D01*
X127955000Y-122243000D01*
X127955000Y-121693000D01*
X127919350Y-121525413D01*
X181754192Y-121525413D01*
X181849956Y-121789814D01*
X182139571Y-121930704D01*
X182451108Y-122012384D01*
X182772595Y-122031718D01*
X183091675Y-121987961D01*
X183396088Y-121882795D01*
X183570044Y-121789814D01*
X183665808Y-121525413D01*
X186834192Y-121525413D01*
X186929956Y-121789814D01*
X187219571Y-121930704D01*
X187531108Y-122012384D01*
X187852595Y-122031718D01*
X188171675Y-121987961D01*
X188476088Y-121882795D01*
X188650044Y-121789814D01*
X188745808Y-121525413D01*
X187790000Y-120569605D01*
X186834192Y-121525413D01*
X183665808Y-121525413D01*
X182710000Y-120569605D01*
X181754192Y-121525413D01*
X127919350Y-121525413D01*
X127908415Y-121474013D01*
X127820003Y-121268322D01*
X127693161Y-121083831D01*
X127532764Y-120927631D01*
X127344976Y-120805724D01*
X127121874Y-120725881D01*
X126947000Y-120852046D01*
X126693000Y-120852046D01*
X126518126Y-120725881D01*
X126295024Y-120805724D01*
X126107236Y-120927631D01*
X125946839Y-121083831D01*
X125819997Y-121268322D01*
X125731585Y-121474013D01*
X125685000Y-121693000D01*
X125685000Y-121983096D01*
X125670022Y-121976892D01*
X125484552Y-121940000D01*
X125295448Y-121940000D01*
X125109978Y-121976892D01*
X124935269Y-122049259D01*
X124778036Y-122154319D01*
X124644319Y-122288036D01*
X124539259Y-122445269D01*
X124466892Y-122619978D01*
X124430000Y-122805448D01*
X123397624Y-122805448D01*
X123335000Y-122711725D01*
X123335000Y-120452595D01*
X181068282Y-120452595D01*
X181112039Y-120771675D01*
X181217205Y-121076088D01*
X181310186Y-121250044D01*
X181574587Y-121345808D01*
X182530395Y-120390000D01*
X182889605Y-120390000D01*
X183845413Y-121345808D01*
X184109814Y-121250044D01*
X184250704Y-120960429D01*
X184332384Y-120648892D01*
X184344189Y-120452595D01*
X186148282Y-120452595D01*
X186192039Y-120771675D01*
X186297205Y-121076088D01*
X186390186Y-121250044D01*
X186654587Y-121345808D01*
X187610395Y-120390000D01*
X187969605Y-120390000D01*
X188925413Y-121345808D01*
X189189814Y-121250044D01*
X189330704Y-120960429D01*
X189412384Y-120648892D01*
X189431718Y-120327405D01*
X189387961Y-120008325D01*
X189282795Y-119703912D01*
X189189814Y-119529956D01*
X188925413Y-119434192D01*
X187969605Y-120390000D01*
X187610395Y-120390000D01*
X186654587Y-119434192D01*
X186390186Y-119529956D01*
X186249296Y-119819571D01*
X186167616Y-120131108D01*
X186148282Y-120452595D01*
X184344189Y-120452595D01*
X184351718Y-120327405D01*
X184307961Y-120008325D01*
X184202795Y-119703912D01*
X184109814Y-119529956D01*
X183845413Y-119434192D01*
X182889605Y-120390000D01*
X182530395Y-120390000D01*
X181574587Y-119434192D01*
X181310186Y-119529956D01*
X181169296Y-119819571D01*
X181087616Y-120131108D01*
X181068282Y-120452595D01*
X123335000Y-120452595D01*
X123335000Y-119843285D01*
X123417205Y-119720256D01*
X123495226Y-119531898D01*
X123535000Y-119331939D01*
X123535000Y-119254587D01*
X181754192Y-119254587D01*
X182710000Y-120210395D01*
X183665808Y-119254587D01*
X186834192Y-119254587D01*
X187790000Y-120210395D01*
X188745808Y-119254587D01*
X188650044Y-118990186D01*
X188360429Y-118849296D01*
X188048892Y-118767616D01*
X187727405Y-118748282D01*
X187408325Y-118792039D01*
X187103912Y-118897205D01*
X186929956Y-118990186D01*
X186834192Y-119254587D01*
X183665808Y-119254587D01*
X183570044Y-118990186D01*
X183280429Y-118849296D01*
X182968892Y-118767616D01*
X182647405Y-118748282D01*
X182328325Y-118792039D01*
X182023912Y-118897205D01*
X181849956Y-118990186D01*
X181754192Y-119254587D01*
X123535000Y-119254587D01*
X123535000Y-119128061D01*
X123495226Y-118928102D01*
X123417205Y-118739744D01*
X123303937Y-118570226D01*
X123159774Y-118426063D01*
X122990256Y-118312795D01*
X122801898Y-118234774D01*
X122601939Y-118195000D01*
X122398061Y-118195000D01*
X122198102Y-118234774D01*
X122009744Y-118312795D01*
X121840226Y-118426063D01*
X121696063Y-118570226D01*
X121582795Y-118739744D01*
X121504774Y-118928102D01*
X121465000Y-119128061D01*
X102710000Y-119128061D01*
X102710000Y-107148061D01*
X115935000Y-107148061D01*
X115935000Y-107351939D01*
X115974774Y-107551898D01*
X116052795Y-107740256D01*
X116166063Y-107909774D01*
X116310226Y-108053937D01*
X116479744Y-108167205D01*
X116668102Y-108245226D01*
X116868061Y-108285000D01*
X117071939Y-108285000D01*
X117271898Y-108245226D01*
X117460256Y-108167205D01*
X117629774Y-108053937D01*
X117673711Y-108010000D01*
X119106289Y-108010000D01*
X119150226Y-108053937D01*
X119319744Y-108167205D01*
X119508102Y-108245226D01*
X119708061Y-108285000D01*
X119911939Y-108285000D01*
X120111898Y-108245226D01*
X120300256Y-108167205D01*
X120469774Y-108053937D01*
X120613937Y-107909774D01*
X120727205Y-107740256D01*
X120805226Y-107551898D01*
X120845000Y-107351939D01*
X120845000Y-107148061D01*
X120805226Y-106948102D01*
X120727205Y-106759744D01*
X120613937Y-106590226D01*
X120469774Y-106446063D01*
X120300256Y-106332795D01*
X120111898Y-106254774D01*
X119911939Y-106215000D01*
X119708061Y-106215000D01*
X119508102Y-106254774D01*
X119319744Y-106332795D01*
X119150226Y-106446063D01*
X119106289Y-106490000D01*
X117673711Y-106490000D01*
X117629774Y-106446063D01*
X117460256Y-106332795D01*
X117271898Y-106254774D01*
X117071939Y-106215000D01*
X116868061Y-106215000D01*
X116668102Y-106254774D01*
X116479744Y-106332795D01*
X116310226Y-106446063D01*
X116166063Y-106590226D01*
X116052795Y-106759744D01*
X115974774Y-106948102D01*
X115935000Y-107148061D01*
X102710000Y-107148061D01*
X102710000Y-100440000D01*
X128871928Y-100440000D01*
X128871928Y-102140000D01*
X128884188Y-102264482D01*
X128920498Y-102384180D01*
X128979463Y-102494494D01*
X129058815Y-102591185D01*
X129155506Y-102670537D01*
X129265820Y-102729502D01*
X129385518Y-102765812D01*
X129510000Y-102778072D01*
X131210000Y-102778072D01*
X131334482Y-102765812D01*
X131454180Y-102729502D01*
X131564494Y-102670537D01*
X131661185Y-102591185D01*
X131740537Y-102494494D01*
X131799502Y-102384180D01*
X131823966Y-102303534D01*
X131899731Y-102387588D01*
X132133080Y-102561641D01*
X132395901Y-102686825D01*
X132543110Y-102731476D01*
X132773000Y-102610155D01*
X132773000Y-101417000D01*
X132753000Y-101417000D01*
X132753000Y-101163000D01*
X132773000Y-101163000D01*
X132773000Y-98877000D01*
X132753000Y-98877000D01*
X132753000Y-98623000D01*
X132773000Y-98623000D01*
X132773000Y-97429845D01*
X133027000Y-97429845D01*
X133027000Y-98623000D01*
X133047000Y-98623000D01*
X133047000Y-98877000D01*
X133027000Y-98877000D01*
X133027000Y-101163000D01*
X133047000Y-101163000D01*
X133047000Y-101417000D01*
X133027000Y-101417000D01*
X133027000Y-102610155D01*
X133256890Y-102731476D01*
X133404099Y-102686825D01*
X133666920Y-102561641D01*
X133900269Y-102387588D01*
X134095178Y-102171355D01*
X134164805Y-102054466D01*
X134286525Y-102236632D01*
X134493368Y-102443475D01*
X134736589Y-102605990D01*
X135006842Y-102717932D01*
X135293740Y-102775000D01*
X135586260Y-102775000D01*
X135873158Y-102717932D01*
X136143411Y-102605990D01*
X136386632Y-102443475D01*
X136593475Y-102236632D01*
X136710000Y-102062240D01*
X136826525Y-102236632D01*
X137033368Y-102443475D01*
X137276589Y-102605990D01*
X137546842Y-102717932D01*
X137833740Y-102775000D01*
X138126260Y-102775000D01*
X138413158Y-102717932D01*
X138683411Y-102605990D01*
X138926632Y-102443475D01*
X139133475Y-102236632D01*
X139255195Y-102054466D01*
X139324822Y-102171355D01*
X139519731Y-102387588D01*
X139753080Y-102561641D01*
X140015901Y-102686825D01*
X140163110Y-102731476D01*
X140393000Y-102610155D01*
X140393000Y-101417000D01*
X140647000Y-101417000D01*
X140647000Y-102610155D01*
X140876890Y-102731476D01*
X141024099Y-102686825D01*
X141286920Y-102561641D01*
X141520269Y-102387588D01*
X141715178Y-102171355D01*
X141864157Y-101921252D01*
X141961481Y-101646891D01*
X141840814Y-101417000D01*
X140647000Y-101417000D01*
X140393000Y-101417000D01*
X140373000Y-101417000D01*
X140373000Y-101163000D01*
X140393000Y-101163000D01*
X140393000Y-98877000D01*
X140647000Y-98877000D01*
X140647000Y-101163000D01*
X141840814Y-101163000D01*
X141961481Y-100933109D01*
X141864157Y-100658748D01*
X141715178Y-100408645D01*
X141520269Y-100192412D01*
X141289120Y-100020000D01*
X141520269Y-99847588D01*
X141715178Y-99631355D01*
X141864157Y-99381252D01*
X141961481Y-99106891D01*
X141840814Y-98877000D01*
X140647000Y-98877000D01*
X140393000Y-98877000D01*
X140373000Y-98877000D01*
X140373000Y-98623000D01*
X140393000Y-98623000D01*
X140393000Y-97429845D01*
X140647000Y-97429845D01*
X140647000Y-98623000D01*
X141840814Y-98623000D01*
X141961481Y-98393109D01*
X141864157Y-98118748D01*
X141715178Y-97868645D01*
X141520269Y-97652412D01*
X141286920Y-97478359D01*
X141024099Y-97353175D01*
X140876890Y-97308524D01*
X140647000Y-97429845D01*
X140393000Y-97429845D01*
X140163110Y-97308524D01*
X140015901Y-97353175D01*
X139753080Y-97478359D01*
X139519731Y-97652412D01*
X139324822Y-97868645D01*
X139255195Y-97985534D01*
X139133475Y-97803368D01*
X138926632Y-97596525D01*
X138683411Y-97434010D01*
X138413158Y-97322068D01*
X138126260Y-97265000D01*
X137833740Y-97265000D01*
X137546842Y-97322068D01*
X137276589Y-97434010D01*
X137033368Y-97596525D01*
X136826525Y-97803368D01*
X136710000Y-97977760D01*
X136593475Y-97803368D01*
X136386632Y-97596525D01*
X136143411Y-97434010D01*
X135873158Y-97322068D01*
X135586260Y-97265000D01*
X135293740Y-97265000D01*
X135006842Y-97322068D01*
X134736589Y-97434010D01*
X134493368Y-97596525D01*
X134286525Y-97803368D01*
X134164805Y-97985534D01*
X134095178Y-97868645D01*
X133900269Y-97652412D01*
X133666920Y-97478359D01*
X133404099Y-97353175D01*
X133256890Y-97308524D01*
X133027000Y-97429845D01*
X132773000Y-97429845D01*
X132543110Y-97308524D01*
X132395901Y-97353175D01*
X132133080Y-97478359D01*
X131899731Y-97652412D01*
X131704822Y-97868645D01*
X131635195Y-97985534D01*
X131513475Y-97803368D01*
X131306632Y-97596525D01*
X131063411Y-97434010D01*
X130793158Y-97322068D01*
X130506260Y-97265000D01*
X130213740Y-97265000D01*
X129926842Y-97322068D01*
X129656589Y-97434010D01*
X129413368Y-97596525D01*
X129206525Y-97803368D01*
X129044010Y-98046589D01*
X128932068Y-98316842D01*
X128875000Y-98603740D01*
X128875000Y-98896260D01*
X128932068Y-99183158D01*
X129044010Y-99453411D01*
X129206525Y-99696632D01*
X129338380Y-99828487D01*
X129265820Y-99850498D01*
X129155506Y-99909463D01*
X129058815Y-99988815D01*
X128979463Y-100085506D01*
X128920498Y-100195820D01*
X128884188Y-100315518D01*
X128871928Y-100440000D01*
X102710000Y-100440000D01*
X102710000Y-93652408D01*
X122573000Y-93652408D01*
X122573000Y-93927592D01*
X122626686Y-94197490D01*
X122731995Y-94451727D01*
X122884880Y-94680535D01*
X123079465Y-94875120D01*
X123308273Y-95028005D01*
X123562510Y-95133314D01*
X123832408Y-95187000D01*
X124107592Y-95187000D01*
X124377490Y-95133314D01*
X124631727Y-95028005D01*
X124860535Y-94875120D01*
X124980090Y-94755565D01*
X125724040Y-94755565D01*
X125791020Y-94995656D01*
X126040048Y-95112756D01*
X126307135Y-95179023D01*
X126582017Y-95191910D01*
X126854133Y-95150922D01*
X127113023Y-95057636D01*
X127228980Y-94995656D01*
X127295960Y-94755565D01*
X126510000Y-93969605D01*
X125724040Y-94755565D01*
X124980090Y-94755565D01*
X125055120Y-94680535D01*
X125208005Y-94451727D01*
X125237692Y-94380057D01*
X125242364Y-94393023D01*
X125304344Y-94508980D01*
X125544435Y-94575960D01*
X126330395Y-93790000D01*
X126689605Y-93790000D01*
X127475565Y-94575960D01*
X127715656Y-94508980D01*
X127832756Y-94259952D01*
X127899023Y-93992865D01*
X127911910Y-93717983D01*
X127870922Y-93445867D01*
X127777636Y-93186977D01*
X127715656Y-93071020D01*
X127475565Y-93004040D01*
X126689605Y-93790000D01*
X126330395Y-93790000D01*
X125544435Y-93004040D01*
X125304344Y-93071020D01*
X125240515Y-93206760D01*
X125208005Y-93128273D01*
X125055120Y-92899465D01*
X124980090Y-92824435D01*
X125724040Y-92824435D01*
X126510000Y-93610395D01*
X127295960Y-92824435D01*
X127228980Y-92584344D01*
X126979952Y-92467244D01*
X126712865Y-92400977D01*
X126437983Y-92388090D01*
X126165867Y-92429078D01*
X125906977Y-92522364D01*
X125791020Y-92584344D01*
X125724040Y-92824435D01*
X124980090Y-92824435D01*
X124860535Y-92704880D01*
X124631727Y-92551995D01*
X124377490Y-92446686D01*
X124107592Y-92393000D01*
X123832408Y-92393000D01*
X123562510Y-92446686D01*
X123308273Y-92551995D01*
X123079465Y-92704880D01*
X122884880Y-92899465D01*
X122731995Y-93128273D01*
X122626686Y-93382510D01*
X122573000Y-93652408D01*
X102710000Y-93652408D01*
X102710000Y-85713740D01*
X104155000Y-85713740D01*
X104155000Y-86006260D01*
X104212068Y-86293158D01*
X104324010Y-86563411D01*
X104486525Y-86806632D01*
X104693368Y-87013475D01*
X104936589Y-87175990D01*
X105206842Y-87287932D01*
X105493740Y-87345000D01*
X105786260Y-87345000D01*
X106073158Y-87287932D01*
X106343411Y-87175990D01*
X106586632Y-87013475D01*
X106718487Y-86881620D01*
X106740498Y-86954180D01*
X106799463Y-87064494D01*
X106878815Y-87161185D01*
X106975506Y-87240537D01*
X107085820Y-87299502D01*
X107205518Y-87335812D01*
X107330000Y-87348072D01*
X109030000Y-87348072D01*
X109154482Y-87335812D01*
X109274180Y-87299502D01*
X109384494Y-87240537D01*
X109481185Y-87161185D01*
X109560537Y-87064494D01*
X109619502Y-86954180D01*
X109655812Y-86834482D01*
X109668072Y-86710000D01*
X109668072Y-85010000D01*
X109655812Y-84885518D01*
X109619502Y-84765820D01*
X109560537Y-84655506D01*
X109481185Y-84558815D01*
X109384494Y-84479463D01*
X109274180Y-84420498D01*
X109154482Y-84384188D01*
X109030000Y-84371928D01*
X107330000Y-84371928D01*
X107205518Y-84384188D01*
X107085820Y-84420498D01*
X106975506Y-84479463D01*
X106878815Y-84558815D01*
X106799463Y-84655506D01*
X106740498Y-84765820D01*
X106718487Y-84838380D01*
X106586632Y-84706525D01*
X106343411Y-84544010D01*
X106073158Y-84432068D01*
X105786260Y-84375000D01*
X105493740Y-84375000D01*
X105206842Y-84432068D01*
X104936589Y-84544010D01*
X104693368Y-84706525D01*
X104486525Y-84913368D01*
X104324010Y-85156589D01*
X104212068Y-85426842D01*
X104155000Y-85713740D01*
X102710000Y-85713740D01*
X102710000Y-75804495D01*
X104015000Y-75804495D01*
X104015000Y-76195505D01*
X104091282Y-76579003D01*
X104240915Y-76940250D01*
X104458149Y-77265364D01*
X104734636Y-77541851D01*
X105059750Y-77759085D01*
X105420997Y-77908718D01*
X105804495Y-77985000D01*
X106195505Y-77985000D01*
X106579003Y-77908718D01*
X106940250Y-77759085D01*
X107265364Y-77541851D01*
X107541851Y-77265364D01*
X107759085Y-76940250D01*
X107908718Y-76579003D01*
X107985000Y-76195505D01*
X107985000Y-75804495D01*
X107908718Y-75420997D01*
X107759085Y-75059750D01*
X107541851Y-74734636D01*
X107265364Y-74458149D01*
X106940250Y-74240915D01*
X106579003Y-74091282D01*
X106195505Y-74015000D01*
X105804495Y-74015000D01*
X105420997Y-74091282D01*
X105059750Y-74240915D01*
X104734636Y-74458149D01*
X104458149Y-74734636D01*
X104240915Y-75059750D01*
X104091282Y-75420997D01*
X104015000Y-75804495D01*
X102710000Y-75804495D01*
X102710000Y-74034721D01*
X102737907Y-73750101D01*
X102810484Y-73509715D01*
X102928368Y-73288009D01*
X103087068Y-73093423D01*
X103280545Y-72933365D01*
X103501424Y-72813936D01*
X103741297Y-72739683D01*
X104023716Y-72710000D01*
X116038812Y-72710000D01*
X115995525Y-72745525D01*
G04 #@! TA.AperFunction,Conductor*
D26*
G36*
X115995525Y-72745525D02*
G01*
X115906800Y-72853637D01*
X115840872Y-72976980D01*
X115800273Y-73110816D01*
X115786565Y-73250000D01*
X115790001Y-73284887D01*
X115790001Y-77409323D01*
X115724951Y-77355938D01*
X115462324Y-77215560D01*
X115177356Y-77129117D01*
X114881000Y-77099928D01*
X113119000Y-77099928D01*
X112822644Y-77129117D01*
X112537676Y-77215560D01*
X112275049Y-77355938D01*
X112044854Y-77544854D01*
X111855938Y-77775049D01*
X111715560Y-78037676D01*
X111629117Y-78322644D01*
X111599928Y-78619000D01*
X111599928Y-85381000D01*
X111629117Y-85677356D01*
X111715560Y-85962324D01*
X111855938Y-86224951D01*
X112044854Y-86455146D01*
X112275049Y-86644062D01*
X112537676Y-86784440D01*
X112822644Y-86870883D01*
X113119000Y-86900072D01*
X114881000Y-86900072D01*
X115177356Y-86870883D01*
X115462324Y-86784440D01*
X115724951Y-86644062D01*
X115790000Y-86590678D01*
X115790000Y-90715123D01*
X115786565Y-90750000D01*
X115800273Y-90889184D01*
X115840872Y-91023020D01*
X115906800Y-91146363D01*
X115995525Y-91254475D01*
X116079112Y-91323073D01*
X116103637Y-91343200D01*
X116226980Y-91409128D01*
X116360816Y-91449727D01*
X116500000Y-91463435D01*
X116534877Y-91460000D01*
X120515000Y-91460000D01*
X120515000Y-91526951D01*
X120554774Y-91726910D01*
X120632795Y-91915268D01*
X120746063Y-92084786D01*
X120890226Y-92228949D01*
X121059744Y-92342217D01*
X121248102Y-92420238D01*
X121448061Y-92460012D01*
X121651939Y-92460012D01*
X121851898Y-92420238D01*
X122040256Y-92342217D01*
X122209774Y-92228949D01*
X122253711Y-92185012D01*
X148770211Y-92185012D01*
X152060001Y-95474803D01*
X152060001Y-96965199D01*
X151793804Y-96699003D01*
X151770001Y-96669999D01*
X151654276Y-96575026D01*
X151522247Y-96504454D01*
X151378986Y-96460997D01*
X151267333Y-96450000D01*
X151267322Y-96450000D01*
X151230000Y-96446324D01*
X151192678Y-96450000D01*
X145047331Y-96450000D01*
X145009998Y-96446323D01*
X144972665Y-96450000D01*
X144861012Y-96460997D01*
X144717751Y-96504454D01*
X144585722Y-96575026D01*
X144469997Y-96669999D01*
X144446199Y-96698997D01*
X143470199Y-97674998D01*
X143408061Y-97674998D01*
X143208102Y-97714772D01*
X143019744Y-97792793D01*
X142850226Y-97906061D01*
X142706063Y-98050224D01*
X142592795Y-98219742D01*
X142514774Y-98408100D01*
X142475000Y-98608059D01*
X142475000Y-98811937D01*
X142514774Y-99011896D01*
X142592795Y-99200254D01*
X142706063Y-99369772D01*
X142850226Y-99513935D01*
X143019744Y-99627203D01*
X143208102Y-99705224D01*
X143408061Y-99744998D01*
X143611939Y-99744998D01*
X143811898Y-99705224D01*
X144000256Y-99627203D01*
X144169774Y-99513935D01*
X144313937Y-99369772D01*
X144427205Y-99200254D01*
X144505226Y-99011896D01*
X144545000Y-98811937D01*
X144545000Y-98749799D01*
X145324800Y-97970000D01*
X146145000Y-97970000D01*
X146145000Y-98101943D01*
X146184774Y-98301902D01*
X146262795Y-98490260D01*
X146376063Y-98659778D01*
X146511287Y-98795002D01*
X146376063Y-98930226D01*
X146262795Y-99099744D01*
X146184774Y-99288102D01*
X146145000Y-99488061D01*
X146145000Y-99691939D01*
X146184774Y-99891898D01*
X146262795Y-100080256D01*
X146376063Y-100249774D01*
X146420001Y-100293712D01*
X146420000Y-103042677D01*
X146416324Y-103080000D01*
X146420000Y-103117322D01*
X146420000Y-103117332D01*
X146430997Y-103228985D01*
X146460191Y-103325226D01*
X146474454Y-103372246D01*
X146545026Y-103504276D01*
X146550557Y-103511015D01*
X146639999Y-103620001D01*
X146669002Y-103643803D01*
X147196200Y-104171002D01*
X147219999Y-104200001D01*
X147335724Y-104294974D01*
X147467753Y-104365546D01*
X147611014Y-104409003D01*
X147722667Y-104420000D01*
X147722677Y-104420000D01*
X147760000Y-104423676D01*
X147797323Y-104420000D01*
X149895199Y-104420000D01*
X152555000Y-107079802D01*
X152555000Y-107141939D01*
X152594774Y-107341898D01*
X152672795Y-107530256D01*
X152786063Y-107699774D01*
X152930226Y-107843937D01*
X153099744Y-107957205D01*
X153288102Y-108035226D01*
X153488061Y-108075000D01*
X153691939Y-108075000D01*
X153891898Y-108035226D01*
X154080256Y-107957205D01*
X154249774Y-107843937D01*
X154393937Y-107699774D01*
X154507205Y-107530256D01*
X154585226Y-107341898D01*
X154625000Y-107141939D01*
X154625000Y-106938061D01*
X154585226Y-106738102D01*
X154507205Y-106549744D01*
X154393937Y-106380226D01*
X154273711Y-106260000D01*
X156796365Y-106260000D01*
X156840302Y-106303937D01*
X157009820Y-106417205D01*
X157198178Y-106495226D01*
X157398137Y-106535000D01*
X157602015Y-106535000D01*
X157801974Y-106495226D01*
X157990332Y-106417205D01*
X158159850Y-106303937D01*
X158304013Y-106159774D01*
X158417281Y-105990256D01*
X158495302Y-105801898D01*
X158535076Y-105601939D01*
X158535076Y-105398061D01*
X158495302Y-105198102D01*
X158417281Y-105009744D01*
X158407389Y-104994940D01*
X158417201Y-104980256D01*
X158495222Y-104791898D01*
X158534996Y-104591939D01*
X158534996Y-104388061D01*
X158495222Y-104188102D01*
X158417201Y-103999744D01*
X158303933Y-103830226D01*
X158159770Y-103686063D01*
X157990252Y-103572795D01*
X157801894Y-103494774D01*
X157601935Y-103455000D01*
X157495000Y-103455000D01*
X157495000Y-103373071D01*
X157455226Y-103173112D01*
X157377205Y-102984754D01*
X157337248Y-102924954D01*
X157407205Y-102820256D01*
X157469443Y-102670000D01*
X167241928Y-102670000D01*
X167241928Y-104670000D01*
X167254188Y-104794482D01*
X167290498Y-104914180D01*
X167349463Y-105024494D01*
X167428815Y-105121185D01*
X167525506Y-105200537D01*
X167635820Y-105259502D01*
X167755518Y-105295812D01*
X167880000Y-105308072D01*
X169880000Y-105308072D01*
X170004482Y-105295812D01*
X170124180Y-105259502D01*
X170234494Y-105200537D01*
X170331185Y-105121185D01*
X170410537Y-105024494D01*
X170469502Y-104914180D01*
X170505812Y-104794482D01*
X170518072Y-104670000D01*
X170518072Y-102670000D01*
X170505812Y-102545518D01*
X170469502Y-102425820D01*
X170410537Y-102315506D01*
X170331185Y-102218815D01*
X170234494Y-102139463D01*
X170124180Y-102080498D01*
X170004482Y-102044188D01*
X169880000Y-102031928D01*
X167880000Y-102031928D01*
X167755518Y-102044188D01*
X167635820Y-102080498D01*
X167525506Y-102139463D01*
X167428815Y-102218815D01*
X167349463Y-102315506D01*
X167290498Y-102425820D01*
X167254188Y-102545518D01*
X167241928Y-102670000D01*
X157469443Y-102670000D01*
X157485226Y-102631898D01*
X157525000Y-102431939D01*
X157525000Y-102228061D01*
X157485226Y-102028102D01*
X157407205Y-101839744D01*
X157380634Y-101799977D01*
X157417205Y-101745244D01*
X157495226Y-101556886D01*
X157535000Y-101356927D01*
X157535000Y-101153049D01*
X157495226Y-100953090D01*
X157417205Y-100764732D01*
X157303937Y-100595214D01*
X157159774Y-100451051D01*
X156990256Y-100337783D01*
X156801898Y-100259762D01*
X156601939Y-100219988D01*
X156398061Y-100219988D01*
X156198102Y-100259762D01*
X156009744Y-100337783D01*
X155840226Y-100451051D01*
X155796289Y-100494988D01*
X153899790Y-100494988D01*
X153177144Y-99772342D01*
X153310256Y-99717205D01*
X153479774Y-99603937D01*
X153623937Y-99459774D01*
X153737205Y-99290256D01*
X153815226Y-99101898D01*
X153855000Y-98901939D01*
X153855000Y-98698061D01*
X153815226Y-98498102D01*
X153737205Y-98309744D01*
X153623937Y-98140226D01*
X153580000Y-98096289D01*
X153580000Y-95908967D01*
X167245000Y-95908967D01*
X167245000Y-96231033D01*
X167307832Y-96546912D01*
X167431082Y-96844463D01*
X167610013Y-97112252D01*
X167837748Y-97339987D01*
X168105537Y-97518918D01*
X168403088Y-97642168D01*
X168718967Y-97705000D01*
X169041033Y-97705000D01*
X169356912Y-97642168D01*
X169654463Y-97518918D01*
X169922252Y-97339987D01*
X170149987Y-97112252D01*
X170328918Y-96844463D01*
X170452168Y-96546912D01*
X170515000Y-96231033D01*
X170515000Y-95908967D01*
X170452168Y-95593088D01*
X170328918Y-95295537D01*
X170149987Y-95027748D01*
X169922252Y-94800013D01*
X169654463Y-94621082D01*
X169356912Y-94497832D01*
X169041033Y-94435000D01*
X168718967Y-94435000D01*
X168403088Y-94497832D01*
X168105537Y-94621082D01*
X167837748Y-94800013D01*
X167610013Y-95027748D01*
X167431082Y-95295537D01*
X167307832Y-95593088D01*
X167245000Y-95908967D01*
X153580000Y-95908967D01*
X153580000Y-95362164D01*
X153708102Y-95415226D01*
X153908061Y-95455000D01*
X154111939Y-95455000D01*
X154311898Y-95415226D01*
X154500256Y-95337205D01*
X154669774Y-95223937D01*
X154813937Y-95079774D01*
X154927205Y-94910256D01*
X155005226Y-94721898D01*
X155045000Y-94521939D01*
X155045000Y-94318061D01*
X155005226Y-94118102D01*
X154927205Y-93929744D01*
X154813937Y-93760226D01*
X154669774Y-93616063D01*
X154563226Y-93544870D01*
X152478355Y-91460000D01*
X183465123Y-91460000D01*
X183500000Y-91463435D01*
X183534877Y-91460000D01*
X183639184Y-91449727D01*
X183773020Y-91409128D01*
X183896363Y-91343200D01*
X184004475Y-91254475D01*
X184093200Y-91146363D01*
X184159128Y-91023020D01*
X184199727Y-90889184D01*
X184213435Y-90750000D01*
X184210000Y-90715123D01*
X184210000Y-86897314D01*
X184238000Y-86900072D01*
X185714250Y-86897000D01*
X185873000Y-86738250D01*
X185873000Y-82127000D01*
X186127000Y-82127000D01*
X186127000Y-86738250D01*
X186285750Y-86897000D01*
X187762000Y-86900072D01*
X187886482Y-86887812D01*
X188006180Y-86851502D01*
X188116494Y-86792537D01*
X188213185Y-86713185D01*
X188292537Y-86616494D01*
X188351502Y-86506180D01*
X188387812Y-86386482D01*
X188400072Y-86262000D01*
X188397000Y-82285750D01*
X188238250Y-82127000D01*
X186127000Y-82127000D01*
X185873000Y-82127000D01*
X185853000Y-82127000D01*
X185853000Y-81873000D01*
X185873000Y-81873000D01*
X185873000Y-77261750D01*
X186127000Y-77261750D01*
X186127000Y-81873000D01*
X188238250Y-81873000D01*
X188397000Y-81714250D01*
X188400072Y-77738000D01*
X188387812Y-77613518D01*
X188351502Y-77493820D01*
X188292537Y-77383506D01*
X188213185Y-77286815D01*
X188116494Y-77207463D01*
X188006180Y-77148498D01*
X187886482Y-77112188D01*
X187762000Y-77099928D01*
X186285750Y-77103000D01*
X186127000Y-77261750D01*
X185873000Y-77261750D01*
X185714250Y-77103000D01*
X184238000Y-77099928D01*
X184210000Y-77102686D01*
X184210000Y-75804495D01*
X192015000Y-75804495D01*
X192015000Y-76195505D01*
X192091282Y-76579003D01*
X192240915Y-76940250D01*
X192458149Y-77265364D01*
X192734636Y-77541851D01*
X193059750Y-77759085D01*
X193420997Y-77908718D01*
X193804495Y-77985000D01*
X194195505Y-77985000D01*
X194579003Y-77908718D01*
X194940250Y-77759085D01*
X195265364Y-77541851D01*
X195541851Y-77265364D01*
X195759085Y-76940250D01*
X195908718Y-76579003D01*
X195985000Y-76195505D01*
X195985000Y-75804495D01*
X195908718Y-75420997D01*
X195759085Y-75059750D01*
X195541851Y-74734636D01*
X195265364Y-74458149D01*
X194940250Y-74240915D01*
X194579003Y-74091282D01*
X194195505Y-74015000D01*
X193804495Y-74015000D01*
X193420997Y-74091282D01*
X193059750Y-74240915D01*
X192734636Y-74458149D01*
X192458149Y-74734636D01*
X192240915Y-75059750D01*
X192091282Y-75420997D01*
X192015000Y-75804495D01*
X184210000Y-75804495D01*
X184210000Y-73284877D01*
X184213435Y-73250000D01*
X184199727Y-73110816D01*
X184159128Y-72976980D01*
X184093200Y-72853637D01*
X184004475Y-72745525D01*
X183961188Y-72710000D01*
X195965279Y-72710000D01*
X196249899Y-72737907D01*
X196490285Y-72810484D01*
X196711991Y-72928368D01*
X196906577Y-73087068D01*
X197066635Y-73280545D01*
X197186064Y-73501424D01*
X197260317Y-73741297D01*
X197290000Y-74023716D01*
X197290001Y-125965269D01*
X197262093Y-126249899D01*
X197189517Y-126490282D01*
X197071633Y-126711989D01*
X196912929Y-126906580D01*
X196719455Y-127066635D01*
X196498576Y-127186064D01*
X196258701Y-127260317D01*
X195976291Y-127290000D01*
X127868005Y-127290000D01*
X127908415Y-127195987D01*
X127955000Y-126977000D01*
X127955000Y-126677000D01*
X126947000Y-126677000D01*
X126947000Y-126697000D01*
X126693000Y-126697000D01*
X126693000Y-126677000D01*
X125685000Y-126677000D01*
X125685000Y-126977000D01*
X125731585Y-127195987D01*
X125771995Y-127290000D01*
X119228005Y-127290000D01*
X119268415Y-127195987D01*
X119315000Y-126977000D01*
X119315000Y-126677000D01*
X118307000Y-126677000D01*
X118307000Y-126697000D01*
X118053000Y-126697000D01*
X118053000Y-126677000D01*
X117045000Y-126677000D01*
X117045000Y-126977000D01*
X117091585Y-127195987D01*
X117131995Y-127290000D01*
X104034721Y-127290000D01*
X103750101Y-127262093D01*
X103509718Y-127189517D01*
X103288011Y-127071633D01*
X103093420Y-126912929D01*
X102933365Y-126719455D01*
X102871703Y-126605413D01*
X181754192Y-126605413D01*
X181849956Y-126869814D01*
X182139571Y-127010704D01*
X182451108Y-127092384D01*
X182772595Y-127111718D01*
X183091675Y-127067961D01*
X183396088Y-126962795D01*
X183570044Y-126869814D01*
X183665808Y-126605413D01*
X186834192Y-126605413D01*
X186929956Y-126869814D01*
X187219571Y-127010704D01*
X187531108Y-127092384D01*
X187852595Y-127111718D01*
X188171675Y-127067961D01*
X188476088Y-126962795D01*
X188650044Y-126869814D01*
X188745808Y-126605413D01*
X187790000Y-125649605D01*
X186834192Y-126605413D01*
X183665808Y-126605413D01*
X182710000Y-125649605D01*
X181754192Y-126605413D01*
X102871703Y-126605413D01*
X102813936Y-126498576D01*
X102739683Y-126258701D01*
X102725421Y-126123000D01*
X117045000Y-126123000D01*
X117045000Y-126423000D01*
X118053000Y-126423000D01*
X118053000Y-125282046D01*
X118307000Y-125282046D01*
X118307000Y-126423000D01*
X119315000Y-126423000D01*
X119315000Y-126123000D01*
X125685000Y-126123000D01*
X125685000Y-126423000D01*
X126693000Y-126423000D01*
X126693000Y-125282046D01*
X126947000Y-125282046D01*
X126947000Y-126423000D01*
X127955000Y-126423000D01*
X127955000Y-126123000D01*
X127908415Y-125904013D01*
X127820003Y-125698322D01*
X127693161Y-125513831D01*
X127532764Y-125357631D01*
X127344976Y-125235724D01*
X127121874Y-125155881D01*
X126947000Y-125282046D01*
X126693000Y-125282046D01*
X126518126Y-125155881D01*
X126295024Y-125235724D01*
X126107236Y-125357631D01*
X125946839Y-125513831D01*
X125819997Y-125698322D01*
X125731585Y-125904013D01*
X125685000Y-126123000D01*
X119315000Y-126123000D01*
X119268415Y-125904013D01*
X119180003Y-125698322D01*
X119053161Y-125513831D01*
X118892764Y-125357631D01*
X118704976Y-125235724D01*
X118481874Y-125155881D01*
X118307000Y-125282046D01*
X118053000Y-125282046D01*
X117878126Y-125155881D01*
X117655024Y-125235724D01*
X117467236Y-125357631D01*
X117306839Y-125513831D01*
X117179997Y-125698322D01*
X117091585Y-125904013D01*
X117045000Y-126123000D01*
X102725421Y-126123000D01*
X102710000Y-125976291D01*
X102710000Y-123804495D01*
X104015000Y-123804495D01*
X104015000Y-124195505D01*
X104091282Y-124579003D01*
X104240915Y-124940250D01*
X104458149Y-125265364D01*
X104734636Y-125541851D01*
X105059750Y-125759085D01*
X105420997Y-125908718D01*
X105804495Y-125985000D01*
X106195505Y-125985000D01*
X106579003Y-125908718D01*
X106940250Y-125759085D01*
X107265364Y-125541851D01*
X107541851Y-125265364D01*
X107759085Y-124940250D01*
X107908718Y-124579003D01*
X107985000Y-124195505D01*
X107985000Y-123804495D01*
X107908718Y-123420997D01*
X107763331Y-123070000D01*
X108641928Y-123070000D01*
X108641928Y-124870000D01*
X108654188Y-124994482D01*
X108690498Y-125114180D01*
X108749463Y-125224494D01*
X108828815Y-125321185D01*
X108925506Y-125400537D01*
X109035820Y-125459502D01*
X109155518Y-125495812D01*
X109280000Y-125508072D01*
X111080000Y-125508072D01*
X111204482Y-125495812D01*
X111324180Y-125459502D01*
X111434494Y-125400537D01*
X111531185Y-125321185D01*
X111610537Y-125224494D01*
X111669502Y-125114180D01*
X111675056Y-125095873D01*
X111741495Y-125162312D01*
X111992905Y-125330299D01*
X112272257Y-125446011D01*
X112568816Y-125505000D01*
X112871184Y-125505000D01*
X113167743Y-125446011D01*
X113447095Y-125330299D01*
X113698505Y-125162312D01*
X113912312Y-124948505D01*
X113990000Y-124832237D01*
X114067688Y-124948505D01*
X114281495Y-125162312D01*
X114532905Y-125330299D01*
X114812257Y-125446011D01*
X115108816Y-125505000D01*
X115411184Y-125505000D01*
X115707743Y-125446011D01*
X115987095Y-125330299D01*
X116238505Y-125162312D01*
X116452312Y-124948505D01*
X116620299Y-124697095D01*
X116736011Y-124417743D01*
X116795000Y-124121184D01*
X116795000Y-123818816D01*
X116736011Y-123522257D01*
X116620299Y-123242905D01*
X116452312Y-122991495D01*
X116238505Y-122777688D01*
X115987095Y-122609701D01*
X115715013Y-122497000D01*
X117045000Y-122497000D01*
X117045000Y-123047000D01*
X117091585Y-123265987D01*
X117179997Y-123471678D01*
X117306839Y-123656169D01*
X117467236Y-123812369D01*
X117655024Y-123934276D01*
X117878126Y-124014119D01*
X118053000Y-123887954D01*
X118053000Y-122497000D01*
X117045000Y-122497000D01*
X115715013Y-122497000D01*
X115707743Y-122493989D01*
X115411184Y-122435000D01*
X115108816Y-122435000D01*
X114812257Y-122493989D01*
X114532905Y-122609701D01*
X114281495Y-122777688D01*
X114067688Y-122991495D01*
X113990000Y-123107763D01*
X113912312Y-122991495D01*
X113698505Y-122777688D01*
X113447095Y-122609701D01*
X113167743Y-122493989D01*
X112871184Y-122435000D01*
X112568816Y-122435000D01*
X112272257Y-122493989D01*
X111992905Y-122609701D01*
X111741495Y-122777688D01*
X111675056Y-122844127D01*
X111669502Y-122825820D01*
X111610537Y-122715506D01*
X111531185Y-122618815D01*
X111434494Y-122539463D01*
X111324180Y-122480498D01*
X111204482Y-122444188D01*
X111080000Y-122431928D01*
X109280000Y-122431928D01*
X109155518Y-122444188D01*
X109035820Y-122480498D01*
X108925506Y-122539463D01*
X108828815Y-122618815D01*
X108749463Y-122715506D01*
X108690498Y-122825820D01*
X108654188Y-122945518D01*
X108641928Y-123070000D01*
X107763331Y-123070000D01*
X107759085Y-123059750D01*
X107541851Y-122734636D01*
X107265364Y-122458149D01*
X106940250Y-122240915D01*
X106579003Y-122091282D01*
X106195505Y-122015000D01*
X105804495Y-122015000D01*
X105420997Y-122091282D01*
X105059750Y-122240915D01*
X104734636Y-122458149D01*
X104458149Y-122734636D01*
X104240915Y-123059750D01*
X104091282Y-123420997D01*
X104015000Y-123804495D01*
X102710000Y-123804495D01*
X102710000Y-121693000D01*
X117045000Y-121693000D01*
X117045000Y-122243000D01*
X118053000Y-122243000D01*
X118053000Y-120852046D01*
X118307000Y-120852046D01*
X118307000Y-122243000D01*
X118327000Y-122243000D01*
X118327000Y-122497000D01*
X118307000Y-122497000D01*
X118307000Y-123887954D01*
X118481874Y-124014119D01*
X118704976Y-123934276D01*
X118892764Y-123812369D01*
X119037116Y-123671794D01*
X119155269Y-123750741D01*
X119329978Y-123823108D01*
X119515448Y-123860000D01*
X119704552Y-123860000D01*
X119890022Y-123823108D01*
X120064731Y-123750741D01*
X120221964Y-123645681D01*
X120355681Y-123511964D01*
X120460741Y-123354731D01*
X120533108Y-123180022D01*
X120570000Y-122994552D01*
X120570000Y-122805448D01*
X120533108Y-122619978D01*
X120460741Y-122445269D01*
X120355681Y-122288036D01*
X120221964Y-122154319D01*
X120064731Y-122049259D01*
X119890022Y-121976892D01*
X119704552Y-121940000D01*
X119515448Y-121940000D01*
X119329978Y-121976892D01*
X119315000Y-121983096D01*
X119315000Y-121693000D01*
X119268415Y-121474013D01*
X119180003Y-121268322D01*
X119053161Y-121083831D01*
X118892764Y-120927631D01*
X118704976Y-120805724D01*
X118481874Y-120725881D01*
X118307000Y-120852046D01*
X118053000Y-120852046D01*
X117878126Y-120725881D01*
X117655024Y-120805724D01*
X117467236Y-120927631D01*
X117306839Y-121083831D01*
X117179997Y-121268322D01*
X117091585Y-121474013D01*
X117045000Y-121693000D01*
X102710000Y-121693000D01*
X102710000Y-119128061D01*
X121465000Y-119128061D01*
X121465000Y-119331939D01*
X121504774Y-119531898D01*
X121582795Y-119720256D01*
X121665000Y-119843285D01*
X121665001Y-122711724D01*
X121582795Y-122834754D01*
X121504774Y-123023112D01*
X121465000Y-123223071D01*
X121465000Y-123426949D01*
X121504774Y-123626908D01*
X121582795Y-123815266D01*
X121696063Y-123984784D01*
X121840226Y-124128947D01*
X122009744Y-124242215D01*
X122198102Y-124320236D01*
X122398061Y-124360010D01*
X122601939Y-124360010D01*
X122801898Y-124320236D01*
X122990256Y-124242215D01*
X123159774Y-124128947D01*
X123238721Y-124050000D01*
X129961928Y-124050000D01*
X129961928Y-124950000D01*
X129978031Y-125113500D01*
X130025722Y-125270716D01*
X130103169Y-125415608D01*
X130207394Y-125542606D01*
X130334392Y-125646831D01*
X130479284Y-125724278D01*
X130636500Y-125771969D01*
X130800000Y-125788072D01*
X131200000Y-125788072D01*
X131363500Y-125771969D01*
X131520716Y-125724278D01*
X131665608Y-125646831D01*
X131683985Y-125631749D01*
X131701840Y-125645255D01*
X131887028Y-125734994D01*
X131963877Y-125744666D01*
X132123000Y-125616998D01*
X132123000Y-124627000D01*
X132377000Y-124627000D01*
X132377000Y-125616998D01*
X132536123Y-125744666D01*
X132612972Y-125734994D01*
X132798160Y-125645255D01*
X132962283Y-125521112D01*
X133099033Y-125367336D01*
X133203155Y-125189836D01*
X133270648Y-124995433D01*
X133298918Y-124791599D01*
X133133762Y-124627000D01*
X132377000Y-124627000D01*
X132123000Y-124627000D01*
X132103000Y-124627000D01*
X132103000Y-124373000D01*
X132123000Y-124373000D01*
X132123000Y-123383002D01*
X132377000Y-123383002D01*
X132377000Y-124373000D01*
X133133762Y-124373000D01*
X133298918Y-124208401D01*
X133276950Y-124050000D01*
X135211928Y-124050000D01*
X135211928Y-124950000D01*
X135228031Y-125113500D01*
X135275722Y-125270716D01*
X135353169Y-125415608D01*
X135457394Y-125542606D01*
X135584392Y-125646831D01*
X135729284Y-125724278D01*
X135886500Y-125771969D01*
X136050000Y-125788072D01*
X136450000Y-125788072D01*
X136613500Y-125771969D01*
X136770716Y-125724278D01*
X136915608Y-125646831D01*
X136933985Y-125631749D01*
X136951840Y-125645255D01*
X137137028Y-125734994D01*
X137213877Y-125744666D01*
X137373000Y-125616998D01*
X137373000Y-124627000D01*
X137627000Y-124627000D01*
X137627000Y-125616998D01*
X137786123Y-125744666D01*
X137862972Y-125734994D01*
X138048160Y-125645255D01*
X138212283Y-125521112D01*
X138349033Y-125367336D01*
X138453155Y-125189836D01*
X138520648Y-124995433D01*
X138548918Y-124791599D01*
X138383762Y-124627000D01*
X137627000Y-124627000D01*
X137373000Y-124627000D01*
X137353000Y-124627000D01*
X137353000Y-124373000D01*
X137373000Y-124373000D01*
X137373000Y-123383002D01*
X137627000Y-123383002D01*
X137627000Y-124373000D01*
X138383762Y-124373000D01*
X138548918Y-124208401D01*
X138526950Y-124050000D01*
X140461928Y-124050000D01*
X140461928Y-124950000D01*
X140478031Y-125113500D01*
X140525722Y-125270716D01*
X140603169Y-125415608D01*
X140707394Y-125542606D01*
X140834392Y-125646831D01*
X140979284Y-125724278D01*
X141136500Y-125771969D01*
X141300000Y-125788072D01*
X141700000Y-125788072D01*
X141863500Y-125771969D01*
X142020716Y-125724278D01*
X142165608Y-125646831D01*
X142183985Y-125631749D01*
X142201840Y-125645255D01*
X142387028Y-125734994D01*
X142463877Y-125744666D01*
X142623000Y-125616998D01*
X142623000Y-124627000D01*
X142877000Y-124627000D01*
X142877000Y-125616998D01*
X143036123Y-125744666D01*
X143112972Y-125734994D01*
X143298160Y-125645255D01*
X143462283Y-125521112D01*
X143599033Y-125367336D01*
X143703155Y-125189836D01*
X143770648Y-124995433D01*
X143798918Y-124791599D01*
X143633762Y-124627000D01*
X142877000Y-124627000D01*
X142623000Y-124627000D01*
X142603000Y-124627000D01*
X142603000Y-124373000D01*
X142623000Y-124373000D01*
X142623000Y-123383002D01*
X142877000Y-123383002D01*
X142877000Y-124373000D01*
X143633762Y-124373000D01*
X143798918Y-124208401D01*
X143776950Y-124050000D01*
X145711928Y-124050000D01*
X145711928Y-124950000D01*
X145728031Y-125113500D01*
X145775722Y-125270716D01*
X145853169Y-125415608D01*
X145957394Y-125542606D01*
X146084392Y-125646831D01*
X146229284Y-125724278D01*
X146386500Y-125771969D01*
X146550000Y-125788072D01*
X146950000Y-125788072D01*
X147113500Y-125771969D01*
X147270716Y-125724278D01*
X147415608Y-125646831D01*
X147433985Y-125631749D01*
X147451840Y-125645255D01*
X147637028Y-125734994D01*
X147713877Y-125744666D01*
X147873000Y-125616998D01*
X147873000Y-124627000D01*
X148127000Y-124627000D01*
X148127000Y-125616998D01*
X148286123Y-125744666D01*
X148362972Y-125734994D01*
X148548160Y-125645255D01*
X148712283Y-125521112D01*
X148849033Y-125367336D01*
X148953155Y-125189836D01*
X149020648Y-124995433D01*
X149048918Y-124791599D01*
X148883762Y-124627000D01*
X148127000Y-124627000D01*
X147873000Y-124627000D01*
X147853000Y-124627000D01*
X147853000Y-124373000D01*
X147873000Y-124373000D01*
X147873000Y-123383002D01*
X148127000Y-123383002D01*
X148127000Y-124373000D01*
X148883762Y-124373000D01*
X149048918Y-124208401D01*
X149026950Y-124050000D01*
X150961928Y-124050000D01*
X150961928Y-124950000D01*
X150978031Y-125113500D01*
X151025722Y-125270716D01*
X151103169Y-125415608D01*
X151207394Y-125542606D01*
X151334392Y-125646831D01*
X151479284Y-125724278D01*
X151636500Y-125771969D01*
X151800000Y-125788072D01*
X152200000Y-125788072D01*
X152363500Y-125771969D01*
X152520716Y-125724278D01*
X152665608Y-125646831D01*
X152683985Y-125631749D01*
X152701840Y-125645255D01*
X152887028Y-125734994D01*
X152963877Y-125744666D01*
X153123000Y-125616998D01*
X153123000Y-124627000D01*
X153377000Y-124627000D01*
X153377000Y-125616998D01*
X153536123Y-125744666D01*
X153612972Y-125734994D01*
X153798160Y-125645255D01*
X153962283Y-125521112D01*
X154099033Y-125367336D01*
X154203155Y-125189836D01*
X154270648Y-124995433D01*
X154298918Y-124791599D01*
X154133762Y-124627000D01*
X153377000Y-124627000D01*
X153123000Y-124627000D01*
X153103000Y-124627000D01*
X153103000Y-124373000D01*
X153123000Y-124373000D01*
X153123000Y-123383002D01*
X153377000Y-123383002D01*
X153377000Y-124373000D01*
X154133762Y-124373000D01*
X154298918Y-124208401D01*
X154276950Y-124050000D01*
X156211928Y-124050000D01*
X156211928Y-124950000D01*
X156228031Y-125113500D01*
X156275722Y-125270716D01*
X156353169Y-125415608D01*
X156457394Y-125542606D01*
X156584392Y-125646831D01*
X156729284Y-125724278D01*
X156886500Y-125771969D01*
X157050000Y-125788072D01*
X157450000Y-125788072D01*
X157613500Y-125771969D01*
X157770716Y-125724278D01*
X157915608Y-125646831D01*
X157933985Y-125631749D01*
X157951840Y-125645255D01*
X158137028Y-125734994D01*
X158213877Y-125744666D01*
X158373000Y-125616998D01*
X158373000Y-124627000D01*
X158627000Y-124627000D01*
X158627000Y-125616998D01*
X158786123Y-125744666D01*
X158862972Y-125734994D01*
X159048160Y-125645255D01*
X159212283Y-125521112D01*
X159349033Y-125367336D01*
X159453155Y-125189836D01*
X159520648Y-124995433D01*
X159548918Y-124791599D01*
X159383762Y-124627000D01*
X158627000Y-124627000D01*
X158373000Y-124627000D01*
X158353000Y-124627000D01*
X158353000Y-124373000D01*
X158373000Y-124373000D01*
X158373000Y-123383002D01*
X158627000Y-123383002D01*
X158627000Y-124373000D01*
X159383762Y-124373000D01*
X159548918Y-124208401D01*
X159526950Y-124050000D01*
X161461928Y-124050000D01*
X161461928Y-124950000D01*
X161478031Y-125113500D01*
X161525722Y-125270716D01*
X161603169Y-125415608D01*
X161707394Y-125542606D01*
X161834392Y-125646831D01*
X161979284Y-125724278D01*
X162136500Y-125771969D01*
X162300000Y-125788072D01*
X162700000Y-125788072D01*
X162863500Y-125771969D01*
X163020716Y-125724278D01*
X163165608Y-125646831D01*
X163183985Y-125631749D01*
X163201840Y-125645255D01*
X163387028Y-125734994D01*
X163463877Y-125744666D01*
X163623000Y-125616998D01*
X163623000Y-124627000D01*
X163877000Y-124627000D01*
X163877000Y-125616998D01*
X164036123Y-125744666D01*
X164112972Y-125734994D01*
X164298160Y-125645255D01*
X164462283Y-125521112D01*
X164599033Y-125367336D01*
X164703155Y-125189836D01*
X164770648Y-124995433D01*
X164798918Y-124791599D01*
X164633762Y-124627000D01*
X163877000Y-124627000D01*
X163623000Y-124627000D01*
X163603000Y-124627000D01*
X163603000Y-124373000D01*
X163623000Y-124373000D01*
X163623000Y-123383002D01*
X163877000Y-123383002D01*
X163877000Y-124373000D01*
X164633762Y-124373000D01*
X164798918Y-124208401D01*
X164776950Y-124050000D01*
X166711928Y-124050000D01*
X166711928Y-124950000D01*
X166728031Y-125113500D01*
X166775722Y-125270716D01*
X166853169Y-125415608D01*
X166957394Y-125542606D01*
X167084392Y-125646831D01*
X167229284Y-125724278D01*
X167386500Y-125771969D01*
X167550000Y-125788072D01*
X167950000Y-125788072D01*
X168113500Y-125771969D01*
X168270716Y-125724278D01*
X168415608Y-125646831D01*
X168433985Y-125631749D01*
X168451840Y-125645255D01*
X168637028Y-125734994D01*
X168713877Y-125744666D01*
X168873000Y-125616998D01*
X168873000Y-124627000D01*
X169127000Y-124627000D01*
X169127000Y-125616998D01*
X169286123Y-125744666D01*
X169362972Y-125734994D01*
X169548160Y-125645255D01*
X169697101Y-125532595D01*
X181068282Y-125532595D01*
X181112039Y-125851675D01*
X181217205Y-126156088D01*
X181310186Y-126330044D01*
X181574587Y-126425808D01*
X182530395Y-125470000D01*
X182889605Y-125470000D01*
X183845413Y-126425808D01*
X184109814Y-126330044D01*
X184250704Y-126040429D01*
X184332384Y-125728892D01*
X184344189Y-125532595D01*
X186148282Y-125532595D01*
X186192039Y-125851675D01*
X186297205Y-126156088D01*
X186390186Y-126330044D01*
X186654587Y-126425808D01*
X187610395Y-125470000D01*
X187969605Y-125470000D01*
X188925413Y-126425808D01*
X189189814Y-126330044D01*
X189330704Y-126040429D01*
X189412384Y-125728892D01*
X189431718Y-125407405D01*
X189387961Y-125088325D01*
X189282795Y-124783912D01*
X189189814Y-124609956D01*
X188925413Y-124514192D01*
X187969605Y-125470000D01*
X187610395Y-125470000D01*
X186654587Y-124514192D01*
X186390186Y-124609956D01*
X186249296Y-124899571D01*
X186167616Y-125211108D01*
X186148282Y-125532595D01*
X184344189Y-125532595D01*
X184351718Y-125407405D01*
X184307961Y-125088325D01*
X184202795Y-124783912D01*
X184109814Y-124609956D01*
X183845413Y-124514192D01*
X182889605Y-125470000D01*
X182530395Y-125470000D01*
X181574587Y-124514192D01*
X181310186Y-124609956D01*
X181169296Y-124899571D01*
X181087616Y-125211108D01*
X181068282Y-125532595D01*
X169697101Y-125532595D01*
X169712283Y-125521112D01*
X169849033Y-125367336D01*
X169953155Y-125189836D01*
X170020648Y-124995433D01*
X170048918Y-124791599D01*
X169883762Y-124627000D01*
X169127000Y-124627000D01*
X168873000Y-124627000D01*
X168853000Y-124627000D01*
X168853000Y-124373000D01*
X168873000Y-124373000D01*
X168873000Y-123383002D01*
X169127000Y-123383002D01*
X169127000Y-124373000D01*
X169883762Y-124373000D01*
X170048918Y-124208401D01*
X170020648Y-124004567D01*
X169953155Y-123810164D01*
X169940633Y-123788816D01*
X172155000Y-123788816D01*
X172155000Y-124091184D01*
X172213989Y-124387743D01*
X172329701Y-124667095D01*
X172497688Y-124918505D01*
X172711495Y-125132312D01*
X172962905Y-125300299D01*
X173242257Y-125416011D01*
X173538816Y-125475000D01*
X173841184Y-125475000D01*
X174137743Y-125416011D01*
X174417095Y-125300299D01*
X174668505Y-125132312D01*
X174882312Y-124918505D01*
X174984951Y-124764895D01*
X175165920Y-124824475D01*
X176050395Y-123940000D01*
X175165920Y-123055525D01*
X174984951Y-123115105D01*
X174882312Y-122961495D01*
X174796737Y-122875920D01*
X175345525Y-122875920D01*
X176230000Y-123760395D01*
X176244143Y-123746253D01*
X176423748Y-123925858D01*
X176409605Y-123940000D01*
X176423748Y-123954143D01*
X176244143Y-124133748D01*
X176230000Y-124119605D01*
X175345525Y-125004080D01*
X175429208Y-125258261D01*
X175701775Y-125389158D01*
X175994642Y-125464365D01*
X176296553Y-125480991D01*
X176595907Y-125438397D01*
X176881199Y-125338222D01*
X177030792Y-125258261D01*
X177114474Y-125004082D01*
X177230422Y-125120030D01*
X177277187Y-125073265D01*
X177280498Y-125084180D01*
X177339463Y-125194494D01*
X177418815Y-125291185D01*
X177515506Y-125370537D01*
X177625820Y-125429502D01*
X177745518Y-125465812D01*
X177870000Y-125478072D01*
X179670000Y-125478072D01*
X179794482Y-125465812D01*
X179914180Y-125429502D01*
X180024494Y-125370537D01*
X180121185Y-125291185D01*
X180200537Y-125194494D01*
X180259502Y-125084180D01*
X180295812Y-124964482D01*
X180308072Y-124840000D01*
X180308072Y-124334587D01*
X181754192Y-124334587D01*
X182710000Y-125290395D01*
X183665808Y-124334587D01*
X186834192Y-124334587D01*
X187790000Y-125290395D01*
X188745808Y-124334587D01*
X188650044Y-124070186D01*
X188360429Y-123929296D01*
X188048892Y-123847616D01*
X187727405Y-123828282D01*
X187408325Y-123872039D01*
X187103912Y-123977205D01*
X186929956Y-124070186D01*
X186834192Y-124334587D01*
X183665808Y-124334587D01*
X183570044Y-124070186D01*
X183280429Y-123929296D01*
X182968892Y-123847616D01*
X182647405Y-123828282D01*
X182328325Y-123872039D01*
X182023912Y-123977205D01*
X181849956Y-124070186D01*
X181754192Y-124334587D01*
X180308072Y-124334587D01*
X180308072Y-123040000D01*
X180295812Y-122915518D01*
X180259502Y-122795820D01*
X180257679Y-122792408D01*
X183853000Y-122792408D01*
X183853000Y-123067592D01*
X183906686Y-123337490D01*
X184011995Y-123591727D01*
X184164880Y-123820535D01*
X184359465Y-124015120D01*
X184588273Y-124168005D01*
X184842510Y-124273314D01*
X185112408Y-124327000D01*
X185387592Y-124327000D01*
X185657490Y-124273314D01*
X185911727Y-124168005D01*
X186140535Y-124015120D01*
X186335120Y-123820535D01*
X186345837Y-123804495D01*
X191515000Y-123804495D01*
X191515000Y-124195505D01*
X191591282Y-124579003D01*
X191740915Y-124940250D01*
X191958149Y-125265364D01*
X192234636Y-125541851D01*
X192559750Y-125759085D01*
X192920997Y-125908718D01*
X193304495Y-125985000D01*
X193695505Y-125985000D01*
X194079003Y-125908718D01*
X194440250Y-125759085D01*
X194765364Y-125541851D01*
X195041851Y-125265364D01*
X195259085Y-124940250D01*
X195408718Y-124579003D01*
X195485000Y-124195505D01*
X195485000Y-123804495D01*
X195408718Y-123420997D01*
X195259085Y-123059750D01*
X195041851Y-122734636D01*
X194765364Y-122458149D01*
X194440250Y-122240915D01*
X194079003Y-122091282D01*
X193695505Y-122015000D01*
X193304495Y-122015000D01*
X192920997Y-122091282D01*
X192559750Y-122240915D01*
X192234636Y-122458149D01*
X191958149Y-122734636D01*
X191740915Y-123059750D01*
X191591282Y-123420997D01*
X191515000Y-123804495D01*
X186345837Y-123804495D01*
X186488005Y-123591727D01*
X186593314Y-123337490D01*
X186647000Y-123067592D01*
X186647000Y-122792408D01*
X186593314Y-122522510D01*
X186488005Y-122268273D01*
X186335120Y-122039465D01*
X186140535Y-121844880D01*
X185911727Y-121691995D01*
X185657490Y-121586686D01*
X185387592Y-121533000D01*
X185112408Y-121533000D01*
X184842510Y-121586686D01*
X184588273Y-121691995D01*
X184359465Y-121844880D01*
X184164880Y-122039465D01*
X184011995Y-122268273D01*
X183906686Y-122522510D01*
X183853000Y-122792408D01*
X180257679Y-122792408D01*
X180200537Y-122685506D01*
X180121185Y-122588815D01*
X180024494Y-122509463D01*
X179914180Y-122450498D01*
X179794482Y-122414188D01*
X179670000Y-122401928D01*
X177870000Y-122401928D01*
X177745518Y-122414188D01*
X177625820Y-122450498D01*
X177515506Y-122509463D01*
X177418815Y-122588815D01*
X177339463Y-122685506D01*
X177280498Y-122795820D01*
X177277187Y-122806735D01*
X177230422Y-122759970D01*
X177114474Y-122875918D01*
X177030792Y-122621739D01*
X176758225Y-122490842D01*
X176465358Y-122415635D01*
X176163447Y-122399009D01*
X175864093Y-122441603D01*
X175578801Y-122541778D01*
X175429208Y-122621739D01*
X175345525Y-122875920D01*
X174796737Y-122875920D01*
X174668505Y-122747688D01*
X174417095Y-122579701D01*
X174137743Y-122463989D01*
X173841184Y-122405000D01*
X173538816Y-122405000D01*
X173242257Y-122463989D01*
X172962905Y-122579701D01*
X172711495Y-122747688D01*
X172497688Y-122961495D01*
X172329701Y-123212905D01*
X172213989Y-123492257D01*
X172155000Y-123788816D01*
X169940633Y-123788816D01*
X169849033Y-123632664D01*
X169712283Y-123478888D01*
X169548160Y-123354745D01*
X169362972Y-123265006D01*
X169286123Y-123255334D01*
X169127000Y-123383002D01*
X168873000Y-123383002D01*
X168713877Y-123255334D01*
X168637028Y-123265006D01*
X168451840Y-123354745D01*
X168433985Y-123368251D01*
X168415608Y-123353169D01*
X168270716Y-123275722D01*
X168113500Y-123228031D01*
X167950000Y-123211928D01*
X167550000Y-123211928D01*
X167386500Y-123228031D01*
X167229284Y-123275722D01*
X167084392Y-123353169D01*
X166957394Y-123457394D01*
X166853169Y-123584392D01*
X166775722Y-123729284D01*
X166728031Y-123886500D01*
X166711928Y-124050000D01*
X164776950Y-124050000D01*
X164770648Y-124004567D01*
X164703155Y-123810164D01*
X164599033Y-123632664D01*
X164462283Y-123478888D01*
X164298160Y-123354745D01*
X164112972Y-123265006D01*
X164036123Y-123255334D01*
X163877000Y-123383002D01*
X163623000Y-123383002D01*
X163463877Y-123255334D01*
X163387028Y-123265006D01*
X163201840Y-123354745D01*
X163183985Y-123368251D01*
X163165608Y-123353169D01*
X163020716Y-123275722D01*
X162863500Y-123228031D01*
X162700000Y-123211928D01*
X162300000Y-123211928D01*
X162136500Y-123228031D01*
X161979284Y-123275722D01*
X161834392Y-123353169D01*
X161707394Y-123457394D01*
X161603169Y-123584392D01*
X161525722Y-123729284D01*
X161478031Y-123886500D01*
X161461928Y-124050000D01*
X159526950Y-124050000D01*
X159520648Y-124004567D01*
X159453155Y-123810164D01*
X159349033Y-123632664D01*
X159212283Y-123478888D01*
X159048160Y-123354745D01*
X158862972Y-123265006D01*
X158786123Y-123255334D01*
X158627000Y-123383002D01*
X158373000Y-123383002D01*
X158213877Y-123255334D01*
X158137028Y-123265006D01*
X157951840Y-123354745D01*
X157933985Y-123368251D01*
X157915608Y-123353169D01*
X157770716Y-123275722D01*
X157613500Y-123228031D01*
X157450000Y-123211928D01*
X157050000Y-123211928D01*
X156886500Y-123228031D01*
X156729284Y-123275722D01*
X156584392Y-123353169D01*
X156457394Y-123457394D01*
X156353169Y-123584392D01*
X156275722Y-123729284D01*
X156228031Y-123886500D01*
X156211928Y-124050000D01*
X154276950Y-124050000D01*
X154270648Y-124004567D01*
X154203155Y-123810164D01*
X154099033Y-123632664D01*
X153962283Y-123478888D01*
X153798160Y-123354745D01*
X153612972Y-123265006D01*
X153536123Y-123255334D01*
X153377000Y-123383002D01*
X153123000Y-123383002D01*
X152963877Y-123255334D01*
X152887028Y-123265006D01*
X152701840Y-123354745D01*
X152683985Y-123368251D01*
X152665608Y-123353169D01*
X152520716Y-123275722D01*
X152363500Y-123228031D01*
X152200000Y-123211928D01*
X151800000Y-123211928D01*
X151636500Y-123228031D01*
X151479284Y-123275722D01*
X151334392Y-123353169D01*
X151207394Y-123457394D01*
X151103169Y-123584392D01*
X151025722Y-123729284D01*
X150978031Y-123886500D01*
X150961928Y-124050000D01*
X149026950Y-124050000D01*
X149020648Y-124004567D01*
X148953155Y-123810164D01*
X148849033Y-123632664D01*
X148712283Y-123478888D01*
X148548160Y-123354745D01*
X148362972Y-123265006D01*
X148286123Y-123255334D01*
X148127000Y-123383002D01*
X147873000Y-123383002D01*
X147713877Y-123255334D01*
X147637028Y-123265006D01*
X147451840Y-123354745D01*
X147433985Y-123368251D01*
X147415608Y-123353169D01*
X147270716Y-123275722D01*
X147113500Y-123228031D01*
X146950000Y-123211928D01*
X146550000Y-123211928D01*
X146386500Y-123228031D01*
X146229284Y-123275722D01*
X146084392Y-123353169D01*
X145957394Y-123457394D01*
X145853169Y-123584392D01*
X145775722Y-123729284D01*
X145728031Y-123886500D01*
X145711928Y-124050000D01*
X143776950Y-124050000D01*
X143770648Y-124004567D01*
X143703155Y-123810164D01*
X143599033Y-123632664D01*
X143462283Y-123478888D01*
X143298160Y-123354745D01*
X143112972Y-123265006D01*
X143036123Y-123255334D01*
X142877000Y-123383002D01*
X142623000Y-123383002D01*
X142463877Y-123255334D01*
X142387028Y-123265006D01*
X142201840Y-123354745D01*
X142183985Y-123368251D01*
X142165608Y-123353169D01*
X142020716Y-123275722D01*
X141863500Y-123228031D01*
X141700000Y-123211928D01*
X141300000Y-123211928D01*
X141136500Y-123228031D01*
X140979284Y-123275722D01*
X140834392Y-123353169D01*
X140707394Y-123457394D01*
X140603169Y-123584392D01*
X140525722Y-123729284D01*
X140478031Y-123886500D01*
X140461928Y-124050000D01*
X138526950Y-124050000D01*
X138520648Y-124004567D01*
X138453155Y-123810164D01*
X138349033Y-123632664D01*
X138212283Y-123478888D01*
X138048160Y-123354745D01*
X137862972Y-123265006D01*
X137786123Y-123255334D01*
X137627000Y-123383002D01*
X137373000Y-123383002D01*
X137213877Y-123255334D01*
X137137028Y-123265006D01*
X136951840Y-123354745D01*
X136933985Y-123368251D01*
X136915608Y-123353169D01*
X136770716Y-123275722D01*
X136613500Y-123228031D01*
X136450000Y-123211928D01*
X136050000Y-123211928D01*
X135886500Y-123228031D01*
X135729284Y-123275722D01*
X135584392Y-123353169D01*
X135457394Y-123457394D01*
X135353169Y-123584392D01*
X135275722Y-123729284D01*
X135228031Y-123886500D01*
X135211928Y-124050000D01*
X133276950Y-124050000D01*
X133270648Y-124004567D01*
X133203155Y-123810164D01*
X133099033Y-123632664D01*
X132962283Y-123478888D01*
X132798160Y-123354745D01*
X132612972Y-123265006D01*
X132536123Y-123255334D01*
X132377000Y-123383002D01*
X132123000Y-123383002D01*
X131963877Y-123255334D01*
X131887028Y-123265006D01*
X131701840Y-123354745D01*
X131683985Y-123368251D01*
X131665608Y-123353169D01*
X131520716Y-123275722D01*
X131363500Y-123228031D01*
X131200000Y-123211928D01*
X130800000Y-123211928D01*
X130636500Y-123228031D01*
X130479284Y-123275722D01*
X130334392Y-123353169D01*
X130207394Y-123457394D01*
X130103169Y-123584392D01*
X130025722Y-123729284D01*
X129978031Y-123886500D01*
X129961928Y-124050000D01*
X123238721Y-124050000D01*
X123303937Y-123984784D01*
X123417205Y-123815266D01*
X123495226Y-123626908D01*
X123535000Y-123426949D01*
X123535000Y-123223071D01*
X123495226Y-123023112D01*
X123417205Y-122834754D01*
X123397624Y-122805448D01*
X124430000Y-122805448D01*
X124430000Y-122994552D01*
X124466892Y-123180022D01*
X124539259Y-123354731D01*
X124644319Y-123511964D01*
X124778036Y-123645681D01*
X124935269Y-123750741D01*
X125109978Y-123823108D01*
X125295448Y-123860000D01*
X125484552Y-123860000D01*
X125670022Y-123823108D01*
X125844731Y-123750741D01*
X125962884Y-123671794D01*
X126107236Y-123812369D01*
X126295024Y-123934276D01*
X126518126Y-124014119D01*
X126693000Y-123887954D01*
X126693000Y-122497000D01*
X126947000Y-122497000D01*
X126947000Y-123887954D01*
X127121874Y-124014119D01*
X127344976Y-123934276D01*
X127532764Y-123812369D01*
X127693161Y-123656169D01*
X127820003Y-123471678D01*
X127908415Y-123265987D01*
X127955000Y-123047000D01*
X127955000Y-122497000D01*
X126947000Y-122497000D01*
X126693000Y-122497000D01*
X126673000Y-122497000D01*
X126673000Y-122243000D01*
X126693000Y-122243000D01*
X126693000Y-120852046D01*
X126947000Y-120852046D01*
X126947000Y-122243000D01*
X127955000Y-122243000D01*
X127955000Y-121693000D01*
X127919350Y-121525413D01*
X181754192Y-121525413D01*
X181849956Y-121789814D01*
X182139571Y-121930704D01*
X182451108Y-122012384D01*
X182772595Y-122031718D01*
X183091675Y-121987961D01*
X183396088Y-121882795D01*
X183570044Y-121789814D01*
X183665808Y-121525413D01*
X186834192Y-121525413D01*
X186929956Y-121789814D01*
X187219571Y-121930704D01*
X187531108Y-122012384D01*
X187852595Y-122031718D01*
X188171675Y-121987961D01*
X188476088Y-121882795D01*
X188650044Y-121789814D01*
X188745808Y-121525413D01*
X187790000Y-120569605D01*
X186834192Y-121525413D01*
X183665808Y-121525413D01*
X182710000Y-120569605D01*
X181754192Y-121525413D01*
X127919350Y-121525413D01*
X127908415Y-121474013D01*
X127820003Y-121268322D01*
X127693161Y-121083831D01*
X127532764Y-120927631D01*
X127344976Y-120805724D01*
X127121874Y-120725881D01*
X126947000Y-120852046D01*
X126693000Y-120852046D01*
X126518126Y-120725881D01*
X126295024Y-120805724D01*
X126107236Y-120927631D01*
X125946839Y-121083831D01*
X125819997Y-121268322D01*
X125731585Y-121474013D01*
X125685000Y-121693000D01*
X125685000Y-121983096D01*
X125670022Y-121976892D01*
X125484552Y-121940000D01*
X125295448Y-121940000D01*
X125109978Y-121976892D01*
X124935269Y-122049259D01*
X124778036Y-122154319D01*
X124644319Y-122288036D01*
X124539259Y-122445269D01*
X124466892Y-122619978D01*
X124430000Y-122805448D01*
X123397624Y-122805448D01*
X123335000Y-122711725D01*
X123335000Y-120452595D01*
X181068282Y-120452595D01*
X181112039Y-120771675D01*
X181217205Y-121076088D01*
X181310186Y-121250044D01*
X181574587Y-121345808D01*
X182530395Y-120390000D01*
X182889605Y-120390000D01*
X183845413Y-121345808D01*
X184109814Y-121250044D01*
X184250704Y-120960429D01*
X184332384Y-120648892D01*
X184344189Y-120452595D01*
X186148282Y-120452595D01*
X186192039Y-120771675D01*
X186297205Y-121076088D01*
X186390186Y-121250044D01*
X186654587Y-121345808D01*
X187610395Y-120390000D01*
X187969605Y-120390000D01*
X188925413Y-121345808D01*
X189189814Y-121250044D01*
X189330704Y-120960429D01*
X189412384Y-120648892D01*
X189431718Y-120327405D01*
X189387961Y-120008325D01*
X189282795Y-119703912D01*
X189189814Y-119529956D01*
X188925413Y-119434192D01*
X187969605Y-120390000D01*
X187610395Y-120390000D01*
X186654587Y-119434192D01*
X186390186Y-119529956D01*
X186249296Y-119819571D01*
X186167616Y-120131108D01*
X186148282Y-120452595D01*
X184344189Y-120452595D01*
X184351718Y-120327405D01*
X184307961Y-120008325D01*
X184202795Y-119703912D01*
X184109814Y-119529956D01*
X183845413Y-119434192D01*
X182889605Y-120390000D01*
X182530395Y-120390000D01*
X181574587Y-119434192D01*
X181310186Y-119529956D01*
X181169296Y-119819571D01*
X181087616Y-120131108D01*
X181068282Y-120452595D01*
X123335000Y-120452595D01*
X123335000Y-119843285D01*
X123417205Y-119720256D01*
X123495226Y-119531898D01*
X123535000Y-119331939D01*
X123535000Y-119254587D01*
X181754192Y-119254587D01*
X182710000Y-120210395D01*
X183665808Y-119254587D01*
X186834192Y-119254587D01*
X187790000Y-120210395D01*
X188745808Y-119254587D01*
X188650044Y-118990186D01*
X188360429Y-118849296D01*
X188048892Y-118767616D01*
X187727405Y-118748282D01*
X187408325Y-118792039D01*
X187103912Y-118897205D01*
X186929956Y-118990186D01*
X186834192Y-119254587D01*
X183665808Y-119254587D01*
X183570044Y-118990186D01*
X183280429Y-118849296D01*
X182968892Y-118767616D01*
X182647405Y-118748282D01*
X182328325Y-118792039D01*
X182023912Y-118897205D01*
X181849956Y-118990186D01*
X181754192Y-119254587D01*
X123535000Y-119254587D01*
X123535000Y-119128061D01*
X123495226Y-118928102D01*
X123417205Y-118739744D01*
X123303937Y-118570226D01*
X123159774Y-118426063D01*
X122990256Y-118312795D01*
X122801898Y-118234774D01*
X122601939Y-118195000D01*
X122398061Y-118195000D01*
X122198102Y-118234774D01*
X122009744Y-118312795D01*
X121840226Y-118426063D01*
X121696063Y-118570226D01*
X121582795Y-118739744D01*
X121504774Y-118928102D01*
X121465000Y-119128061D01*
X102710000Y-119128061D01*
X102710000Y-107148061D01*
X115935000Y-107148061D01*
X115935000Y-107351939D01*
X115974774Y-107551898D01*
X116052795Y-107740256D01*
X116166063Y-107909774D01*
X116310226Y-108053937D01*
X116479744Y-108167205D01*
X116668102Y-108245226D01*
X116868061Y-108285000D01*
X117071939Y-108285000D01*
X117271898Y-108245226D01*
X117460256Y-108167205D01*
X117629774Y-108053937D01*
X117673711Y-108010000D01*
X119106289Y-108010000D01*
X119150226Y-108053937D01*
X119319744Y-108167205D01*
X119508102Y-108245226D01*
X119708061Y-108285000D01*
X119911939Y-108285000D01*
X120111898Y-108245226D01*
X120300256Y-108167205D01*
X120469774Y-108053937D01*
X120613937Y-107909774D01*
X120727205Y-107740256D01*
X120805226Y-107551898D01*
X120845000Y-107351939D01*
X120845000Y-107148061D01*
X120805226Y-106948102D01*
X120727205Y-106759744D01*
X120613937Y-106590226D01*
X120469774Y-106446063D01*
X120300256Y-106332795D01*
X120111898Y-106254774D01*
X119911939Y-106215000D01*
X119708061Y-106215000D01*
X119508102Y-106254774D01*
X119319744Y-106332795D01*
X119150226Y-106446063D01*
X119106289Y-106490000D01*
X117673711Y-106490000D01*
X117629774Y-106446063D01*
X117460256Y-106332795D01*
X117271898Y-106254774D01*
X117071939Y-106215000D01*
X116868061Y-106215000D01*
X116668102Y-106254774D01*
X116479744Y-106332795D01*
X116310226Y-106446063D01*
X116166063Y-106590226D01*
X116052795Y-106759744D01*
X115974774Y-106948102D01*
X115935000Y-107148061D01*
X102710000Y-107148061D01*
X102710000Y-100440000D01*
X128871928Y-100440000D01*
X128871928Y-102140000D01*
X128884188Y-102264482D01*
X128920498Y-102384180D01*
X128979463Y-102494494D01*
X129058815Y-102591185D01*
X129155506Y-102670537D01*
X129265820Y-102729502D01*
X129385518Y-102765812D01*
X129510000Y-102778072D01*
X131210000Y-102778072D01*
X131334482Y-102765812D01*
X131454180Y-102729502D01*
X131564494Y-102670537D01*
X131661185Y-102591185D01*
X131740537Y-102494494D01*
X131799502Y-102384180D01*
X131823966Y-102303534D01*
X131899731Y-102387588D01*
X132133080Y-102561641D01*
X132395901Y-102686825D01*
X132543110Y-102731476D01*
X132773000Y-102610155D01*
X132773000Y-101417000D01*
X132753000Y-101417000D01*
X132753000Y-101163000D01*
X132773000Y-101163000D01*
X132773000Y-98877000D01*
X132753000Y-98877000D01*
X132753000Y-98623000D01*
X132773000Y-98623000D01*
X132773000Y-97429845D01*
X133027000Y-97429845D01*
X133027000Y-98623000D01*
X133047000Y-98623000D01*
X133047000Y-98877000D01*
X133027000Y-98877000D01*
X133027000Y-101163000D01*
X133047000Y-101163000D01*
X133047000Y-101417000D01*
X133027000Y-101417000D01*
X133027000Y-102610155D01*
X133256890Y-102731476D01*
X133404099Y-102686825D01*
X133666920Y-102561641D01*
X133900269Y-102387588D01*
X134095178Y-102171355D01*
X134164805Y-102054466D01*
X134286525Y-102236632D01*
X134493368Y-102443475D01*
X134736589Y-102605990D01*
X135006842Y-102717932D01*
X135293740Y-102775000D01*
X135586260Y-102775000D01*
X135873158Y-102717932D01*
X136143411Y-102605990D01*
X136386632Y-102443475D01*
X136593475Y-102236632D01*
X136710000Y-102062240D01*
X136826525Y-102236632D01*
X137033368Y-102443475D01*
X137276589Y-102605990D01*
X137546842Y-102717932D01*
X137833740Y-102775000D01*
X138126260Y-102775000D01*
X138413158Y-102717932D01*
X138683411Y-102605990D01*
X138926632Y-102443475D01*
X139133475Y-102236632D01*
X139255195Y-102054466D01*
X139324822Y-102171355D01*
X139519731Y-102387588D01*
X139753080Y-102561641D01*
X140015901Y-102686825D01*
X140163110Y-102731476D01*
X140393000Y-102610155D01*
X140393000Y-101417000D01*
X140647000Y-101417000D01*
X140647000Y-102610155D01*
X140876890Y-102731476D01*
X141024099Y-102686825D01*
X141286920Y-102561641D01*
X141520269Y-102387588D01*
X141715178Y-102171355D01*
X141864157Y-101921252D01*
X141961481Y-101646891D01*
X141840814Y-101417000D01*
X140647000Y-101417000D01*
X140393000Y-101417000D01*
X140373000Y-101417000D01*
X140373000Y-101163000D01*
X140393000Y-101163000D01*
X140393000Y-98877000D01*
X140647000Y-98877000D01*
X140647000Y-101163000D01*
X141840814Y-101163000D01*
X141961481Y-100933109D01*
X141864157Y-100658748D01*
X141715178Y-100408645D01*
X141520269Y-100192412D01*
X141289120Y-100020000D01*
X141520269Y-99847588D01*
X141715178Y-99631355D01*
X141864157Y-99381252D01*
X141961481Y-99106891D01*
X141840814Y-98877000D01*
X140647000Y-98877000D01*
X140393000Y-98877000D01*
X140373000Y-98877000D01*
X140373000Y-98623000D01*
X140393000Y-98623000D01*
X140393000Y-97429845D01*
X140647000Y-97429845D01*
X140647000Y-98623000D01*
X141840814Y-98623000D01*
X141961481Y-98393109D01*
X141864157Y-98118748D01*
X141715178Y-97868645D01*
X141520269Y-97652412D01*
X141286920Y-97478359D01*
X141024099Y-97353175D01*
X140876890Y-97308524D01*
X140647000Y-97429845D01*
X140393000Y-97429845D01*
X140163110Y-97308524D01*
X140015901Y-97353175D01*
X139753080Y-97478359D01*
X139519731Y-97652412D01*
X139324822Y-97868645D01*
X139255195Y-97985534D01*
X139133475Y-97803368D01*
X138926632Y-97596525D01*
X138683411Y-97434010D01*
X138413158Y-97322068D01*
X138126260Y-97265000D01*
X137833740Y-97265000D01*
X137546842Y-97322068D01*
X137276589Y-97434010D01*
X137033368Y-97596525D01*
X136826525Y-97803368D01*
X136710000Y-97977760D01*
X136593475Y-97803368D01*
X136386632Y-97596525D01*
X136143411Y-97434010D01*
X135873158Y-97322068D01*
X135586260Y-97265000D01*
X135293740Y-97265000D01*
X135006842Y-97322068D01*
X134736589Y-97434010D01*
X134493368Y-97596525D01*
X134286525Y-97803368D01*
X134164805Y-97985534D01*
X134095178Y-97868645D01*
X133900269Y-97652412D01*
X133666920Y-97478359D01*
X133404099Y-97353175D01*
X133256890Y-97308524D01*
X133027000Y-97429845D01*
X132773000Y-97429845D01*
X132543110Y-97308524D01*
X132395901Y-97353175D01*
X132133080Y-97478359D01*
X131899731Y-97652412D01*
X131704822Y-97868645D01*
X131635195Y-97985534D01*
X131513475Y-97803368D01*
X131306632Y-97596525D01*
X131063411Y-97434010D01*
X130793158Y-97322068D01*
X130506260Y-97265000D01*
X130213740Y-97265000D01*
X129926842Y-97322068D01*
X129656589Y-97434010D01*
X129413368Y-97596525D01*
X129206525Y-97803368D01*
X129044010Y-98046589D01*
X128932068Y-98316842D01*
X128875000Y-98603740D01*
X128875000Y-98896260D01*
X128932068Y-99183158D01*
X129044010Y-99453411D01*
X129206525Y-99696632D01*
X129338380Y-99828487D01*
X129265820Y-99850498D01*
X129155506Y-99909463D01*
X129058815Y-99988815D01*
X128979463Y-100085506D01*
X128920498Y-100195820D01*
X128884188Y-100315518D01*
X128871928Y-100440000D01*
X102710000Y-100440000D01*
X102710000Y-93652408D01*
X122573000Y-93652408D01*
X122573000Y-93927592D01*
X122626686Y-94197490D01*
X122731995Y-94451727D01*
X122884880Y-94680535D01*
X123079465Y-94875120D01*
X123308273Y-95028005D01*
X123562510Y-95133314D01*
X123832408Y-95187000D01*
X124107592Y-95187000D01*
X124377490Y-95133314D01*
X124631727Y-95028005D01*
X124860535Y-94875120D01*
X124980090Y-94755565D01*
X125724040Y-94755565D01*
X125791020Y-94995656D01*
X126040048Y-95112756D01*
X126307135Y-95179023D01*
X126582017Y-95191910D01*
X126854133Y-95150922D01*
X127113023Y-95057636D01*
X127228980Y-94995656D01*
X127295960Y-94755565D01*
X126510000Y-93969605D01*
X125724040Y-94755565D01*
X124980090Y-94755565D01*
X125055120Y-94680535D01*
X125208005Y-94451727D01*
X125237692Y-94380057D01*
X125242364Y-94393023D01*
X125304344Y-94508980D01*
X125544435Y-94575960D01*
X126330395Y-93790000D01*
X126689605Y-93790000D01*
X127475565Y-94575960D01*
X127715656Y-94508980D01*
X127832756Y-94259952D01*
X127899023Y-93992865D01*
X127911910Y-93717983D01*
X127870922Y-93445867D01*
X127777636Y-93186977D01*
X127715656Y-93071020D01*
X127475565Y-93004040D01*
X126689605Y-93790000D01*
X126330395Y-93790000D01*
X125544435Y-93004040D01*
X125304344Y-93071020D01*
X125240515Y-93206760D01*
X125208005Y-93128273D01*
X125055120Y-92899465D01*
X124980090Y-92824435D01*
X125724040Y-92824435D01*
X126510000Y-93610395D01*
X127295960Y-92824435D01*
X127228980Y-92584344D01*
X126979952Y-92467244D01*
X126712865Y-92400977D01*
X126437983Y-92388090D01*
X126165867Y-92429078D01*
X125906977Y-92522364D01*
X125791020Y-92584344D01*
X125724040Y-92824435D01*
X124980090Y-92824435D01*
X124860535Y-92704880D01*
X124631727Y-92551995D01*
X124377490Y-92446686D01*
X124107592Y-92393000D01*
X123832408Y-92393000D01*
X123562510Y-92446686D01*
X123308273Y-92551995D01*
X123079465Y-92704880D01*
X122884880Y-92899465D01*
X122731995Y-93128273D01*
X122626686Y-93382510D01*
X122573000Y-93652408D01*
X102710000Y-93652408D01*
X102710000Y-85713740D01*
X104155000Y-85713740D01*
X104155000Y-86006260D01*
X104212068Y-86293158D01*
X104324010Y-86563411D01*
X104486525Y-86806632D01*
X104693368Y-87013475D01*
X104936589Y-87175990D01*
X105206842Y-87287932D01*
X105493740Y-87345000D01*
X105786260Y-87345000D01*
X106073158Y-87287932D01*
X106343411Y-87175990D01*
X106586632Y-87013475D01*
X106718487Y-86881620D01*
X106740498Y-86954180D01*
X106799463Y-87064494D01*
X106878815Y-87161185D01*
X106975506Y-87240537D01*
X107085820Y-87299502D01*
X107205518Y-87335812D01*
X107330000Y-87348072D01*
X109030000Y-87348072D01*
X109154482Y-87335812D01*
X109274180Y-87299502D01*
X109384494Y-87240537D01*
X109481185Y-87161185D01*
X109560537Y-87064494D01*
X109619502Y-86954180D01*
X109655812Y-86834482D01*
X109668072Y-86710000D01*
X109668072Y-85010000D01*
X109655812Y-84885518D01*
X109619502Y-84765820D01*
X109560537Y-84655506D01*
X109481185Y-84558815D01*
X109384494Y-84479463D01*
X109274180Y-84420498D01*
X109154482Y-84384188D01*
X109030000Y-84371928D01*
X107330000Y-84371928D01*
X107205518Y-84384188D01*
X107085820Y-84420498D01*
X106975506Y-84479463D01*
X106878815Y-84558815D01*
X106799463Y-84655506D01*
X106740498Y-84765820D01*
X106718487Y-84838380D01*
X106586632Y-84706525D01*
X106343411Y-84544010D01*
X106073158Y-84432068D01*
X105786260Y-84375000D01*
X105493740Y-84375000D01*
X105206842Y-84432068D01*
X104936589Y-84544010D01*
X104693368Y-84706525D01*
X104486525Y-84913368D01*
X104324010Y-85156589D01*
X104212068Y-85426842D01*
X104155000Y-85713740D01*
X102710000Y-85713740D01*
X102710000Y-75804495D01*
X104015000Y-75804495D01*
X104015000Y-76195505D01*
X104091282Y-76579003D01*
X104240915Y-76940250D01*
X104458149Y-77265364D01*
X104734636Y-77541851D01*
X105059750Y-77759085D01*
X105420997Y-77908718D01*
X105804495Y-77985000D01*
X106195505Y-77985000D01*
X106579003Y-77908718D01*
X106940250Y-77759085D01*
X107265364Y-77541851D01*
X107541851Y-77265364D01*
X107759085Y-76940250D01*
X107908718Y-76579003D01*
X107985000Y-76195505D01*
X107985000Y-75804495D01*
X107908718Y-75420997D01*
X107759085Y-75059750D01*
X107541851Y-74734636D01*
X107265364Y-74458149D01*
X106940250Y-74240915D01*
X106579003Y-74091282D01*
X106195505Y-74015000D01*
X105804495Y-74015000D01*
X105420997Y-74091282D01*
X105059750Y-74240915D01*
X104734636Y-74458149D01*
X104458149Y-74734636D01*
X104240915Y-75059750D01*
X104091282Y-75420997D01*
X104015000Y-75804495D01*
X102710000Y-75804495D01*
X102710000Y-74034721D01*
X102737907Y-73750101D01*
X102810484Y-73509715D01*
X102928368Y-73288009D01*
X103087068Y-73093423D01*
X103280545Y-72933365D01*
X103501424Y-72813936D01*
X103741297Y-72739683D01*
X104023716Y-72710000D01*
X116038812Y-72710000D01*
X115995525Y-72745525D01*
G37*
G04 #@! TD.AperFunction*
M02*
