G04 #@! TF.GenerationSoftware,KiCad,Pcbnew,5.1.8-db9833491~87~ubuntu20.04.1*
G04 #@! TF.CreationDate,2020-11-19T12:33:46+01:00*
G04 #@! TF.ProjectId,lucy,6c756379-2e6b-4696-9361-645f70636258,v1.0*
G04 #@! TF.SameCoordinates,Original*
G04 #@! TF.FileFunction,Legend,Top*
G04 #@! TF.FilePolarity,Positive*
%FSLAX46Y46*%
G04 Gerber Fmt 4.6, Leading zero omitted, Abs format (unit mm)*
G04 Created by KiCad (PCBNEW 5.1.8-db9833491~87~ubuntu20.04.1) date 2020-11-19 12:33:46*
%MOMM*%
%LPD*%
G01*
G04 APERTURE LIST*
%ADD10C,0.300000*%
%ADD11C,0.150000*%
%ADD12C,0.200000*%
%ADD13C,0.120000*%
G04 APERTURE END LIST*
D10*
X143031428Y-125518571D02*
X143031428Y-126590000D01*
X142960000Y-126804285D01*
X142817142Y-126947142D01*
X142602857Y-127018571D01*
X142460000Y-127018571D01*
X144460000Y-127018571D02*
X143745714Y-127018571D01*
X143745714Y-125518571D01*
X145817142Y-126875714D02*
X145745714Y-126947142D01*
X145531428Y-127018571D01*
X145388571Y-127018571D01*
X145174285Y-126947142D01*
X145031428Y-126804285D01*
X144960000Y-126661428D01*
X144888571Y-126375714D01*
X144888571Y-126161428D01*
X144960000Y-125875714D01*
X145031428Y-125732857D01*
X145174285Y-125590000D01*
X145388571Y-125518571D01*
X145531428Y-125518571D01*
X145745714Y-125590000D01*
X145817142Y-125661428D01*
X146888571Y-125518571D02*
X146888571Y-126590000D01*
X146817142Y-126804285D01*
X146674285Y-126947142D01*
X146460000Y-127018571D01*
X146317142Y-127018571D01*
X148317142Y-127018571D02*
X147602857Y-127018571D01*
X147602857Y-125518571D01*
X149674285Y-126875714D02*
X149602857Y-126947142D01*
X149388571Y-127018571D01*
X149245714Y-127018571D01*
X149031428Y-126947142D01*
X148888571Y-126804285D01*
X148817142Y-126661428D01*
X148745714Y-126375714D01*
X148745714Y-126161428D01*
X148817142Y-125875714D01*
X148888571Y-125732857D01*
X149031428Y-125590000D01*
X149245714Y-125518571D01*
X149388571Y-125518571D01*
X149602857Y-125590000D01*
X149674285Y-125661428D01*
X150745714Y-125518571D02*
X150745714Y-126590000D01*
X150674285Y-126804285D01*
X150531428Y-126947142D01*
X150317142Y-127018571D01*
X150174285Y-127018571D01*
X152174285Y-127018571D02*
X151460000Y-127018571D01*
X151460000Y-125518571D01*
X153531428Y-126875714D02*
X153460000Y-126947142D01*
X153245714Y-127018571D01*
X153102857Y-127018571D01*
X152888571Y-126947142D01*
X152745714Y-126804285D01*
X152674285Y-126661428D01*
X152602857Y-126375714D01*
X152602857Y-126161428D01*
X152674285Y-125875714D01*
X152745714Y-125732857D01*
X152888571Y-125590000D01*
X153102857Y-125518571D01*
X153245714Y-125518571D01*
X153460000Y-125590000D01*
X153531428Y-125661428D01*
X154602857Y-125518571D02*
X154602857Y-126590000D01*
X154531428Y-126804285D01*
X154388571Y-126947142D01*
X154174285Y-127018571D01*
X154031428Y-127018571D01*
X156031428Y-127018571D02*
X155317142Y-127018571D01*
X155317142Y-125518571D01*
X157388571Y-126875714D02*
X157317142Y-126947142D01*
X157102857Y-127018571D01*
X156960000Y-127018571D01*
X156745714Y-126947142D01*
X156602857Y-126804285D01*
X156531428Y-126661428D01*
X156460000Y-126375714D01*
X156460000Y-126161428D01*
X156531428Y-125875714D01*
X156602857Y-125732857D01*
X156745714Y-125590000D01*
X156960000Y-125518571D01*
X157102857Y-125518571D01*
X157317142Y-125590000D01*
X157388571Y-125661428D01*
X115273809Y-75285714D02*
X112226190Y-75285714D01*
X113750000Y-76809523D02*
X113750000Y-73761904D01*
X187523809Y-75285714D02*
X184476190Y-75285714D01*
X106319642Y-93344285D02*
X106319642Y-92272857D01*
X108569642Y-92272857D01*
X107819642Y-95058571D02*
X106319642Y-95058571D01*
X107819642Y-94094285D02*
X106641071Y-94094285D01*
X106426785Y-94201428D01*
X106319642Y-94415714D01*
X106319642Y-94737142D01*
X106426785Y-94951428D01*
X106533928Y-95058571D01*
X106426785Y-97094285D02*
X106319642Y-96880000D01*
X106319642Y-96451428D01*
X106426785Y-96237142D01*
X106533928Y-96130000D01*
X106748214Y-96022857D01*
X107391071Y-96022857D01*
X107605357Y-96130000D01*
X107712500Y-96237142D01*
X107819642Y-96451428D01*
X107819642Y-96880000D01*
X107712500Y-97094285D01*
X107819642Y-97844285D02*
X106319642Y-98380000D01*
X107819642Y-98915714D02*
X106319642Y-98380000D01*
X105783928Y-98165714D01*
X105676785Y-98058571D01*
X105569642Y-97844285D01*
X107819642Y-101272857D02*
X106319642Y-101808571D01*
X107819642Y-102344285D01*
X106319642Y-104380000D02*
X106319642Y-103094285D01*
X106319642Y-103737142D02*
X108569642Y-103737142D01*
X108248214Y-103522857D01*
X108033928Y-103308571D01*
X107926785Y-103094285D01*
X106533928Y-105344285D02*
X106426785Y-105451428D01*
X106319642Y-105344285D01*
X106426785Y-105237142D01*
X106533928Y-105344285D01*
X106319642Y-105344285D01*
X108569642Y-106844285D02*
X108569642Y-107058571D01*
X108462500Y-107272857D01*
X108355357Y-107380000D01*
X108141071Y-107487142D01*
X107712500Y-107594285D01*
X107176785Y-107594285D01*
X106748214Y-107487142D01*
X106533928Y-107380000D01*
X106426785Y-107272857D01*
X106319642Y-107058571D01*
X106319642Y-106844285D01*
X106426785Y-106630000D01*
X106533928Y-106522857D01*
X106748214Y-106415714D01*
X107176785Y-106308571D01*
X107712500Y-106308571D01*
X108141071Y-106415714D01*
X108355357Y-106522857D01*
X108462500Y-106630000D01*
X108569642Y-106844285D01*
X104144642Y-90130000D02*
X102644642Y-90558571D01*
X103716071Y-90987142D01*
X102644642Y-91415714D01*
X104144642Y-91844285D01*
X104144642Y-92487142D02*
X102644642Y-92915714D01*
X103716071Y-93344285D01*
X102644642Y-93772857D01*
X104144642Y-94201428D01*
X104144642Y-94844285D02*
X102644642Y-95272857D01*
X103716071Y-95701428D01*
X102644642Y-96130000D01*
X104144642Y-96558571D01*
X102858928Y-97415714D02*
X102751785Y-97522857D01*
X102644642Y-97415714D01*
X102751785Y-97308571D01*
X102858928Y-97415714D01*
X102644642Y-97415714D01*
X104680357Y-98380000D02*
X104787500Y-98487142D01*
X104894642Y-98701428D01*
X104894642Y-99237142D01*
X104787500Y-99451428D01*
X104680357Y-99558571D01*
X104466071Y-99665714D01*
X104251785Y-99665714D01*
X103930357Y-99558571D01*
X102644642Y-98272857D01*
X102644642Y-99665714D01*
X103501785Y-100630000D02*
X103501785Y-102344285D01*
X104894642Y-103844285D02*
X104894642Y-104058571D01*
X104787500Y-104272857D01*
X104680357Y-104380000D01*
X104466071Y-104487142D01*
X104037500Y-104594285D01*
X103501785Y-104594285D01*
X103073214Y-104487142D01*
X102858928Y-104380000D01*
X102751785Y-104272857D01*
X102644642Y-104058571D01*
X102644642Y-103844285D01*
X102751785Y-103630000D01*
X102858928Y-103522857D01*
X103073214Y-103415714D01*
X103501785Y-103308571D01*
X104037500Y-103308571D01*
X104466071Y-103415714D01*
X104680357Y-103522857D01*
X104787500Y-103630000D01*
X104894642Y-103844285D01*
X102858928Y-105558571D02*
X102751785Y-105665714D01*
X102644642Y-105558571D01*
X102751785Y-105451428D01*
X102858928Y-105558571D01*
X102644642Y-105558571D01*
X102644642Y-107594285D02*
X104894642Y-107594285D01*
X102751785Y-107594285D02*
X102644642Y-107380000D01*
X102644642Y-106951428D01*
X102751785Y-106737142D01*
X102858928Y-106630000D01*
X103073214Y-106522857D01*
X103716071Y-106522857D01*
X103930357Y-106630000D01*
X104037500Y-106737142D01*
X104144642Y-106951428D01*
X104144642Y-107380000D01*
X104037500Y-107594285D01*
X102644642Y-108665714D02*
X104894642Y-108665714D01*
X103501785Y-108880000D02*
X102644642Y-109522857D01*
X104144642Y-109522857D02*
X103287500Y-108665714D01*
D11*
X181250000Y-126930000D02*
X181250000Y-118930000D01*
X189250000Y-126930000D02*
X181250000Y-126930000D01*
X189250000Y-118930000D02*
X189250000Y-126930000D01*
X181250000Y-118930000D02*
X189250000Y-118930000D01*
D12*
X116365000Y-107955000D02*
X114840000Y-107955000D01*
D13*
X117800000Y-129400000D02*
X127200000Y-129400000D01*
X127200000Y-123600000D02*
X127200000Y-125600000D01*
X127200000Y-127500000D02*
X127200000Y-129400000D01*
X117800000Y-123600000D02*
X117800000Y-125600000D01*
X117800000Y-127500000D02*
X117800000Y-129400000D01*
D11*
X116000000Y-73000000D02*
X184000000Y-73000000D01*
X184000000Y-73000000D02*
X184000000Y-91000000D01*
X184000000Y-91000000D02*
X116000000Y-91000000D01*
X116000000Y-91000000D02*
X116000000Y-73000000D01*
X116000000Y-86400000D02*
X112100000Y-86400000D01*
X112100000Y-86400000D02*
X112100000Y-77600000D01*
X112100000Y-77600000D02*
X116000000Y-77600000D01*
X192500000Y-96000000D02*
X192500000Y-112000000D01*
X192500000Y-112000000D02*
X176500000Y-112000000D01*
X176500000Y-112000000D02*
X176500000Y-96000000D01*
X176500000Y-96000000D02*
X192500000Y-96000000D01*
X179500000Y-98500000D02*
X185000000Y-98500000D01*
X185000000Y-98500000D02*
X185000000Y-104000000D01*
X185000000Y-104000000D02*
X179500000Y-104000000D01*
X179500000Y-104000000D02*
X179500000Y-98500000D01*
X186000000Y-96500000D02*
X189500000Y-96500000D01*
X189500000Y-96500000D02*
X189500000Y-100500000D01*
X189500000Y-100500000D02*
X186000000Y-100500000D01*
X186000000Y-100500000D02*
X186000000Y-96500000D01*
D13*
X144020000Y-97042779D02*
X144020000Y-96717221D01*
X143000000Y-97042779D02*
X143000000Y-96717221D01*
X152637221Y-106470000D02*
X152962779Y-106470000D01*
X152637221Y-105450000D02*
X152962779Y-105450000D01*
X117930000Y-105512779D02*
X117930000Y-105187221D01*
X116910000Y-105512779D02*
X116910000Y-105187221D01*
X159452779Y-95300000D02*
X159127221Y-95300000D01*
X159452779Y-94280000D02*
X159127221Y-94280000D01*
X194510000Y-103624721D02*
X194510000Y-103950279D01*
X193490000Y-103624721D02*
X193490000Y-103950279D01*
X196410000Y-103528922D02*
X196410000Y-104046078D01*
X194990000Y-103528922D02*
X194990000Y-104046078D01*
X174980000Y-99870000D02*
G75*
G03*
X174980000Y-99870000I-6100000J0D01*
G01*
X149772779Y-107980000D02*
X149447221Y-107980000D01*
X149772779Y-106960000D02*
X149447221Y-106960000D01*
X149772779Y-105450000D02*
X149447221Y-105450000D01*
X149772779Y-106470000D02*
X149447221Y-106470000D01*
X145352779Y-104000000D02*
X145027221Y-104000000D01*
X145352779Y-105020000D02*
X145027221Y-105020000D01*
X154637221Y-94990000D02*
X154962779Y-94990000D01*
X154637221Y-96010000D02*
X154962779Y-96010000D01*
X109360000Y-98911422D02*
X109360000Y-99428578D01*
X110780000Y-98911422D02*
X110780000Y-99428578D01*
X114860000Y-99428578D02*
X114860000Y-98911422D01*
X116280000Y-99428578D02*
X116280000Y-98911422D01*
X177790000Y-125176000D02*
X177790000Y-125020000D01*
X177790000Y-122860000D02*
X177790000Y-122704000D01*
X174557665Y-125018608D02*
G75*
G03*
X177790000Y-125175516I1672335J1078608D01*
G01*
X174557665Y-122861392D02*
G75*
G02*
X177790000Y-122704484I1672335J-1078608D01*
G01*
X175188870Y-125019837D02*
G75*
G03*
X177270961Y-125020000I1041130J1079837D01*
G01*
X175188870Y-122860163D02*
G75*
G02*
X177270961Y-122860000I1041130J-1079837D01*
G01*
X106417936Y-81080000D02*
X107622064Y-81080000D01*
X106417936Y-82900000D02*
X107622064Y-82900000D01*
X159218000Y-98036000D02*
X160148000Y-98036000D01*
X162378000Y-98036000D02*
X161448000Y-98036000D01*
X162378000Y-98036000D02*
X162378000Y-95876000D01*
X159218000Y-98036000D02*
X159218000Y-96576000D01*
X179240000Y-119777221D02*
X179240000Y-120102779D01*
X178220000Y-119777221D02*
X178220000Y-120102779D01*
X174240000Y-120102779D02*
X174240000Y-119777221D01*
X173220000Y-120102779D02*
X173220000Y-119777221D01*
X112707221Y-95410000D02*
X113032779Y-95410000D01*
X112707221Y-96430000D02*
X113032779Y-96430000D01*
D11*
X147800000Y-114125000D02*
X152200000Y-114125000D01*
X146225000Y-108600000D02*
X152200000Y-108600000D01*
D13*
X131822779Y-104390000D02*
X131497221Y-104390000D01*
X131822779Y-103370000D02*
X131497221Y-103370000D01*
X111210000Y-98300000D02*
X111210000Y-100100000D01*
X114430000Y-100100000D02*
X114430000Y-97650000D01*
X155240000Y-111697221D02*
X155240000Y-112022779D01*
X154220000Y-111697221D02*
X154220000Y-112022779D01*
X109670000Y-120132779D02*
X109670000Y-119807221D01*
X110690000Y-120132779D02*
X110690000Y-119807221D01*
X115690000Y-119807221D02*
X115690000Y-120132779D01*
X114670000Y-119807221D02*
X114670000Y-120132779D01*
X119410000Y-116847221D02*
X119410000Y-117172779D01*
X120430000Y-116847221D02*
X120430000Y-117172779D01*
X125600000Y-116837221D02*
X125600000Y-117162779D01*
X124580000Y-116837221D02*
X124580000Y-117162779D01*
X153610000Y-96690000D02*
X153610000Y-96390000D01*
X153610000Y-96390000D02*
X153310000Y-96390000D01*
X153610000Y-103310000D02*
X153610000Y-103610000D01*
X153610000Y-103610000D02*
X153310000Y-103610000D01*
X146390000Y-96690000D02*
X146390000Y-96390000D01*
X146390000Y-96390000D02*
X146690000Y-96390000D01*
X146390000Y-103310000D02*
X146390000Y-103610000D01*
X146390000Y-103610000D02*
X146690000Y-103610000D01*
X146690000Y-103610000D02*
X146690000Y-104925000D01*
X124110000Y-117900000D02*
X124110000Y-115450000D01*
X120890000Y-116100000D02*
X120890000Y-117900000D01*
X111160000Y-122734000D02*
X111160000Y-122890000D01*
X111160000Y-125050000D02*
X111160000Y-125206000D01*
X114392335Y-122891392D02*
G75*
G03*
X111160000Y-122734484I-1672335J-1078608D01*
G01*
X114392335Y-125048608D02*
G75*
G02*
X111160000Y-125205516I-1672335J1078608D01*
G01*
X113761130Y-122890163D02*
G75*
G03*
X111679039Y-122890000I-1041130J-1079837D01*
G01*
X113761130Y-125049837D02*
G75*
G02*
X111679039Y-125050000I-1041130J1079837D01*
G01*
X112992779Y-111010000D02*
X112667221Y-111010000D01*
X112992779Y-109990000D02*
X112667221Y-109990000D01*
X112992779Y-108480000D02*
X112667221Y-108480000D01*
X112992779Y-109500000D02*
X112667221Y-109500000D01*
X115620000Y-112927936D02*
X115620000Y-114132064D01*
X113800000Y-112927936D02*
X113800000Y-114132064D01*
X130600000Y-120800000D02*
X130600000Y-122650000D01*
X129400000Y-120800000D02*
X129400000Y-122650000D01*
X129400000Y-122650000D02*
X130600000Y-122650000D01*
X134650000Y-122650000D02*
X135850000Y-122650000D01*
X134650000Y-120800000D02*
X134650000Y-122650000D01*
X135850000Y-120800000D02*
X135850000Y-122650000D01*
X141100000Y-120800000D02*
X141100000Y-122650000D01*
X139900000Y-120800000D02*
X139900000Y-122650000D01*
X139900000Y-122650000D02*
X141100000Y-122650000D01*
X145150000Y-122650000D02*
X146350000Y-122650000D01*
X145150000Y-120800000D02*
X145150000Y-122650000D01*
X146350000Y-120800000D02*
X146350000Y-122650000D01*
X150400000Y-122600000D02*
X151600000Y-122600000D01*
X150400000Y-120750000D02*
X150400000Y-122600000D01*
X151600000Y-120750000D02*
X151600000Y-122600000D01*
X156850000Y-120800000D02*
X156850000Y-122650000D01*
X155650000Y-120800000D02*
X155650000Y-122650000D01*
X155650000Y-122650000D02*
X156850000Y-122650000D01*
X160900000Y-122650000D02*
X162100000Y-122650000D01*
X160900000Y-120800000D02*
X160900000Y-122650000D01*
X162100000Y-120800000D02*
X162100000Y-122650000D01*
X167350000Y-120800000D02*
X167350000Y-122650000D01*
X166150000Y-120800000D02*
X166150000Y-122650000D01*
X166150000Y-122650000D02*
X167350000Y-122650000D01*
X104310000Y-84530000D02*
X104310000Y-87190000D01*
X106910000Y-84530000D02*
X104310000Y-84530000D01*
X106910000Y-87190000D02*
X104310000Y-87190000D01*
X106910000Y-84530000D02*
X106910000Y-87190000D01*
X108180000Y-84530000D02*
X109510000Y-84530000D01*
X109510000Y-84530000D02*
X109510000Y-85860000D01*
X162137221Y-94280000D02*
X162462779Y-94280000D01*
X162137221Y-95300000D02*
X162462779Y-95300000D01*
X117920000Y-112927936D02*
X117920000Y-114132064D01*
X116100000Y-112927936D02*
X116100000Y-114132064D01*
X130750000Y-123350000D02*
X130750000Y-123050000D01*
X130750000Y-123050000D02*
X130250000Y-123050000D01*
X131625000Y-123640000D02*
X130460000Y-123640000D01*
X130460000Y-123640000D02*
X130460000Y-123340000D01*
X130460000Y-123340000D02*
X129390000Y-123340000D01*
X129390000Y-123340000D02*
X129390000Y-129060000D01*
X129390000Y-129060000D02*
X131625000Y-129060000D01*
X131625000Y-123640000D02*
X132790000Y-123640000D01*
X132790000Y-123640000D02*
X132790000Y-123340000D01*
X132790000Y-123340000D02*
X133860000Y-123340000D01*
X133860000Y-123340000D02*
X133860000Y-129060000D01*
X133860000Y-129060000D02*
X131625000Y-129060000D01*
X129030000Y-102620000D02*
X129030000Y-101290000D01*
X130360000Y-102620000D02*
X129030000Y-102620000D01*
X129030000Y-100020000D02*
X129030000Y-97420000D01*
X131630000Y-100020000D02*
X129030000Y-100020000D01*
X131630000Y-102620000D02*
X131630000Y-100020000D01*
X129030000Y-97420000D02*
X141850000Y-97420000D01*
X131630000Y-102620000D02*
X141850000Y-102620000D01*
X141850000Y-102620000D02*
X141850000Y-97420000D01*
X139110000Y-129060000D02*
X136875000Y-129060000D01*
X139110000Y-123340000D02*
X139110000Y-129060000D01*
X138040000Y-123340000D02*
X139110000Y-123340000D01*
X138040000Y-123640000D02*
X138040000Y-123340000D01*
X136875000Y-123640000D02*
X138040000Y-123640000D01*
X134640000Y-129060000D02*
X136875000Y-129060000D01*
X134640000Y-123340000D02*
X134640000Y-129060000D01*
X135710000Y-123340000D02*
X134640000Y-123340000D01*
X135710000Y-123640000D02*
X135710000Y-123340000D01*
X136875000Y-123640000D02*
X135710000Y-123640000D01*
X136000000Y-123050000D02*
X135500000Y-123050000D01*
X136000000Y-123350000D02*
X136000000Y-123050000D01*
X141250000Y-123350000D02*
X141250000Y-123050000D01*
X141250000Y-123050000D02*
X140750000Y-123050000D01*
X142125000Y-123640000D02*
X140960000Y-123640000D01*
X140960000Y-123640000D02*
X140960000Y-123340000D01*
X140960000Y-123340000D02*
X139890000Y-123340000D01*
X139890000Y-123340000D02*
X139890000Y-129060000D01*
X139890000Y-129060000D02*
X142125000Y-129060000D01*
X142125000Y-123640000D02*
X143290000Y-123640000D01*
X143290000Y-123640000D02*
X143290000Y-123340000D01*
X143290000Y-123340000D02*
X144360000Y-123340000D01*
X144360000Y-123340000D02*
X144360000Y-129060000D01*
X144360000Y-129060000D02*
X142125000Y-129060000D01*
X149610000Y-129060000D02*
X147375000Y-129060000D01*
X149610000Y-123340000D02*
X149610000Y-129060000D01*
X148540000Y-123340000D02*
X149610000Y-123340000D01*
X148540000Y-123640000D02*
X148540000Y-123340000D01*
X147375000Y-123640000D02*
X148540000Y-123640000D01*
X145140000Y-129060000D02*
X147375000Y-129060000D01*
X145140000Y-123340000D02*
X145140000Y-129060000D01*
X146210000Y-123340000D02*
X145140000Y-123340000D01*
X146210000Y-123640000D02*
X146210000Y-123340000D01*
X147375000Y-123640000D02*
X146210000Y-123640000D01*
X146500000Y-123050000D02*
X146000000Y-123050000D01*
X146500000Y-123350000D02*
X146500000Y-123050000D01*
X154860000Y-129060000D02*
X152625000Y-129060000D01*
X154860000Y-123340000D02*
X154860000Y-129060000D01*
X153790000Y-123340000D02*
X154860000Y-123340000D01*
X153790000Y-123640000D02*
X153790000Y-123340000D01*
X152625000Y-123640000D02*
X153790000Y-123640000D01*
X150390000Y-129060000D02*
X152625000Y-129060000D01*
X150390000Y-123340000D02*
X150390000Y-129060000D01*
X151460000Y-123340000D02*
X150390000Y-123340000D01*
X151460000Y-123640000D02*
X151460000Y-123340000D01*
X152625000Y-123640000D02*
X151460000Y-123640000D01*
X151750000Y-123050000D02*
X151250000Y-123050000D01*
X151750000Y-123350000D02*
X151750000Y-123050000D01*
X157000000Y-123350000D02*
X157000000Y-123050000D01*
X157000000Y-123050000D02*
X156500000Y-123050000D01*
X157875000Y-123640000D02*
X156710000Y-123640000D01*
X156710000Y-123640000D02*
X156710000Y-123340000D01*
X156710000Y-123340000D02*
X155640000Y-123340000D01*
X155640000Y-123340000D02*
X155640000Y-129060000D01*
X155640000Y-129060000D02*
X157875000Y-129060000D01*
X157875000Y-123640000D02*
X159040000Y-123640000D01*
X159040000Y-123640000D02*
X159040000Y-123340000D01*
X159040000Y-123340000D02*
X160110000Y-123340000D01*
X160110000Y-123340000D02*
X160110000Y-129060000D01*
X160110000Y-129060000D02*
X157875000Y-129060000D01*
X165360000Y-129060000D02*
X163125000Y-129060000D01*
X165360000Y-123340000D02*
X165360000Y-129060000D01*
X164290000Y-123340000D02*
X165360000Y-123340000D01*
X164290000Y-123640000D02*
X164290000Y-123340000D01*
X163125000Y-123640000D02*
X164290000Y-123640000D01*
X160890000Y-129060000D02*
X163125000Y-129060000D01*
X160890000Y-123340000D02*
X160890000Y-129060000D01*
X161960000Y-123340000D02*
X160890000Y-123340000D01*
X161960000Y-123640000D02*
X161960000Y-123340000D01*
X163125000Y-123640000D02*
X161960000Y-123640000D01*
X162250000Y-123050000D02*
X161750000Y-123050000D01*
X162250000Y-123350000D02*
X162250000Y-123050000D01*
X167500000Y-123350000D02*
X167500000Y-123050000D01*
X167500000Y-123050000D02*
X167000000Y-123050000D01*
X168375000Y-123640000D02*
X167210000Y-123640000D01*
X167210000Y-123640000D02*
X167210000Y-123340000D01*
X167210000Y-123340000D02*
X166140000Y-123340000D01*
X166140000Y-123340000D02*
X166140000Y-129060000D01*
X166140000Y-129060000D02*
X168375000Y-129060000D01*
X168375000Y-123640000D02*
X169540000Y-123640000D01*
X169540000Y-123640000D02*
X169540000Y-123340000D01*
X169540000Y-123340000D02*
X170610000Y-123340000D01*
X170610000Y-123340000D02*
X170610000Y-129060000D01*
X170610000Y-129060000D02*
X168375000Y-129060000D01*
X127780000Y-95060000D02*
X122700000Y-95060000D01*
X122700000Y-95060000D02*
X122700000Y-92520000D01*
X122700000Y-92520000D02*
X127780000Y-92520000D01*
X127780000Y-92520000D02*
X127780000Y-95060000D01*
D11*
X183630952Y-118096666D02*
X184107142Y-118096666D01*
X183535714Y-118382380D02*
X183869047Y-117382380D01*
X184202380Y-118382380D01*
X184535714Y-118382380D02*
X184535714Y-117382380D01*
X185107142Y-118382380D01*
X185107142Y-117382380D01*
X185440476Y-117382380D02*
X186011904Y-117382380D01*
X185726190Y-118382380D02*
X185726190Y-117382380D01*
X186869047Y-118382380D02*
X186297619Y-118382380D01*
X186583333Y-118382380D02*
X186583333Y-117382380D01*
X186488095Y-117525238D01*
X186392857Y-117620476D01*
X186297619Y-117668095D01*
X115588095Y-108452380D02*
X115588095Y-109261904D01*
X115635714Y-109357142D01*
X115683333Y-109404761D01*
X115778571Y-109452380D01*
X115969047Y-109452380D01*
X116064285Y-109404761D01*
X116111904Y-109357142D01*
X116159523Y-109261904D01*
X116159523Y-108452380D01*
X116540476Y-108452380D02*
X117207142Y-108452380D01*
X116778571Y-109452380D01*
X126676666Y-119342380D02*
X126676666Y-120056666D01*
X126629047Y-120199523D01*
X126533809Y-120294761D01*
X126390952Y-120342380D01*
X126295714Y-120342380D01*
X127629047Y-119342380D02*
X127152857Y-119342380D01*
X127105238Y-119818571D01*
X127152857Y-119770952D01*
X127248095Y-119723333D01*
X127486190Y-119723333D01*
X127581428Y-119770952D01*
X127629047Y-119818571D01*
X127676666Y-119913809D01*
X127676666Y-120151904D01*
X127629047Y-120247142D01*
X127581428Y-120294761D01*
X127486190Y-120342380D01*
X127248095Y-120342380D01*
X127152857Y-120294761D01*
X127105238Y-120247142D01*
X111118571Y-82775714D02*
X111166190Y-82632857D01*
X111213809Y-82585238D01*
X111309047Y-82537619D01*
X111451904Y-82537619D01*
X111547142Y-82585238D01*
X111594761Y-82632857D01*
X111642380Y-82728095D01*
X111642380Y-83109047D01*
X110642380Y-83109047D01*
X110642380Y-82775714D01*
X110690000Y-82680476D01*
X110737619Y-82632857D01*
X110832857Y-82585238D01*
X110928095Y-82585238D01*
X111023333Y-82632857D01*
X111070952Y-82680476D01*
X111118571Y-82775714D01*
X111118571Y-83109047D01*
X110642380Y-82251904D02*
X110642380Y-81680476D01*
X111642380Y-81966190D02*
X110642380Y-81966190D01*
X111642380Y-80823333D02*
X111642380Y-81394761D01*
X111642380Y-81109047D02*
X110642380Y-81109047D01*
X110785238Y-81204285D01*
X110880476Y-81299523D01*
X110928095Y-81394761D01*
X183748095Y-112452380D02*
X183748095Y-113261904D01*
X183795714Y-113357142D01*
X183843333Y-113404761D01*
X183938571Y-113452380D01*
X184129047Y-113452380D01*
X184224285Y-113404761D01*
X184271904Y-113357142D01*
X184319523Y-113261904D01*
X184319523Y-112452380D01*
X185271904Y-112452380D02*
X184795714Y-112452380D01*
X184748095Y-112928571D01*
X184795714Y-112880952D01*
X184890952Y-112833333D01*
X185129047Y-112833333D01*
X185224285Y-112880952D01*
X185271904Y-112928571D01*
X185319523Y-113023809D01*
X185319523Y-113261904D01*
X185271904Y-113357142D01*
X185224285Y-113404761D01*
X185129047Y-113452380D01*
X184890952Y-113452380D01*
X184795714Y-113404761D01*
X184748095Y-113357142D01*
X143353333Y-95192380D02*
X143020000Y-94716190D01*
X142781904Y-95192380D02*
X142781904Y-94192380D01*
X143162857Y-94192380D01*
X143258095Y-94240000D01*
X143305714Y-94287619D01*
X143353333Y-94382857D01*
X143353333Y-94525714D01*
X143305714Y-94620952D01*
X143258095Y-94668571D01*
X143162857Y-94716190D01*
X142781904Y-94716190D01*
X143924761Y-94620952D02*
X143829523Y-94573333D01*
X143781904Y-94525714D01*
X143734285Y-94430476D01*
X143734285Y-94382857D01*
X143781904Y-94287619D01*
X143829523Y-94240000D01*
X143924761Y-94192380D01*
X144115238Y-94192380D01*
X144210476Y-94240000D01*
X144258095Y-94287619D01*
X144305714Y-94382857D01*
X144305714Y-94430476D01*
X144258095Y-94525714D01*
X144210476Y-94573333D01*
X144115238Y-94620952D01*
X143924761Y-94620952D01*
X143829523Y-94668571D01*
X143781904Y-94716190D01*
X143734285Y-94811428D01*
X143734285Y-95001904D01*
X143781904Y-95097142D01*
X143829523Y-95144761D01*
X143924761Y-95192380D01*
X144115238Y-95192380D01*
X144210476Y-95144761D01*
X144258095Y-95097142D01*
X144305714Y-95001904D01*
X144305714Y-94811428D01*
X144258095Y-94716190D01*
X144210476Y-94668571D01*
X144115238Y-94620952D01*
X152623333Y-107832380D02*
X152290000Y-107356190D01*
X152051904Y-107832380D02*
X152051904Y-106832380D01*
X152432857Y-106832380D01*
X152528095Y-106880000D01*
X152575714Y-106927619D01*
X152623333Y-107022857D01*
X152623333Y-107165714D01*
X152575714Y-107260952D01*
X152528095Y-107308571D01*
X152432857Y-107356190D01*
X152051904Y-107356190D01*
X153575714Y-107832380D02*
X153004285Y-107832380D01*
X153290000Y-107832380D02*
X153290000Y-106832380D01*
X153194761Y-106975238D01*
X153099523Y-107070476D01*
X153004285Y-107118095D01*
X119282380Y-105526666D02*
X118806190Y-105860000D01*
X119282380Y-106098095D02*
X118282380Y-106098095D01*
X118282380Y-105717142D01*
X118330000Y-105621904D01*
X118377619Y-105574285D01*
X118472857Y-105526666D01*
X118615714Y-105526666D01*
X118710952Y-105574285D01*
X118758571Y-105621904D01*
X118806190Y-105717142D01*
X118806190Y-106098095D01*
X118377619Y-105145714D02*
X118330000Y-105098095D01*
X118282380Y-105002857D01*
X118282380Y-104764761D01*
X118330000Y-104669523D01*
X118377619Y-104621904D01*
X118472857Y-104574285D01*
X118568095Y-104574285D01*
X118710952Y-104621904D01*
X119282380Y-105193333D01*
X119282380Y-104574285D01*
X159133333Y-93832380D02*
X158800000Y-93356190D01*
X158561904Y-93832380D02*
X158561904Y-92832380D01*
X158942857Y-92832380D01*
X159038095Y-92880000D01*
X159085714Y-92927619D01*
X159133333Y-93022857D01*
X159133333Y-93165714D01*
X159085714Y-93260952D01*
X159038095Y-93308571D01*
X158942857Y-93356190D01*
X158561904Y-93356190D01*
X159990476Y-92832380D02*
X159800000Y-92832380D01*
X159704761Y-92880000D01*
X159657142Y-92927619D01*
X159561904Y-93070476D01*
X159514285Y-93260952D01*
X159514285Y-93641904D01*
X159561904Y-93737142D01*
X159609523Y-93784761D01*
X159704761Y-93832380D01*
X159895238Y-93832380D01*
X159990476Y-93784761D01*
X160038095Y-93737142D01*
X160085714Y-93641904D01*
X160085714Y-93403809D01*
X160038095Y-93308571D01*
X159990476Y-93260952D01*
X159895238Y-93213333D01*
X159704761Y-93213333D01*
X159609523Y-93260952D01*
X159561904Y-93308571D01*
X159514285Y-93403809D01*
X194357142Y-101272857D02*
X194404761Y-101320476D01*
X194452380Y-101463333D01*
X194452380Y-101558571D01*
X194404761Y-101701428D01*
X194309523Y-101796666D01*
X194214285Y-101844285D01*
X194023809Y-101891904D01*
X193880952Y-101891904D01*
X193690476Y-101844285D01*
X193595238Y-101796666D01*
X193500000Y-101701428D01*
X193452380Y-101558571D01*
X193452380Y-101463333D01*
X193500000Y-101320476D01*
X193547619Y-101272857D01*
X194452380Y-100320476D02*
X194452380Y-100891904D01*
X194452380Y-100606190D02*
X193452380Y-100606190D01*
X193595238Y-100701428D01*
X193690476Y-100796666D01*
X193738095Y-100891904D01*
X193452380Y-99987142D02*
X193452380Y-99320476D01*
X194452380Y-99749047D01*
X196082142Y-101372857D02*
X196129761Y-101420476D01*
X196177380Y-101563333D01*
X196177380Y-101658571D01*
X196129761Y-101801428D01*
X196034523Y-101896666D01*
X195939285Y-101944285D01*
X195748809Y-101991904D01*
X195605952Y-101991904D01*
X195415476Y-101944285D01*
X195320238Y-101896666D01*
X195225000Y-101801428D01*
X195177380Y-101658571D01*
X195177380Y-101563333D01*
X195225000Y-101420476D01*
X195272619Y-101372857D01*
X196177380Y-100420476D02*
X196177380Y-100991904D01*
X196177380Y-100706190D02*
X195177380Y-100706190D01*
X195320238Y-100801428D01*
X195415476Y-100896666D01*
X195463095Y-100991904D01*
X195605952Y-99849047D02*
X195558333Y-99944285D01*
X195510714Y-99991904D01*
X195415476Y-100039523D01*
X195367857Y-100039523D01*
X195272619Y-99991904D01*
X195225000Y-99944285D01*
X195177380Y-99849047D01*
X195177380Y-99658571D01*
X195225000Y-99563333D01*
X195272619Y-99515714D01*
X195367857Y-99468095D01*
X195415476Y-99468095D01*
X195510714Y-99515714D01*
X195558333Y-99563333D01*
X195605952Y-99658571D01*
X195605952Y-99849047D01*
X195653571Y-99944285D01*
X195701190Y-99991904D01*
X195796428Y-100039523D01*
X195986904Y-100039523D01*
X196082142Y-99991904D01*
X196129761Y-99944285D01*
X196177380Y-99849047D01*
X196177380Y-99658571D01*
X196129761Y-99563333D01*
X196082142Y-99515714D01*
X195986904Y-99468095D01*
X195796428Y-99468095D01*
X195701190Y-99515714D01*
X195653571Y-99563333D01*
X195605952Y-99658571D01*
X168009047Y-107008571D02*
X168151904Y-107056190D01*
X168199523Y-107103809D01*
X168247142Y-107199047D01*
X168247142Y-107341904D01*
X168199523Y-107437142D01*
X168151904Y-107484761D01*
X168056666Y-107532380D01*
X167675714Y-107532380D01*
X167675714Y-106532380D01*
X168009047Y-106532380D01*
X168104285Y-106580000D01*
X168151904Y-106627619D01*
X168199523Y-106722857D01*
X168199523Y-106818095D01*
X168151904Y-106913333D01*
X168104285Y-106960952D01*
X168009047Y-107008571D01*
X167675714Y-107008571D01*
X168580476Y-106532380D02*
X169247142Y-106532380D01*
X168580476Y-107532380D01*
X169247142Y-107532380D01*
X170151904Y-107532380D02*
X169580476Y-107532380D01*
X169866190Y-107532380D02*
X169866190Y-106532380D01*
X169770952Y-106675238D01*
X169675714Y-106770476D01*
X169580476Y-106818095D01*
X166411428Y-104060952D02*
X166411428Y-103299047D01*
X166792380Y-103680000D02*
X166030476Y-103680000D01*
X145447142Y-107827142D02*
X145399523Y-107874761D01*
X145256666Y-107922380D01*
X145161428Y-107922380D01*
X145018571Y-107874761D01*
X144923333Y-107779523D01*
X144875714Y-107684285D01*
X144828095Y-107493809D01*
X144828095Y-107350952D01*
X144875714Y-107160476D01*
X144923333Y-107065238D01*
X145018571Y-106970000D01*
X145161428Y-106922380D01*
X145256666Y-106922380D01*
X145399523Y-106970000D01*
X145447142Y-107017619D01*
X146399523Y-107922380D02*
X145828095Y-107922380D01*
X146113809Y-107922380D02*
X146113809Y-106922380D01*
X146018571Y-107065238D01*
X145923333Y-107160476D01*
X145828095Y-107208095D01*
X147351904Y-107922380D02*
X146780476Y-107922380D01*
X147066190Y-107922380D02*
X147066190Y-106922380D01*
X146970952Y-107065238D01*
X146875714Y-107160476D01*
X146780476Y-107208095D01*
X145457142Y-106317142D02*
X145409523Y-106364761D01*
X145266666Y-106412380D01*
X145171428Y-106412380D01*
X145028571Y-106364761D01*
X144933333Y-106269523D01*
X144885714Y-106174285D01*
X144838095Y-105983809D01*
X144838095Y-105840952D01*
X144885714Y-105650476D01*
X144933333Y-105555238D01*
X145028571Y-105460000D01*
X145171428Y-105412380D01*
X145266666Y-105412380D01*
X145409523Y-105460000D01*
X145457142Y-105507619D01*
X146409523Y-106412380D02*
X145838095Y-106412380D01*
X146123809Y-106412380D02*
X146123809Y-105412380D01*
X146028571Y-105555238D01*
X145933333Y-105650476D01*
X145838095Y-105698095D01*
X146790476Y-105507619D02*
X146838095Y-105460000D01*
X146933333Y-105412380D01*
X147171428Y-105412380D01*
X147266666Y-105460000D01*
X147314285Y-105507619D01*
X147361904Y-105602857D01*
X147361904Y-105698095D01*
X147314285Y-105840952D01*
X146742857Y-106412380D01*
X147361904Y-106412380D01*
X140937142Y-104877142D02*
X140889523Y-104924761D01*
X140746666Y-104972380D01*
X140651428Y-104972380D01*
X140508571Y-104924761D01*
X140413333Y-104829523D01*
X140365714Y-104734285D01*
X140318095Y-104543809D01*
X140318095Y-104400952D01*
X140365714Y-104210476D01*
X140413333Y-104115238D01*
X140508571Y-104020000D01*
X140651428Y-103972380D01*
X140746666Y-103972380D01*
X140889523Y-104020000D01*
X140937142Y-104067619D01*
X141889523Y-104972380D02*
X141318095Y-104972380D01*
X141603809Y-104972380D02*
X141603809Y-103972380D01*
X141508571Y-104115238D01*
X141413333Y-104210476D01*
X141318095Y-104258095D01*
X142222857Y-103972380D02*
X142841904Y-103972380D01*
X142508571Y-104353333D01*
X142651428Y-104353333D01*
X142746666Y-104400952D01*
X142794285Y-104448571D01*
X142841904Y-104543809D01*
X142841904Y-104781904D01*
X142794285Y-104877142D01*
X142746666Y-104924761D01*
X142651428Y-104972380D01*
X142365714Y-104972380D01*
X142270476Y-104924761D01*
X142222857Y-104877142D01*
X154157142Y-94427142D02*
X154109523Y-94474761D01*
X153966666Y-94522380D01*
X153871428Y-94522380D01*
X153728571Y-94474761D01*
X153633333Y-94379523D01*
X153585714Y-94284285D01*
X153538095Y-94093809D01*
X153538095Y-93950952D01*
X153585714Y-93760476D01*
X153633333Y-93665238D01*
X153728571Y-93570000D01*
X153871428Y-93522380D01*
X153966666Y-93522380D01*
X154109523Y-93570000D01*
X154157142Y-93617619D01*
X155109523Y-94522380D02*
X154538095Y-94522380D01*
X154823809Y-94522380D02*
X154823809Y-93522380D01*
X154728571Y-93665238D01*
X154633333Y-93760476D01*
X154538095Y-93808095D01*
X155966666Y-93855714D02*
X155966666Y-94522380D01*
X155728571Y-93474761D02*
X155490476Y-94189047D01*
X156109523Y-94189047D01*
X110437142Y-96642857D02*
X110484761Y-96690476D01*
X110532380Y-96833333D01*
X110532380Y-96928571D01*
X110484761Y-97071428D01*
X110389523Y-97166666D01*
X110294285Y-97214285D01*
X110103809Y-97261904D01*
X109960952Y-97261904D01*
X109770476Y-97214285D01*
X109675238Y-97166666D01*
X109580000Y-97071428D01*
X109532380Y-96928571D01*
X109532380Y-96833333D01*
X109580000Y-96690476D01*
X109627619Y-96642857D01*
X110532380Y-95690476D02*
X110532380Y-96261904D01*
X110532380Y-95976190D02*
X109532380Y-95976190D01*
X109675238Y-96071428D01*
X109770476Y-96166666D01*
X109818095Y-96261904D01*
X109532380Y-94785714D02*
X109532380Y-95261904D01*
X110008571Y-95309523D01*
X109960952Y-95261904D01*
X109913333Y-95166666D01*
X109913333Y-94928571D01*
X109960952Y-94833333D01*
X110008571Y-94785714D01*
X110103809Y-94738095D01*
X110341904Y-94738095D01*
X110437142Y-94785714D01*
X110484761Y-94833333D01*
X110532380Y-94928571D01*
X110532380Y-95166666D01*
X110484761Y-95261904D01*
X110437142Y-95309523D01*
X115977142Y-96672857D02*
X116024761Y-96720476D01*
X116072380Y-96863333D01*
X116072380Y-96958571D01*
X116024761Y-97101428D01*
X115929523Y-97196666D01*
X115834285Y-97244285D01*
X115643809Y-97291904D01*
X115500952Y-97291904D01*
X115310476Y-97244285D01*
X115215238Y-97196666D01*
X115120000Y-97101428D01*
X115072380Y-96958571D01*
X115072380Y-96863333D01*
X115120000Y-96720476D01*
X115167619Y-96672857D01*
X116072380Y-95720476D02*
X116072380Y-96291904D01*
X116072380Y-96006190D02*
X115072380Y-96006190D01*
X115215238Y-96101428D01*
X115310476Y-96196666D01*
X115358095Y-96291904D01*
X115072380Y-94863333D02*
X115072380Y-95053809D01*
X115120000Y-95149047D01*
X115167619Y-95196666D01*
X115310476Y-95291904D01*
X115500952Y-95339523D01*
X115881904Y-95339523D01*
X115977142Y-95291904D01*
X116024761Y-95244285D01*
X116072380Y-95149047D01*
X116072380Y-94958571D01*
X116024761Y-94863333D01*
X115977142Y-94815714D01*
X115881904Y-94768095D01*
X115643809Y-94768095D01*
X115548571Y-94815714D01*
X115500952Y-94863333D01*
X115453333Y-94958571D01*
X115453333Y-95149047D01*
X115500952Y-95244285D01*
X115548571Y-95291904D01*
X115643809Y-95339523D01*
X175491904Y-121392380D02*
X175491904Y-120392380D01*
X175730000Y-120392380D01*
X175872857Y-120440000D01*
X175968095Y-120535238D01*
X176015714Y-120630476D01*
X176063333Y-120820952D01*
X176063333Y-120963809D01*
X176015714Y-121154285D01*
X175968095Y-121249523D01*
X175872857Y-121344761D01*
X175730000Y-121392380D01*
X175491904Y-121392380D01*
X177015714Y-121392380D02*
X176444285Y-121392380D01*
X176730000Y-121392380D02*
X176730000Y-120392380D01*
X176634761Y-120535238D01*
X176539523Y-120630476D01*
X176444285Y-120678095D01*
X106666666Y-80088571D02*
X106333333Y-80088571D01*
X106333333Y-80612380D02*
X106333333Y-79612380D01*
X106809523Y-79612380D01*
X107714285Y-80612380D02*
X107142857Y-80612380D01*
X107428571Y-80612380D02*
X107428571Y-79612380D01*
X107333333Y-79755238D01*
X107238095Y-79850476D01*
X107142857Y-79898095D01*
X160692761Y-100223619D02*
X160597523Y-100176000D01*
X160502285Y-100080761D01*
X160359428Y-99937904D01*
X160264190Y-99890285D01*
X160168952Y-99890285D01*
X160216571Y-100128380D02*
X160121333Y-100080761D01*
X160026095Y-99985523D01*
X159978476Y-99795047D01*
X159978476Y-99461714D01*
X160026095Y-99271238D01*
X160121333Y-99176000D01*
X160216571Y-99128380D01*
X160407047Y-99128380D01*
X160502285Y-99176000D01*
X160597523Y-99271238D01*
X160645142Y-99461714D01*
X160645142Y-99795047D01*
X160597523Y-99985523D01*
X160502285Y-100080761D01*
X160407047Y-100128380D01*
X160216571Y-100128380D01*
X161026095Y-99223619D02*
X161073714Y-99176000D01*
X161168952Y-99128380D01*
X161407047Y-99128380D01*
X161502285Y-99176000D01*
X161549904Y-99223619D01*
X161597523Y-99318857D01*
X161597523Y-99414095D01*
X161549904Y-99556952D01*
X160978476Y-100128380D01*
X161597523Y-100128380D01*
X178543333Y-118302380D02*
X178210000Y-117826190D01*
X177971904Y-118302380D02*
X177971904Y-117302380D01*
X178352857Y-117302380D01*
X178448095Y-117350000D01*
X178495714Y-117397619D01*
X178543333Y-117492857D01*
X178543333Y-117635714D01*
X178495714Y-117730952D01*
X178448095Y-117778571D01*
X178352857Y-117826190D01*
X177971904Y-117826190D01*
X179400476Y-117635714D02*
X179400476Y-118302380D01*
X179162380Y-117254761D02*
X178924285Y-117969047D01*
X179543333Y-117969047D01*
X173593333Y-118172380D02*
X173260000Y-117696190D01*
X173021904Y-118172380D02*
X173021904Y-117172380D01*
X173402857Y-117172380D01*
X173498095Y-117220000D01*
X173545714Y-117267619D01*
X173593333Y-117362857D01*
X173593333Y-117505714D01*
X173545714Y-117600952D01*
X173498095Y-117648571D01*
X173402857Y-117696190D01*
X173021904Y-117696190D01*
X174498095Y-117172380D02*
X174021904Y-117172380D01*
X173974285Y-117648571D01*
X174021904Y-117600952D01*
X174117142Y-117553333D01*
X174355238Y-117553333D01*
X174450476Y-117600952D01*
X174498095Y-117648571D01*
X174545714Y-117743809D01*
X174545714Y-117981904D01*
X174498095Y-118077142D01*
X174450476Y-118124761D01*
X174355238Y-118172380D01*
X174117142Y-118172380D01*
X174021904Y-118124761D01*
X173974285Y-118077142D01*
X112773333Y-94982380D02*
X112440000Y-94506190D01*
X112201904Y-94982380D02*
X112201904Y-93982380D01*
X112582857Y-93982380D01*
X112678095Y-94030000D01*
X112725714Y-94077619D01*
X112773333Y-94172857D01*
X112773333Y-94315714D01*
X112725714Y-94410952D01*
X112678095Y-94458571D01*
X112582857Y-94506190D01*
X112201904Y-94506190D01*
X113106666Y-93982380D02*
X113773333Y-93982380D01*
X113344761Y-94982380D01*
X144288095Y-108712380D02*
X144288095Y-109521904D01*
X144335714Y-109617142D01*
X144383333Y-109664761D01*
X144478571Y-109712380D01*
X144669047Y-109712380D01*
X144764285Y-109664761D01*
X144811904Y-109617142D01*
X144859523Y-109521904D01*
X144859523Y-108712380D01*
X145859523Y-109712380D02*
X145288095Y-109712380D01*
X145573809Y-109712380D02*
X145573809Y-108712380D01*
X145478571Y-108855238D01*
X145383333Y-108950476D01*
X145288095Y-108998095D01*
X131047142Y-106022380D02*
X130713809Y-105546190D01*
X130475714Y-106022380D02*
X130475714Y-105022380D01*
X130856666Y-105022380D01*
X130951904Y-105070000D01*
X130999523Y-105117619D01*
X131047142Y-105212857D01*
X131047142Y-105355714D01*
X130999523Y-105450952D01*
X130951904Y-105498571D01*
X130856666Y-105546190D01*
X130475714Y-105546190D01*
X131999523Y-106022380D02*
X131428095Y-106022380D01*
X131713809Y-106022380D02*
X131713809Y-105022380D01*
X131618571Y-105165238D01*
X131523333Y-105260476D01*
X131428095Y-105308095D01*
X132618571Y-105022380D02*
X132713809Y-105022380D01*
X132809047Y-105070000D01*
X132856666Y-105117619D01*
X132904285Y-105212857D01*
X132951904Y-105403333D01*
X132951904Y-105641428D01*
X132904285Y-105831904D01*
X132856666Y-105927142D01*
X132809047Y-105974761D01*
X132713809Y-106022380D01*
X132618571Y-106022380D01*
X132523333Y-105974761D01*
X132475714Y-105927142D01*
X132428095Y-105831904D01*
X132380476Y-105641428D01*
X132380476Y-105403333D01*
X132428095Y-105212857D01*
X132475714Y-105117619D01*
X132523333Y-105070000D01*
X132618571Y-105022380D01*
X112158095Y-101342380D02*
X112158095Y-102151904D01*
X112205714Y-102247142D01*
X112253333Y-102294761D01*
X112348571Y-102342380D01*
X112539047Y-102342380D01*
X112634285Y-102294761D01*
X112681904Y-102247142D01*
X112729523Y-102151904D01*
X112729523Y-101342380D01*
X113634285Y-101675714D02*
X113634285Y-102342380D01*
X113396190Y-101294761D02*
X113158095Y-102009047D01*
X113777142Y-102009047D01*
X156517142Y-112502857D02*
X156564761Y-112550476D01*
X156612380Y-112693333D01*
X156612380Y-112788571D01*
X156564761Y-112931428D01*
X156469523Y-113026666D01*
X156374285Y-113074285D01*
X156183809Y-113121904D01*
X156040952Y-113121904D01*
X155850476Y-113074285D01*
X155755238Y-113026666D01*
X155660000Y-112931428D01*
X155612380Y-112788571D01*
X155612380Y-112693333D01*
X155660000Y-112550476D01*
X155707619Y-112502857D01*
X156612380Y-111550476D02*
X156612380Y-112121904D01*
X156612380Y-111836190D02*
X155612380Y-111836190D01*
X155755238Y-111931428D01*
X155850476Y-112026666D01*
X155898095Y-112121904D01*
X155612380Y-110931428D02*
X155612380Y-110836190D01*
X155660000Y-110740952D01*
X155707619Y-110693333D01*
X155802857Y-110645714D01*
X155993333Y-110598095D01*
X156231428Y-110598095D01*
X156421904Y-110645714D01*
X156517142Y-110693333D01*
X156564761Y-110740952D01*
X156612380Y-110836190D01*
X156612380Y-110931428D01*
X156564761Y-111026666D01*
X156517142Y-111074285D01*
X156421904Y-111121904D01*
X156231428Y-111169523D01*
X155993333Y-111169523D01*
X155802857Y-111121904D01*
X155707619Y-111074285D01*
X155660000Y-111026666D01*
X155612380Y-110931428D01*
X109537142Y-118312380D02*
X109203809Y-117836190D01*
X108965714Y-118312380D02*
X108965714Y-117312380D01*
X109346666Y-117312380D01*
X109441904Y-117360000D01*
X109489523Y-117407619D01*
X109537142Y-117502857D01*
X109537142Y-117645714D01*
X109489523Y-117740952D01*
X109441904Y-117788571D01*
X109346666Y-117836190D01*
X108965714Y-117836190D01*
X110489523Y-118312380D02*
X109918095Y-118312380D01*
X110203809Y-118312380D02*
X110203809Y-117312380D01*
X110108571Y-117455238D01*
X110013333Y-117550476D01*
X109918095Y-117598095D01*
X110870476Y-117407619D02*
X110918095Y-117360000D01*
X111013333Y-117312380D01*
X111251428Y-117312380D01*
X111346666Y-117360000D01*
X111394285Y-117407619D01*
X111441904Y-117502857D01*
X111441904Y-117598095D01*
X111394285Y-117740952D01*
X110822857Y-118312380D01*
X111441904Y-118312380D01*
X114557142Y-118362380D02*
X114223809Y-117886190D01*
X113985714Y-118362380D02*
X113985714Y-117362380D01*
X114366666Y-117362380D01*
X114461904Y-117410000D01*
X114509523Y-117457619D01*
X114557142Y-117552857D01*
X114557142Y-117695714D01*
X114509523Y-117790952D01*
X114461904Y-117838571D01*
X114366666Y-117886190D01*
X113985714Y-117886190D01*
X115509523Y-118362380D02*
X114938095Y-118362380D01*
X115223809Y-118362380D02*
X115223809Y-117362380D01*
X115128571Y-117505238D01*
X115033333Y-117600476D01*
X114938095Y-117648095D01*
X115842857Y-117362380D02*
X116461904Y-117362380D01*
X116128571Y-117743333D01*
X116271428Y-117743333D01*
X116366666Y-117790952D01*
X116414285Y-117838571D01*
X116461904Y-117933809D01*
X116461904Y-118171904D01*
X116414285Y-118267142D01*
X116366666Y-118314761D01*
X116271428Y-118362380D01*
X115985714Y-118362380D01*
X115890476Y-118314761D01*
X115842857Y-118267142D01*
X118962380Y-117842857D02*
X118486190Y-118176190D01*
X118962380Y-118414285D02*
X117962380Y-118414285D01*
X117962380Y-118033333D01*
X118010000Y-117938095D01*
X118057619Y-117890476D01*
X118152857Y-117842857D01*
X118295714Y-117842857D01*
X118390952Y-117890476D01*
X118438571Y-117938095D01*
X118486190Y-118033333D01*
X118486190Y-118414285D01*
X118962380Y-116890476D02*
X118962380Y-117461904D01*
X118962380Y-117176190D02*
X117962380Y-117176190D01*
X118105238Y-117271428D01*
X118200476Y-117366666D01*
X118248095Y-117461904D01*
X118295714Y-116033333D02*
X118962380Y-116033333D01*
X117914761Y-116271428D02*
X118629047Y-116509523D01*
X118629047Y-115890476D01*
X126972380Y-117842857D02*
X126496190Y-118176190D01*
X126972380Y-118414285D02*
X125972380Y-118414285D01*
X125972380Y-118033333D01*
X126020000Y-117938095D01*
X126067619Y-117890476D01*
X126162857Y-117842857D01*
X126305714Y-117842857D01*
X126400952Y-117890476D01*
X126448571Y-117938095D01*
X126496190Y-118033333D01*
X126496190Y-118414285D01*
X126972380Y-116890476D02*
X126972380Y-117461904D01*
X126972380Y-117176190D02*
X125972380Y-117176190D01*
X126115238Y-117271428D01*
X126210476Y-117366666D01*
X126258095Y-117461904D01*
X125972380Y-115985714D02*
X125972380Y-116461904D01*
X126448571Y-116509523D01*
X126400952Y-116461904D01*
X126353333Y-116366666D01*
X126353333Y-116128571D01*
X126400952Y-116033333D01*
X126448571Y-115985714D01*
X126543809Y-115938095D01*
X126781904Y-115938095D01*
X126877142Y-115985714D01*
X126924761Y-116033333D01*
X126972380Y-116128571D01*
X126972380Y-116366666D01*
X126924761Y-116461904D01*
X126877142Y-116509523D01*
X142738095Y-99442380D02*
X142738095Y-100251904D01*
X142785714Y-100347142D01*
X142833333Y-100394761D01*
X142928571Y-100442380D01*
X143119047Y-100442380D01*
X143214285Y-100394761D01*
X143261904Y-100347142D01*
X143309523Y-100251904D01*
X143309523Y-99442380D01*
X143690476Y-99442380D02*
X144309523Y-99442380D01*
X143976190Y-99823333D01*
X144119047Y-99823333D01*
X144214285Y-99870952D01*
X144261904Y-99918571D01*
X144309523Y-100013809D01*
X144309523Y-100251904D01*
X144261904Y-100347142D01*
X144214285Y-100394761D01*
X144119047Y-100442380D01*
X143833333Y-100442380D01*
X143738095Y-100394761D01*
X143690476Y-100347142D01*
X121718095Y-113442380D02*
X121718095Y-114251904D01*
X121765714Y-114347142D01*
X121813333Y-114394761D01*
X121908571Y-114442380D01*
X122099047Y-114442380D01*
X122194285Y-114394761D01*
X122241904Y-114347142D01*
X122289523Y-114251904D01*
X122289523Y-113442380D01*
X122908571Y-113870952D02*
X122813333Y-113823333D01*
X122765714Y-113775714D01*
X122718095Y-113680476D01*
X122718095Y-113632857D01*
X122765714Y-113537619D01*
X122813333Y-113490000D01*
X122908571Y-113442380D01*
X123099047Y-113442380D01*
X123194285Y-113490000D01*
X123241904Y-113537619D01*
X123289523Y-113632857D01*
X123289523Y-113680476D01*
X123241904Y-113775714D01*
X123194285Y-113823333D01*
X123099047Y-113870952D01*
X122908571Y-113870952D01*
X122813333Y-113918571D01*
X122765714Y-113966190D01*
X122718095Y-114061428D01*
X122718095Y-114251904D01*
X122765714Y-114347142D01*
X122813333Y-114394761D01*
X122908571Y-114442380D01*
X123099047Y-114442380D01*
X123194285Y-114394761D01*
X123241904Y-114347142D01*
X123289523Y-114251904D01*
X123289523Y-114061428D01*
X123241904Y-113966190D01*
X123194285Y-113918571D01*
X123099047Y-113870952D01*
X111981904Y-121462380D02*
X111981904Y-120462380D01*
X112220000Y-120462380D01*
X112362857Y-120510000D01*
X112458095Y-120605238D01*
X112505714Y-120700476D01*
X112553333Y-120890952D01*
X112553333Y-121033809D01*
X112505714Y-121224285D01*
X112458095Y-121319523D01*
X112362857Y-121414761D01*
X112220000Y-121462380D01*
X111981904Y-121462380D01*
X112934285Y-120557619D02*
X112981904Y-120510000D01*
X113077142Y-120462380D01*
X113315238Y-120462380D01*
X113410476Y-120510000D01*
X113458095Y-120557619D01*
X113505714Y-120652857D01*
X113505714Y-120748095D01*
X113458095Y-120890952D01*
X112886666Y-121462380D01*
X113505714Y-121462380D01*
X109247142Y-110962380D02*
X108913809Y-110486190D01*
X108675714Y-110962380D02*
X108675714Y-109962380D01*
X109056666Y-109962380D01*
X109151904Y-110010000D01*
X109199523Y-110057619D01*
X109247142Y-110152857D01*
X109247142Y-110295714D01*
X109199523Y-110390952D01*
X109151904Y-110438571D01*
X109056666Y-110486190D01*
X108675714Y-110486190D01*
X110199523Y-110962380D02*
X109628095Y-110962380D01*
X109913809Y-110962380D02*
X109913809Y-109962380D01*
X109818571Y-110105238D01*
X109723333Y-110200476D01*
X109628095Y-110248095D01*
X111056666Y-109962380D02*
X110866190Y-109962380D01*
X110770952Y-110010000D01*
X110723333Y-110057619D01*
X110628095Y-110200476D01*
X110580476Y-110390952D01*
X110580476Y-110771904D01*
X110628095Y-110867142D01*
X110675714Y-110914761D01*
X110770952Y-110962380D01*
X110961428Y-110962380D01*
X111056666Y-110914761D01*
X111104285Y-110867142D01*
X111151904Y-110771904D01*
X111151904Y-110533809D01*
X111104285Y-110438571D01*
X111056666Y-110390952D01*
X110961428Y-110343333D01*
X110770952Y-110343333D01*
X110675714Y-110390952D01*
X110628095Y-110438571D01*
X110580476Y-110533809D01*
X109197142Y-109442380D02*
X108863809Y-108966190D01*
X108625714Y-109442380D02*
X108625714Y-108442380D01*
X109006666Y-108442380D01*
X109101904Y-108490000D01*
X109149523Y-108537619D01*
X109197142Y-108632857D01*
X109197142Y-108775714D01*
X109149523Y-108870952D01*
X109101904Y-108918571D01*
X109006666Y-108966190D01*
X108625714Y-108966190D01*
X110149523Y-109442380D02*
X109578095Y-109442380D01*
X109863809Y-109442380D02*
X109863809Y-108442380D01*
X109768571Y-108585238D01*
X109673333Y-108680476D01*
X109578095Y-108728095D01*
X110482857Y-108442380D02*
X111149523Y-108442380D01*
X110720952Y-109442380D01*
X113247142Y-113696666D02*
X113294761Y-113744285D01*
X113342380Y-113887142D01*
X113342380Y-113982380D01*
X113294761Y-114125238D01*
X113199523Y-114220476D01*
X113104285Y-114268095D01*
X112913809Y-114315714D01*
X112770952Y-114315714D01*
X112580476Y-114268095D01*
X112485238Y-114220476D01*
X112390000Y-114125238D01*
X112342380Y-113982380D01*
X112342380Y-113887142D01*
X112390000Y-113744285D01*
X112437619Y-113696666D01*
X112342380Y-112791904D02*
X112342380Y-113268095D01*
X112818571Y-113315714D01*
X112770952Y-113268095D01*
X112723333Y-113172857D01*
X112723333Y-112934761D01*
X112770952Y-112839523D01*
X112818571Y-112791904D01*
X112913809Y-112744285D01*
X113151904Y-112744285D01*
X113247142Y-112791904D01*
X113294761Y-112839523D01*
X113342380Y-112934761D01*
X113342380Y-113172857D01*
X113294761Y-113268095D01*
X113247142Y-113315714D01*
X129202380Y-122238095D02*
X128202380Y-122238095D01*
X128202380Y-122000000D01*
X128250000Y-121857142D01*
X128345238Y-121761904D01*
X128440476Y-121714285D01*
X128630952Y-121666666D01*
X128773809Y-121666666D01*
X128964285Y-121714285D01*
X129059523Y-121761904D01*
X129154761Y-121857142D01*
X129202380Y-122000000D01*
X129202380Y-122238095D01*
X128202380Y-121333333D02*
X128202380Y-120714285D01*
X128583333Y-121047619D01*
X128583333Y-120904761D01*
X128630952Y-120809523D01*
X128678571Y-120761904D01*
X128773809Y-120714285D01*
X129011904Y-120714285D01*
X129107142Y-120761904D01*
X129154761Y-120809523D01*
X129202380Y-120904761D01*
X129202380Y-121190476D01*
X129154761Y-121285714D01*
X129107142Y-121333333D01*
X134452380Y-122238095D02*
X133452380Y-122238095D01*
X133452380Y-122000000D01*
X133500000Y-121857142D01*
X133595238Y-121761904D01*
X133690476Y-121714285D01*
X133880952Y-121666666D01*
X134023809Y-121666666D01*
X134214285Y-121714285D01*
X134309523Y-121761904D01*
X134404761Y-121857142D01*
X134452380Y-122000000D01*
X134452380Y-122238095D01*
X133785714Y-120809523D02*
X134452380Y-120809523D01*
X133404761Y-121047619D02*
X134119047Y-121285714D01*
X134119047Y-120666666D01*
X139702380Y-122238095D02*
X138702380Y-122238095D01*
X138702380Y-122000000D01*
X138750000Y-121857142D01*
X138845238Y-121761904D01*
X138940476Y-121714285D01*
X139130952Y-121666666D01*
X139273809Y-121666666D01*
X139464285Y-121714285D01*
X139559523Y-121761904D01*
X139654761Y-121857142D01*
X139702380Y-122000000D01*
X139702380Y-122238095D01*
X138702380Y-120761904D02*
X138702380Y-121238095D01*
X139178571Y-121285714D01*
X139130952Y-121238095D01*
X139083333Y-121142857D01*
X139083333Y-120904761D01*
X139130952Y-120809523D01*
X139178571Y-120761904D01*
X139273809Y-120714285D01*
X139511904Y-120714285D01*
X139607142Y-120761904D01*
X139654761Y-120809523D01*
X139702380Y-120904761D01*
X139702380Y-121142857D01*
X139654761Y-121238095D01*
X139607142Y-121285714D01*
X144952380Y-122238095D02*
X143952380Y-122238095D01*
X143952380Y-122000000D01*
X144000000Y-121857142D01*
X144095238Y-121761904D01*
X144190476Y-121714285D01*
X144380952Y-121666666D01*
X144523809Y-121666666D01*
X144714285Y-121714285D01*
X144809523Y-121761904D01*
X144904761Y-121857142D01*
X144952380Y-122000000D01*
X144952380Y-122238095D01*
X143952380Y-120809523D02*
X143952380Y-121000000D01*
X144000000Y-121095238D01*
X144047619Y-121142857D01*
X144190476Y-121238095D01*
X144380952Y-121285714D01*
X144761904Y-121285714D01*
X144857142Y-121238095D01*
X144904761Y-121190476D01*
X144952380Y-121095238D01*
X144952380Y-120904761D01*
X144904761Y-120809523D01*
X144857142Y-120761904D01*
X144761904Y-120714285D01*
X144523809Y-120714285D01*
X144428571Y-120761904D01*
X144380952Y-120809523D01*
X144333333Y-120904761D01*
X144333333Y-121095238D01*
X144380952Y-121190476D01*
X144428571Y-121238095D01*
X144523809Y-121285714D01*
X150202380Y-122238095D02*
X149202380Y-122238095D01*
X149202380Y-122000000D01*
X149250000Y-121857142D01*
X149345238Y-121761904D01*
X149440476Y-121714285D01*
X149630952Y-121666666D01*
X149773809Y-121666666D01*
X149964285Y-121714285D01*
X150059523Y-121761904D01*
X150154761Y-121857142D01*
X150202380Y-122000000D01*
X150202380Y-122238095D01*
X149202380Y-121333333D02*
X149202380Y-120666666D01*
X150202380Y-121095238D01*
X155452380Y-122238095D02*
X154452380Y-122238095D01*
X154452380Y-122000000D01*
X154500000Y-121857142D01*
X154595238Y-121761904D01*
X154690476Y-121714285D01*
X154880952Y-121666666D01*
X155023809Y-121666666D01*
X155214285Y-121714285D01*
X155309523Y-121761904D01*
X155404761Y-121857142D01*
X155452380Y-122000000D01*
X155452380Y-122238095D01*
X154880952Y-121095238D02*
X154833333Y-121190476D01*
X154785714Y-121238095D01*
X154690476Y-121285714D01*
X154642857Y-121285714D01*
X154547619Y-121238095D01*
X154500000Y-121190476D01*
X154452380Y-121095238D01*
X154452380Y-120904761D01*
X154500000Y-120809523D01*
X154547619Y-120761904D01*
X154642857Y-120714285D01*
X154690476Y-120714285D01*
X154785714Y-120761904D01*
X154833333Y-120809523D01*
X154880952Y-120904761D01*
X154880952Y-121095238D01*
X154928571Y-121190476D01*
X154976190Y-121238095D01*
X155071428Y-121285714D01*
X155261904Y-121285714D01*
X155357142Y-121238095D01*
X155404761Y-121190476D01*
X155452380Y-121095238D01*
X155452380Y-120904761D01*
X155404761Y-120809523D01*
X155357142Y-120761904D01*
X155261904Y-120714285D01*
X155071428Y-120714285D01*
X154976190Y-120761904D01*
X154928571Y-120809523D01*
X154880952Y-120904761D01*
X160702380Y-122238095D02*
X159702380Y-122238095D01*
X159702380Y-122000000D01*
X159750000Y-121857142D01*
X159845238Y-121761904D01*
X159940476Y-121714285D01*
X160130952Y-121666666D01*
X160273809Y-121666666D01*
X160464285Y-121714285D01*
X160559523Y-121761904D01*
X160654761Y-121857142D01*
X160702380Y-122000000D01*
X160702380Y-122238095D01*
X160702380Y-121190476D02*
X160702380Y-121000000D01*
X160654761Y-120904761D01*
X160607142Y-120857142D01*
X160464285Y-120761904D01*
X160273809Y-120714285D01*
X159892857Y-120714285D01*
X159797619Y-120761904D01*
X159750000Y-120809523D01*
X159702380Y-120904761D01*
X159702380Y-121095238D01*
X159750000Y-121190476D01*
X159797619Y-121238095D01*
X159892857Y-121285714D01*
X160130952Y-121285714D01*
X160226190Y-121238095D01*
X160273809Y-121190476D01*
X160321428Y-121095238D01*
X160321428Y-120904761D01*
X160273809Y-120809523D01*
X160226190Y-120761904D01*
X160130952Y-120714285D01*
X165952380Y-122714285D02*
X164952380Y-122714285D01*
X164952380Y-122476190D01*
X165000000Y-122333333D01*
X165095238Y-122238095D01*
X165190476Y-122190476D01*
X165380952Y-122142857D01*
X165523809Y-122142857D01*
X165714285Y-122190476D01*
X165809523Y-122238095D01*
X165904761Y-122333333D01*
X165952380Y-122476190D01*
X165952380Y-122714285D01*
X165952380Y-121190476D02*
X165952380Y-121761904D01*
X165952380Y-121476190D02*
X164952380Y-121476190D01*
X165095238Y-121571428D01*
X165190476Y-121666666D01*
X165238095Y-121761904D01*
X164952380Y-120571428D02*
X164952380Y-120476190D01*
X165000000Y-120380952D01*
X165047619Y-120333333D01*
X165142857Y-120285714D01*
X165333333Y-120238095D01*
X165571428Y-120238095D01*
X165761904Y-120285714D01*
X165857142Y-120333333D01*
X165904761Y-120380952D01*
X165952380Y-120476190D01*
X165952380Y-120571428D01*
X165904761Y-120666666D01*
X165857142Y-120714285D01*
X165761904Y-120761904D01*
X165571428Y-120809523D01*
X165333333Y-120809523D01*
X165142857Y-120761904D01*
X165047619Y-120714285D01*
X165000000Y-120666666D01*
X164952380Y-120571428D01*
X110242380Y-86193333D02*
X110956666Y-86193333D01*
X111099523Y-86240952D01*
X111194761Y-86336190D01*
X111242380Y-86479047D01*
X111242380Y-86574285D01*
X110242380Y-85812380D02*
X110242380Y-85193333D01*
X110623333Y-85526666D01*
X110623333Y-85383809D01*
X110670952Y-85288571D01*
X110718571Y-85240952D01*
X110813809Y-85193333D01*
X111051904Y-85193333D01*
X111147142Y-85240952D01*
X111194761Y-85288571D01*
X111242380Y-85383809D01*
X111242380Y-85669523D01*
X111194761Y-85764761D01*
X111147142Y-85812380D01*
X162133333Y-93812380D02*
X161800000Y-93336190D01*
X161561904Y-93812380D02*
X161561904Y-92812380D01*
X161942857Y-92812380D01*
X162038095Y-92860000D01*
X162085714Y-92907619D01*
X162133333Y-93002857D01*
X162133333Y-93145714D01*
X162085714Y-93240952D01*
X162038095Y-93288571D01*
X161942857Y-93336190D01*
X161561904Y-93336190D01*
X162466666Y-92812380D02*
X163085714Y-92812380D01*
X162752380Y-93193333D01*
X162895238Y-93193333D01*
X162990476Y-93240952D01*
X163038095Y-93288571D01*
X163085714Y-93383809D01*
X163085714Y-93621904D01*
X163038095Y-93717142D01*
X162990476Y-93764761D01*
X162895238Y-93812380D01*
X162609523Y-93812380D01*
X162514285Y-93764761D01*
X162466666Y-93717142D01*
X119282380Y-114172857D02*
X118806190Y-114506190D01*
X119282380Y-114744285D02*
X118282380Y-114744285D01*
X118282380Y-114363333D01*
X118330000Y-114268095D01*
X118377619Y-114220476D01*
X118472857Y-114172857D01*
X118615714Y-114172857D01*
X118710952Y-114220476D01*
X118758571Y-114268095D01*
X118806190Y-114363333D01*
X118806190Y-114744285D01*
X119282380Y-113220476D02*
X119282380Y-113791904D01*
X119282380Y-113506190D02*
X118282380Y-113506190D01*
X118425238Y-113601428D01*
X118520476Y-113696666D01*
X118568095Y-113791904D01*
X119282380Y-112268095D02*
X119282380Y-112839523D01*
X119282380Y-112553809D02*
X118282380Y-112553809D01*
X118425238Y-112649047D01*
X118520476Y-112744285D01*
X118568095Y-112839523D01*
X131202380Y-122333333D02*
X131916666Y-122333333D01*
X132059523Y-122380952D01*
X132154761Y-122476190D01*
X132202380Y-122619047D01*
X132202380Y-122714285D01*
X132202380Y-121333333D02*
X132202380Y-121904761D01*
X132202380Y-121619047D02*
X131202380Y-121619047D01*
X131345238Y-121714285D01*
X131440476Y-121809523D01*
X131488095Y-121904761D01*
X127482380Y-100353333D02*
X128196666Y-100353333D01*
X128339523Y-100400952D01*
X128434761Y-100496190D01*
X128482380Y-100639047D01*
X128482380Y-100734285D01*
X127577619Y-99924761D02*
X127530000Y-99877142D01*
X127482380Y-99781904D01*
X127482380Y-99543809D01*
X127530000Y-99448571D01*
X127577619Y-99400952D01*
X127672857Y-99353333D01*
X127768095Y-99353333D01*
X127910952Y-99400952D01*
X128482380Y-99972380D01*
X128482380Y-99353333D01*
X136452380Y-122333333D02*
X137166666Y-122333333D01*
X137309523Y-122380952D01*
X137404761Y-122476190D01*
X137452380Y-122619047D01*
X137452380Y-122714285D01*
X136785714Y-121428571D02*
X137452380Y-121428571D01*
X136404761Y-121666666D02*
X137119047Y-121904761D01*
X137119047Y-121285714D01*
X141702380Y-122333333D02*
X142416666Y-122333333D01*
X142559523Y-122380952D01*
X142654761Y-122476190D01*
X142702380Y-122619047D01*
X142702380Y-122714285D01*
X141702380Y-121428571D02*
X141702380Y-121619047D01*
X141750000Y-121714285D01*
X141797619Y-121761904D01*
X141940476Y-121857142D01*
X142130952Y-121904761D01*
X142511904Y-121904761D01*
X142607142Y-121857142D01*
X142654761Y-121809523D01*
X142702380Y-121714285D01*
X142702380Y-121523809D01*
X142654761Y-121428571D01*
X142607142Y-121380952D01*
X142511904Y-121333333D01*
X142273809Y-121333333D01*
X142178571Y-121380952D01*
X142130952Y-121428571D01*
X142083333Y-121523809D01*
X142083333Y-121714285D01*
X142130952Y-121809523D01*
X142178571Y-121857142D01*
X142273809Y-121904761D01*
X146952380Y-122333333D02*
X147666666Y-122333333D01*
X147809523Y-122380952D01*
X147904761Y-122476190D01*
X147952380Y-122619047D01*
X147952380Y-122714285D01*
X146952380Y-121952380D02*
X146952380Y-121285714D01*
X147952380Y-121714285D01*
X152202380Y-122333333D02*
X152916666Y-122333333D01*
X153059523Y-122380952D01*
X153154761Y-122476190D01*
X153202380Y-122619047D01*
X153202380Y-122714285D01*
X152630952Y-121714285D02*
X152583333Y-121809523D01*
X152535714Y-121857142D01*
X152440476Y-121904761D01*
X152392857Y-121904761D01*
X152297619Y-121857142D01*
X152250000Y-121809523D01*
X152202380Y-121714285D01*
X152202380Y-121523809D01*
X152250000Y-121428571D01*
X152297619Y-121380952D01*
X152392857Y-121333333D01*
X152440476Y-121333333D01*
X152535714Y-121380952D01*
X152583333Y-121428571D01*
X152630952Y-121523809D01*
X152630952Y-121714285D01*
X152678571Y-121809523D01*
X152726190Y-121857142D01*
X152821428Y-121904761D01*
X153011904Y-121904761D01*
X153107142Y-121857142D01*
X153154761Y-121809523D01*
X153202380Y-121714285D01*
X153202380Y-121523809D01*
X153154761Y-121428571D01*
X153107142Y-121380952D01*
X153011904Y-121333333D01*
X152821428Y-121333333D01*
X152726190Y-121380952D01*
X152678571Y-121428571D01*
X152630952Y-121523809D01*
X157452380Y-122333333D02*
X158166666Y-122333333D01*
X158309523Y-122380952D01*
X158404761Y-122476190D01*
X158452380Y-122619047D01*
X158452380Y-122714285D01*
X158452380Y-121809523D02*
X158452380Y-121619047D01*
X158404761Y-121523809D01*
X158357142Y-121476190D01*
X158214285Y-121380952D01*
X158023809Y-121333333D01*
X157642857Y-121333333D01*
X157547619Y-121380952D01*
X157500000Y-121428571D01*
X157452380Y-121523809D01*
X157452380Y-121714285D01*
X157500000Y-121809523D01*
X157547619Y-121857142D01*
X157642857Y-121904761D01*
X157880952Y-121904761D01*
X157976190Y-121857142D01*
X158023809Y-121809523D01*
X158071428Y-121714285D01*
X158071428Y-121523809D01*
X158023809Y-121428571D01*
X157976190Y-121380952D01*
X157880952Y-121333333D01*
X162702380Y-122309523D02*
X163416666Y-122309523D01*
X163559523Y-122357142D01*
X163654761Y-122452380D01*
X163702380Y-122595238D01*
X163702380Y-122690476D01*
X163702380Y-121309523D02*
X163702380Y-121880952D01*
X163702380Y-121595238D02*
X162702380Y-121595238D01*
X162845238Y-121690476D01*
X162940476Y-121785714D01*
X162988095Y-121880952D01*
X162702380Y-120690476D02*
X162702380Y-120595238D01*
X162750000Y-120500000D01*
X162797619Y-120452380D01*
X162892857Y-120404761D01*
X163083333Y-120357142D01*
X163321428Y-120357142D01*
X163511904Y-120404761D01*
X163607142Y-120452380D01*
X163654761Y-120500000D01*
X163702380Y-120595238D01*
X163702380Y-120690476D01*
X163654761Y-120785714D01*
X163607142Y-120833333D01*
X163511904Y-120880952D01*
X163321428Y-120928571D01*
X163083333Y-120928571D01*
X162892857Y-120880952D01*
X162797619Y-120833333D01*
X162750000Y-120785714D01*
X162702380Y-120690476D01*
X167952380Y-122309523D02*
X168666666Y-122309523D01*
X168809523Y-122357142D01*
X168904761Y-122452380D01*
X168952380Y-122595238D01*
X168952380Y-122690476D01*
X168952380Y-121309523D02*
X168952380Y-121880952D01*
X168952380Y-121595238D02*
X167952380Y-121595238D01*
X168095238Y-121690476D01*
X168190476Y-121785714D01*
X168238095Y-121880952D01*
X168952380Y-120357142D02*
X168952380Y-120928571D01*
X168952380Y-120642857D02*
X167952380Y-120642857D01*
X168095238Y-120738095D01*
X168190476Y-120833333D01*
X168238095Y-120928571D01*
X124024285Y-95522380D02*
X124595714Y-95522380D01*
X124310000Y-96522380D02*
X124310000Y-95522380D01*
X124929047Y-96522380D02*
X124929047Y-95522380D01*
X124929047Y-95998571D02*
X125500476Y-95998571D01*
X125500476Y-96522380D02*
X125500476Y-95522380D01*
X126500476Y-96522380D02*
X125929047Y-96522380D01*
X126214761Y-96522380D02*
X126214761Y-95522380D01*
X126119523Y-95665238D01*
X126024285Y-95760476D01*
X125929047Y-95808095D01*
M02*
